<?xml version="1.0" encoding="utf-8"?>
<!-- Generator: Adobe Illustrator 24.2.2, SVG Export Plug-In . SVG Version: 6.00 Build 0)  -->
<svg version="1.1" id="Layer_1" xmlns="http://www.w3.org/2000/svg" xmlns:xlink="http://www.w3.org/1999/xlink" x="0px" y="0px"
	 viewBox="0 0 951 840" style="enable-background:new 0 0 951 840;" xml:space="preserve">
<style type="text/css">
	.st0{fill:url(#SVGID_1_);}
	.st1{fill:url(#SVGID_2_);}
	.st2{fill:url(#SVGID_3_);}
	.st3{fill:url(#SVGID_4_);}
	.st4{fill:url(#SVGID_5_);}
	.st5{fill:url(#SVGID_6_);}
	.st6{fill:url(#SVGID_7_);}
	.st7{fill:url(#SVGID_8_);}
	.st8{fill:url(#SVGID_9_);}
	.st9{fill:url(#SVGID_10_);}
	.st10{fill:#84D2E6;}
	.st11{fill:#97DEEF;}
	.st12{fill:#FFFFFF;}
	.st13{fill:#F2EC22;}
	.st14{fill:#A7A7A7;}
	.st15{fill:#DBD8D5;}
	.st16{fill:#7C7B79;}
	.st17{fill:#23538C;}
	.st18{fill:#144270;}
	.st19{fill:#0E2142;}
	.st20{fill:#FCD7A3;}
	.st21{fill:#0F2145;}
	.st22{fill:#F23436;}
	.st23{fill:#FE6F71;}
	.st24{fill:url(#SVGID_11_);}
	.st25{fill:#D3D3D3;}
	.st26{fill:#DBD9DD;}
	.st27{fill:url(#SVGID_12_);}
	.st28{fill:url(#SVGID_13_);}
	.st29{fill:#D7F4F9;}
	.st30{fill:url(#SVGID_14_);}
	.st31{fill:url(#SVGID_15_);}
	.st32{fill:#27BFE2;}
	.st33{fill:#0CACC6;}
	.st34{fill:#028B99;}
	.st35{fill:#FCFCD4;}
	.st36{fill:#DD4536;}
	.st37{fill:#2BB673;}
	.st38{fill:#1C75BC;}
	.st39{display:none;}
	.st40{display:inline;fill:#14035B;}
	.st41{display:inline;}
	.st42{fill:#0E0E30;}
	.st43{fill:url(#SVGID_16_);}
	.st44{fill:#14035B;}
	.st45{display:inline;fill:url(#SVGID_17_);}
	.st46{display:inline;fill:#230482;}
	.st47{display:inline;fill:#FFC2A9;}
	.st48{display:inline;fill:url(#SVGID_18_);}
	.st49{display:inline;fill:#0E0E30;}
	.st50{display:inline;fill:url(#SVGID_19_);}
	.st51{display:inline;fill:#D3D3D3;}
	.st52{display:inline;fill:#EFAB92;}
	.st53{display:inline;fill:#EF9D84;}
	.st54{fill:#191F54;}
	.st55{fill:url(#SVGID_20_);}
	.st56{fill:url(#SVGID_21_);}
	.st57{fill:url(#SVGID_22_);}
	.st58{fill:#E29D88;}
	.st59{fill:#FFC2A9;}
	.st60{fill:#EFAB92;}
	.st61{fill:#617375;}
	.st62{fill:#889CA0;}
	.st63{fill:url(#SVGID_23_);}
</style>
<linearGradient id="SVGID_1_" gradientUnits="userSpaceOnUse" x1="18.6274" y1="419.8721" x2="877.0325" y2="419.8721">
	<stop  offset="0" style="stop-color:#FFF0DB"/>
	<stop  offset="0.2594" style="stop-color:#FFECDD"/>
	<stop  offset="0.5169" style="stop-color:#FFE0E1"/>
	<stop  offset="0.7729" style="stop-color:#FFCCE9"/>
	<stop  offset="1" style="stop-color:#FFB4F2"/>
</linearGradient>
<path class="st0" d="M677.88,465.1c-23.14-107.26,126.94-182.12,56.54-293.95C656.64,47.59,515.39-12.13,371.5,2.34
	c-36.28,3.65-70.55,10.94-98.92,21.75C170.82,62.85,88.15,142.94,48.64,244.28c-30.03,77-43.66,160.45-11.58,238.97
	c13.96,34.17,43.77,62.61,53.29,97.77c13.78,50.89,0.49,107.08,18.32,156.65c26.66,74.12,115.51,89.42,183.56,75.4
	c53.79-11.08,103.26-44.73,158.47-49.3c63.78-5.28,111.58,29.87,166.54,54.38c87.63,39.08,225.14,31.06,255.31-78.91
	c11.67-42.52,0.16-90.66-29.47-123.32C795.76,563.79,694.33,541.32,677.88,465.1z"/>
<g>
	<linearGradient id="SVGID_2_" gradientUnits="userSpaceOnUse" x1="97.5816" y1="512.3594" x2="11.182" y2="430.2162">
		<stop  offset="0" style="stop-color:#006838"/>
		<stop  offset="1" style="stop-color:#47E51D"/>
	</linearGradient>
	<path class="st1" d="M86.75,456.36c-17.76-6.98,1.9,26.64-1.27,22.84c-3.17-3.81-39.33-70.42-50.75-58.36
		c-11.42,12.05,8.25,31.08,5.71,29.82c-2.54-1.27-38.7-43.14-39.97-21.57c-1.27,21.57,33.62,41.87,33.62,41.87
		s-30.45-6.98-17.13,6.34c13.32,13.32,43.77,22.2,43.77,22.2s-31.72-3.17-17.76,7.61c13.96,10.78,43.77,17.13,43.77,17.13
		s-28.55,0.63-13.96,5.71c14.59,5.07,58.36,17.76,58.36,17.76S104.52,463.34,86.75,456.36z"/>
	<linearGradient id="SVGID_3_" gradientUnits="userSpaceOnUse" x1="154.4514" y1="538.1602" x2="219.5703" y2="483.2561">
		<stop  offset="0" style="stop-color:#006838"/>
		<stop  offset="1" style="stop-color:#47E51D"/>
	</linearGradient>
	<path class="st2" d="M208.56,481.74c-6.34,2.54,3.17-6.34,5.07-28.55c1.9-22.2-37.43,40.6-41.87,43.77
		c-4.44,3.17,1.27-3.17-2.54-20.93c-3.81-17.76-39.33,72.95-39.33,72.95s66.61-18.4,79.93-22.84c13.32-4.44-6.34-10.78-6.34-10.78
		s29.82,1.9,46.94-5.07c17.13-6.98-18.4-12.05-22.2-15.23c-3.81-3.17,17.76-4.44,32.35-30.45
		C275.17,438.6,214.9,479.2,208.56,481.74z"/>
	<linearGradient id="SVGID_4_" gradientUnits="userSpaceOnUse" x1="171.7459" y1="485.429" x2="219.6923" y2="346.9171">
		<stop  offset="0" style="stop-color:#006838"/>
		<stop  offset="1" style="stop-color:#47E51D"/>
	</linearGradient>
	<path class="st3" d="M211.09,430.99c-5.71,2.54,16.49-26.01,18.4-45.04c1.9-19.03-39.97,39.97-43.77,47.58
		c-3.81,7.61,3.17-13.32-2.54-32.35c-5.71-19.03-24.11,55.19-27.28,62.17c-3.17,6.98-0.63-6.98-8.88-26.64
		s-15.86,109.11-15.23,112.29c0,0,29.82-27.91,38.7-44.41c8.88-16.49-3.81-13.32-3.81-13.32s20.93-10.15,32.35-19.67
		c11.42-9.52-10.78-15.23-10.15-17.13s34.89-13.32,46.94-27.28C247.89,413.22,216.8,428.45,211.09,430.99z"/>
	<linearGradient id="SVGID_5_" gradientUnits="userSpaceOnUse" x1="119.9156" y1="491.6192" x2="85.4409" y2="403.0916">
		<stop  offset="0" style="stop-color:#006838"/>
		<stop  offset="1" style="stop-color:#47E51D"/>
	</linearGradient>
	<path class="st4" d="M122.91,479.2c0,0,6.98-22.2,8.25-38.06c1.27-15.86-14.59-5.07-14.59-5.07s3.81-29.18-1.27-50.75
		c-5.08-21.57-8.25,20.3-10.15,22.84c-1.9,2.54-5.07-10.78-22.84-31.09C64.55,356.76,95,424.01,96.9,433.52
		c1.9,9.52-3.81-5.08-24.11-11.42c-20.3-6.34,27.28,64.07,27.28,67.25c0,3.17-3.17-5.08-19.03-10.15
		c-15.86-5.07,47.58,63.44,50.12,68.51c0,0,5.07-45.04,6.98-62.8C140.04,467.15,122.91,479.2,122.91,479.2z"/>
	<linearGradient id="SVGID_6_" gradientUnits="userSpaceOnUse" x1="123.6135" y1="450.3798" x2="123.633" y2="450.0814">
		<stop  offset="0" style="stop-color:#006838"/>
		<stop  offset="1" style="stop-color:#47E51D"/>
	</linearGradient>
	<path class="st5" d="M123.46,449.83c0.03,0.06,0.07,0.15,0.09,0.19C123.89,450.7,123.89,450.49,123.46,449.83z"/>
	<linearGradient id="SVGID_7_" gradientUnits="userSpaceOnUse" x1="131.0126" y1="530.6507" x2="138.2479" y2="420.4168">
		<stop  offset="0" style="stop-color:#006838"/>
		<stop  offset="1" style="stop-color:#47E51D"/>
	</linearGradient>
	<path class="st6" d="M147.65,370.08c0,0-1.9-25.38-15.22-37.43c-13.32-12.05-4.44,63.44-5.08,67.25
		c-0.63,3.81-3.17-8.88-17.76-13.96c-14.39-5,11.92,59.66,13.87,63.89c0.43,0.66,0.43,0.87,0.09,0.19
		c-0.02-0.03-0.06-0.13-0.09-0.19c-1.16-1.79-5.59-6.96-15.77-7.43c-13.96-0.63,22.84,104.04,22.84,105.94
		c0,0,24.74-27.91,27.28-40.6c2.54-12.69-14.59-4.44-14.59-4.44s13.32-12.05,22.84-38.06c9.52-26.01-19.67-6.98-20.3-8.88
		c-0.63-1.9,21.57-17.13,27.28-48.85c4.36-24.23-12.37-12.55-20.52-5.69c-2.54,2.48-4.22,3.79-4.22,3.79s1.71-1.67,4.22-3.79
		c7.26-7.09,21.67-23.96,24.96-48.87C181.91,319.33,147.65,370.08,147.65,370.08z"/>
	<linearGradient id="SVGID_8_" gradientUnits="userSpaceOnUse" x1="150.2892" y1="405.4092" x2="150.4247" y2="403.3445">
		<stop  offset="0" style="stop-color:#006838"/>
		<stop  offset="1" style="stop-color:#47E51D"/>
	</linearGradient>
	<path class="st7" d="M152.51,401.82c-2.52,2.12-4.22,3.79-4.22,3.79S149.97,404.3,152.51,401.82z"/>
	<g>
		<linearGradient id="SVGID_9_" gradientUnits="userSpaceOnUse" x1="77.9058" y1="619.9155" x2="191.3778" y2="619.9155">
			<stop  offset="0" style="stop-color:#700D2A"/>
			<stop  offset="0.5645" style="stop-color:#DD4536"/>
			<stop  offset="1" style="stop-color:#F7A458"/>
		</linearGradient>
		<polygon class="st8" points="96.21,681.23 173.08,681.23 191.38,558.6 77.91,558.6 		"/>
		<linearGradient id="SVGID_10_" gradientUnits="userSpaceOnUse" x1="63.2641" y1="550.8079" x2="206.0195" y2="550.8079">
			<stop  offset="0" style="stop-color:#700D2A"/>
			<stop  offset="0.5645" style="stop-color:#DD4536"/>
			<stop  offset="1" style="stop-color:#F7A458"/>
		</linearGradient>
		<path class="st9" d="M201.11,538H68.17c-2.71,0-4.91,2.2-4.91,4.91v15.81c0,2.71,2.2,4.91,4.91,4.91h132.94
			c2.71,0,4.91-2.2,4.91-4.91V542.9C206.02,540.19,203.82,538,201.11,538z"/>
	</g>
</g>
<g>
	<g>
		<g>
			<g>
				<path class="st10" d="M918.82,242.38l-39.76-12.48c-3.63-1.14-7.5,0.87-8.66,4.49l-83.52,260.44c-1.16,3.62,0.81,7.49,4.42,8.68
					l41.19,13.62c3.67,1.21,7.62-0.81,8.77-4.5l82.08-261.58C924.49,247.41,922.47,243.53,918.82,242.38z"/>
				<path class="st11" d="M870.41,234.39l-83.52,260.44c-1.16,3.62,0.81,7.49,4.42,8.68l22.05,7.29l87.85-273.95l-22.14-6.95
					C875.43,228.77,871.57,230.77,870.41,234.39z"/>
				<g>
					<g>
						<path class="st12" d="M887.48,260.4l-17.24-5.53c-0.61-0.2-1.27,0.14-1.47,0.76c-0.2,0.61,0.14,1.27,0.76,1.47l17.24,5.53
							c0.61,0.2,1.27-0.14,1.47-0.76C888.43,261.26,888.09,260.6,887.48,260.4z"/>
						<path class="st12" d="M877.75,263.45l-9.3-2.98c-0.61-0.2-1.27,0.14-1.47,0.76c-0.2,0.61,0.14,1.27,0.76,1.47l9.3,2.98
							c0.61,0.2,1.27-0.14,1.47-0.76S878.36,263.65,877.75,263.45z"/>
						<path class="st12" d="M875.95,269.04l-9.3-2.98c-0.61-0.2-1.27,0.14-1.47,0.76c-0.2,0.61,0.14,1.27,0.76,1.47l9.3,2.98
							c0.61,0.2,1.27-0.14,1.47-0.76C876.91,269.89,876.57,269.24,875.95,269.04z"/>
						<path class="st12" d="M874.05,274.96l-9.3-2.98c-0.61-0.2-1.27,0.14-1.47,0.76c-0.2,0.61,0.14,1.27,0.76,1.47l9.3,2.98
							c0.61,0.2,1.27-0.14,1.47-0.76C875.01,275.82,874.67,275.16,874.05,274.96z"/>
						<path class="st12" d="M872.37,280.22l-9.3-2.98c-0.61-0.2-1.27,0.14-1.47,0.76c-0.2,0.61,0.14,1.27,0.76,1.47l9.3,2.98
							c0.61,0.2,1.27-0.14,1.47-0.76C873.32,281.07,872.98,280.41,872.37,280.22z"/>
					</g>
					<g>
						<path class="st12" d="M878.44,288.6l-17.24-5.53c-0.61-0.2-1.27,0.14-1.47,0.76c-0.2,0.61,0.14,1.27,0.76,1.47l17.24,5.53
							c0.61,0.2,1.27-0.14,1.47-0.76C879.39,289.45,879.05,288.79,878.44,288.6z"/>
						<path class="st12" d="M868.71,291.64l-9.3-2.98c-0.61-0.2-1.27,0.14-1.47,0.76c-0.2,0.61,0.14,1.27,0.76,1.47l9.3,2.98
							c0.61,0.2,1.27-0.14,1.47-0.76C869.66,292.5,869.32,291.84,868.71,291.64z"/>
						<path class="st12" d="M866.91,297.23l-9.3-2.98c-0.61-0.2-1.27,0.14-1.47,0.76c-0.2,0.61,0.14,1.27,0.76,1.47l9.3,2.98
							c0.61,0.2,1.27-0.14,1.47-0.76C867.87,298.09,867.53,297.43,866.91,297.23z"/>
						<path class="st12" d="M865.01,303.16l-9.3-2.98c-0.61-0.2-1.27,0.14-1.47,0.76c-0.2,0.61,0.14,1.27,0.76,1.47l9.3,2.98
							c0.61,0.2,1.27-0.14,1.47-0.76C865.97,304.01,865.63,303.35,865.01,303.16z"/>
						<path class="st12" d="M863.33,308.41l-9.3-2.98c-0.61-0.2-1.27,0.14-1.47,0.76c-0.2,0.61,0.14,1.27,0.76,1.47l9.3,2.98
							c0.61,0.2,1.27-0.14,1.47-0.76C864.28,309.27,863.94,308.61,863.33,308.41z"/>
					</g>
					<g>
						<path class="st12" d="M869.4,316.79l-17.24-5.53c-0.61-0.2-1.27,0.14-1.47,0.76c-0.2,0.61,0.14,1.27,0.76,1.47l17.24,5.53
							c0.61,0.2,1.27-0.14,1.47-0.76C870.35,317.64,870.01,316.99,869.4,316.79z"/>
						<path class="st12" d="M859.66,319.83l-9.3-2.98c-0.61-0.2-1.27,0.14-1.47,0.76c-0.2,0.61,0.14,1.27,0.76,1.47l9.3,2.98
							c0.61,0.2,1.27-0.14,1.47-0.76C860.62,320.69,860.28,320.03,859.66,319.83z"/>
						<path class="st12" d="M857.87,325.42l-9.3-2.98c-0.61-0.2-1.27,0.14-1.47,0.76c-0.2,0.61,0.14,1.27,0.76,1.47l9.3,2.98
							c0.61,0.2,1.27-0.14,1.47-0.76C858.83,326.28,858.49,325.62,857.87,325.42z"/>
						<path class="st12" d="M855.97,331.35l-9.3-2.98c-0.61-0.2-1.27,0.14-1.47,0.76c-0.2,0.61,0.14,1.27,0.76,1.47l9.3,2.98
							c0.61,0.2,1.27-0.14,1.47-0.76C856.92,332.2,856.59,331.55,855.97,331.35z"/>
						<path class="st12" d="M854.29,336.6l-9.3-2.98c-0.61-0.2-1.27,0.14-1.47,0.76c-0.2,0.61,0.14,1.27,0.76,1.47l9.3,2.98
							c0.61,0.2,1.27-0.14,1.47-0.76C855.24,337.46,854.9,336.8,854.29,336.6z"/>
					</g>
					<g>
						<path class="st12" d="M860.35,344.98l-17.24-5.53c-0.61-0.2-1.27,0.14-1.47,0.76c-0.2,0.61,0.14,1.27,0.76,1.47l17.24,5.53
							c0.61,0.2,1.27-0.14,1.47-0.76C861.31,345.84,860.97,345.18,860.35,344.98z"/>
						<path class="st12" d="M850.62,348.03l-9.3-2.98c-0.61-0.2-1.27,0.14-1.47,0.76c-0.2,0.61,0.14,1.27,0.76,1.47l9.3,2.98
							c0.61,0.2,1.27-0.14,1.47-0.76C851.58,348.88,851.24,348.22,850.62,348.03z"/>
						<path class="st12" d="M848.83,353.62l-9.3-2.98c-0.61-0.2-1.27,0.14-1.47,0.76c-0.2,0.61,0.14,1.27,0.76,1.47l9.3,2.98
							c0.61,0.2,1.27-0.14,1.47-0.76C849.78,354.47,849.45,353.81,848.83,353.62z"/>
						<path class="st12" d="M846.93,359.54l-9.3-2.98c-0.61-0.2-1.27,0.14-1.47,0.76c-0.2,0.61,0.14,1.27,0.76,1.47l9.3,2.98
							c0.61,0.2,1.27-0.14,1.47-0.76C847.88,360.4,847.55,359.74,846.93,359.54z"/>
						<path class="st12" d="M845.25,364.8l-9.3-2.98c-0.61-0.2-1.27,0.14-1.47,0.76c-0.2,0.61,0.14,1.27,0.76,1.47l9.3,2.98
							c0.61,0.2,1.27-0.14,1.47-0.76C846.2,365.65,845.86,364.99,845.25,364.8z"/>
					</g>
					<g>
						<path class="st12" d="M851.31,373.17l-17.24-5.53c-0.61-0.2-1.27,0.14-1.47,0.76c-0.2,0.61,0.14,1.27,0.76,1.47l17.24,5.53
							c0.61,0.2,1.27-0.14,1.47-0.76C852.27,374.03,851.93,373.37,851.31,373.17z"/>
						<path class="st12" d="M841.58,376.22l-9.3-2.98c-0.61-0.2-1.27,0.14-1.47,0.76c-0.2,0.61,0.14,1.27,0.76,1.47l9.3,2.98
							c0.61,0.2,1.27-0.14,1.47-0.76C842.54,377.07,842.2,376.42,841.58,376.22z"/>
						<path class="st12" d="M839.79,381.81l-9.3-2.98c-0.61-0.2-1.27,0.14-1.47,0.76c-0.2,0.61,0.14,1.27,0.76,1.47l9.3,2.98
							c0.61,0.2,1.27-0.14,1.47-0.76C840.74,382.66,840.41,382,839.79,381.81z"/>
						<path class="st12" d="M837.89,387.73l-9.3-2.98c-0.61-0.2-1.27,0.14-1.47,0.76c-0.2,0.61,0.14,1.27,0.76,1.47l9.3,2.98
							c0.61,0.2,1.27-0.14,1.47-0.76C838.84,388.59,838.51,387.93,837.89,387.73z"/>
						<path class="st12" d="M836.21,392.99l-9.3-2.98c-0.61-0.2-1.27,0.14-1.47,0.76c-0.2,0.61,0.14,1.27,0.76,1.47l9.3,2.98
							c0.61,0.2,1.27-0.14,1.47-0.76C837.16,393.84,836.82,393.18,836.21,392.99z"/>
					</g>
					<g>
						<path class="st12" d="M842.27,401.37l-17.24-5.53c-0.61-0.2-1.27,0.14-1.47,0.76c-0.2,0.61,0.14,1.27,0.76,1.47l17.24,5.53
							c0.61,0.2,1.27-0.14,1.47-0.76C843.23,402.22,842.89,401.56,842.27,401.37z"/>
						<path class="st12" d="M832.54,404.41l-9.3-2.98c-0.61-0.2-1.27,0.14-1.47,0.76c-0.2,0.61,0.14,1.27,0.76,1.47l9.3,2.98
							c0.61,0.2,1.27-0.14,1.47-0.76C833.5,405.27,833.16,404.61,832.54,404.41z"/>
						<path class="st12" d="M830.75,410l-9.3-2.98c-0.61-0.2-1.27,0.14-1.47,0.76c-0.2,0.61,0.14,1.27,0.76,1.47l9.3,2.98
							c0.61,0.2,1.27-0.14,1.47-0.76C831.7,410.86,831.36,410.2,830.75,410z"/>
						<path class="st12" d="M828.85,415.93l-9.3-2.98c-0.61-0.2-1.27,0.14-1.47,0.76c-0.2,0.61,0.14,1.27,0.76,1.47l9.3,2.98
							c0.61,0.2,1.27-0.14,1.47-0.76C829.8,416.78,829.46,416.12,828.85,415.93z"/>
						<path class="st12" d="M827.17,421.18l-9.3-2.98c-0.61-0.2-1.27,0.14-1.47,0.76c-0.2,0.61,0.14,1.27,0.76,1.47l9.3,2.98
							c0.61,0.2,1.27-0.14,1.47-0.76C828.12,422.03,827.78,421.38,827.17,421.18z"/>
					</g>
					<g>
						<path class="st12" d="M833.23,429.56l-17.24-5.53c-0.61-0.2-1.27,0.14-1.47,0.76c-0.2,0.61,0.14,1.27,0.76,1.47l17.24,5.53
							c0.61,0.2,1.27-0.14,1.47-0.76C834.18,430.41,833.85,429.76,833.23,429.56z"/>
						<path class="st12" d="M823.5,432.6l-9.3-2.98c-0.61-0.2-1.27,0.14-1.47,0.76c-0.2,0.61,0.14,1.27,0.76,1.47l9.3,2.98
							c0.61,0.2,1.27-0.14,1.47-0.76C824.45,433.46,824.12,432.8,823.5,432.6z"/>
						<path class="st12" d="M821.71,438.19l-9.3-2.98c-0.61-0.2-1.27,0.14-1.47,0.76c-0.2,0.61,0.14,1.27,0.76,1.47l9.3,2.98
							c0.61,0.2,1.27-0.14,1.47-0.76C822.66,439.05,822.32,438.39,821.71,438.19z"/>
						<path class="st12" d="M819.81,444.12l-9.3-2.98c-0.61-0.2-1.27,0.14-1.47,0.76c-0.2,0.61,0.14,1.27,0.76,1.47l9.3,2.98
							c0.61,0.2,1.27-0.14,1.47-0.76C820.76,444.97,820.42,444.31,819.81,444.12z"/>
						<path class="st12" d="M818.12,449.37l-9.3-2.98c-0.61-0.2-1.27,0.14-1.47,0.76c-0.2,0.61,0.14,1.27,0.76,1.47l9.3,2.98
							c0.61,0.2,1.27-0.14,1.47-0.76C819.08,450.23,818.74,449.57,818.12,449.37z"/>
					</g>
					<g>
						<path class="st12" d="M824.19,457.75l-17.24-5.53c-0.61-0.2-1.27,0.14-1.47,0.76c-0.2,0.61,0.14,1.27,0.76,1.47l17.24,5.53
							c0.61,0.2,1.27-0.14,1.47-0.76C825.14,458.61,824.81,457.95,824.19,457.75z"/>
						<path class="st12" d="M814.46,460.8l-9.3-2.98c-0.61-0.2-1.27,0.14-1.47,0.76c-0.2,0.61,0.14,1.27,0.76,1.47l9.3,2.98
							c0.61,0.2,1.27-0.14,1.47-0.76C815.41,461.65,815.08,460.99,814.46,460.8z"/>
						<path class="st12" d="M812.67,466.39l-9.3-2.98c-0.61-0.2-1.27,0.14-1.47,0.76c-0.2,0.61,0.14,1.27,0.76,1.47l9.3,2.98
							c0.61,0.2,1.27-0.14,1.47-0.76C813.62,467.24,813.28,466.58,812.67,466.39z"/>
						<path class="st12" d="M810.77,472.31l-9.3-2.98c-0.61-0.2-1.27,0.14-1.47,0.76s0.14,1.27,0.76,1.47l9.3,2.98
							c0.61,0.2,1.27-0.14,1.47-0.76C811.72,473.16,811.38,472.51,810.77,472.31z"/>
						<path class="st12" d="M809.08,477.56l-9.3-2.98c-0.61-0.2-1.27,0.14-1.47,0.76c-0.2,0.61,0.14,1.27,0.76,1.47l9.3,2.98
							c0.61,0.2,1.27-0.14,1.47-0.76C810.04,478.42,809.7,477.76,809.08,477.56z"/>
					</g>
				</g>
			</g>
			<g>
				<path class="st13" d="M899.03,297.39l-8.64-0.85c-2.63-0.26-4.96,1.66-5.22,4.29l-2.34,23.77l18.15,1.79l2.35-23.77
					C903.58,299.99,901.66,297.65,899.03,297.39z"/>
				<polygon class="st14" points="871.6,531.23 890.19,487.5 861.92,484.71 				"/>
				<polygon class="st15" points="873.16,527.57 890.19,487.5 877.24,486.22 				"/>
				<polygon class="st16" points="875.06,523.09 890.19,487.5 878.69,486.36 				"/>
				<path class="st17" d="M901.68,322.35l-18.75-1.85c-2.75-0.27-5.2,1.74-5.47,4.49l-15.61,158.23c-0.27,2.75,1.74,5.2,4.49,5.47
					l18.75,1.85c2.75,0.27,5.2-1.74,5.47-4.49l15.61-158.23C906.44,325.07,904.43,322.62,901.68,322.35z"/>
				<path class="st18" d="M877.45,324.99l-15.61,158.23c-0.27,2.75,1.74,5.2,4.49,5.47l9.01,0.89l16.59-168.2l-9.01-0.89
					C880.17,320.23,877.72,322.24,877.45,324.99z"/>
				<path class="st13" d="M914.9,337.26l-39.22-3.87c-0.82-0.08-1.55,0.52-1.63,1.34l-1.44,14.61c-0.08,0.82,0.52,1.55,1.34,1.63
					l33.74,3.33c0.82,0.08,1.42,0.81,1.34,1.63l-2.96,29.96c-0.08,0.82-0.81,1.42-1.63,1.34l-0.8-0.08
					c-1.06-0.1-1.88,0.89-1.58,1.91l4.76,16.09c0.17,0.58,0.68,1,1.29,1.06c0.82,0.08,1.55-0.52,1.63-1.34l4.92-49.89l1.59-16.09
					C916.32,338.08,915.72,337.34,914.9,337.26z"/>
				<polygon class="st19" points="871.6,531.23 875.04,523.16 869.82,522.64 				"/>
				<path class="st19" d="M891.09,480.12l-28.59-2.82c-0.88-0.09-1.67,0.56-1.75,1.44l-0.78,8.32c-0.08,0.88,0.56,1.66,1.44,1.74
					l28.59,2.82c0.88,0.09,1.67-0.56,1.75-1.44l0.78-8.32C892.61,480.99,891.97,480.21,891.09,480.12z"/>
			</g>
			<g>
				<path class="st20" d="M825.23,362.96l-30.73,8.08l34.29,131.11c0.44,1.68,1.27,3.24,2.41,4.56l20.47,23.5
					c0.54,0.62,1.56,0.35,1.73-0.45l6.26-30.53c0.35-1.71,0.3-3.47-0.14-5.15L825.23,362.96z"/>
				<path class="st21" d="M851.67,530.21c0.54,0.62,1.56,0.35,1.73-0.45l2.38-11.58l-11.87,3.12L851.67,530.21z"/>
				<path class="st12" d="M814.98,365.65l-10.24,2.69l34.37,131.42c0.74,2.83,3.64,4.52,6.47,3.78c2.83-0.74,4.52-3.64,3.78-6.47
					L814.98,365.65z"/>
				<g>
					<path class="st22" d="M825.23,362.96l-10.24,2.69l34.37,131.42c0.74,2.83,3.64,4.52,6.47,3.78c2.83-0.74,4.52-3.64,3.78-6.47
						L825.23,362.96z"/>
					<path class="st22" d="M804.74,368.35l-10.24,2.69l34.37,131.41c0.74,2.83,3.64,4.52,6.47,3.78c2.83-0.74,4.52-3.64,3.78-6.47
						L804.74,368.35z"/>
				</g>
				<path class="st23" d="M803.86,323.34l-10.24,2.69c-5.66,1.49-9.04,7.28-7.55,12.94l7.22,27.48l30.73-8.08l-7.22-27.48
					C815.31,325.23,809.51,321.85,803.86,323.34z"/>
				
					<rect x="792.88" y="356.13" transform="matrix(0.9671 -0.2543 0.2543 0.9671 -65.6865 217.5766)" class="st21" width="31.78" height="13.48"/>
			</g>
		</g>
		<linearGradient id="SVGID_11_" gradientUnits="userSpaceOnUse" x1="756.7374" y1="560.7972" x2="923.7396" y2="560.7972">
			<stop  offset="0" style="stop-color:#700D2A"/>
			<stop  offset="0.5645" style="stop-color:#DD4536"/>
			<stop  offset="1" style="stop-color:#F7A458"/>
		</linearGradient>
		<path class="st24" d="M756.74,663.1c0,9.95,8.07,18.01,18.01,18.01h130.97c9.95,0,18.01-8.07,18.01-18.01V440.48h-167V663.1z"/>
		<path class="st25" d="M841.68,681.11h64.04c9.95,0,18.01-8.07,18.01-18.01V440.48h-82.06V681.11z"/>
		<path class="st25" d="M890.48,681.11h15.24c9.95,0,18.01-8.07,18.01-18.01V440.48h-33.26V681.11z"/>
	</g>
	<path class="st12" d="M923.72,436.36H756.61c-1.7,0-3.07,1.38-3.07,3.07v12.13c0,1.7,1.38,3.07,3.07,3.07h167.12
		c1.7,0,3.07-1.38,3.07-3.07v-12.13C926.8,437.73,925.42,436.36,923.72,436.36z"/>
</g>
<g>
	<polygon class="st26" points="405.14,515.43 373.92,663.79 622.77,663.79 591.55,515.43 	"/>
	<linearGradient id="SVGID_12_" gradientUnits="userSpaceOnUse" x1="498.344" y1="114.2684" x2="498.344" y2="536.681">
		<stop  offset="0" style="stop-color:#27AAE1"/>
		<stop  offset="1" style="stop-color:#0D1B5A"/>
	</linearGradient>
	<path class="st27" d="M772.18,101.47H224.51c-13.51,0-24.47,10.96-24.47,24.47v405.51c0,13.51,10.96,24.47,24.47,24.47h547.67
		c13.51,0,24.47-10.96,24.47-24.47V125.94C796.65,112.43,785.7,101.47,772.18,101.47z"/>
	<path class="st12" d="M200.04,531.45c0,13.51,10.96,24.47,24.47,24.47h547.67c13.51,0,24.47-10.96,24.47-24.47v-43.11H200.04
		V531.45z"/>
	<linearGradient id="SVGID_13_" gradientUnits="userSpaceOnUse" x1="214.02" y1="299.5662" x2="782.6682" y2="299.5662">
		<stop  offset="0" style="stop-color:#E4F2FF"/>
		<stop  offset="1" style="stop-color:#91D0C5"/>
	</linearGradient>
	<rect x="214.02" y="134.1" class="st28" width="568.65" height="330.93"/>
	<polygon class="st29" points="782.67,465.03 782.67,134.1 214.02,134.1 	"/>
	<path class="st12" d="M651.77,646.25H344.92c-10.74,0-19.45,8.71-19.45,19.45c0,10.74,8.71,19.45,19.45,19.45h306.84
		c10.74,0,19.45-8.71,19.45-19.45C671.21,654.96,662.5,646.25,651.77,646.25z"/>
</g>
<g>
	<g>
		<linearGradient id="SVGID_14_" gradientUnits="userSpaceOnUse" x1="268.8641" y1="364.8823" x2="268.8641" y2="685.9714">
			<stop  offset="0" style="stop-color:#27AAE1"/>
			<stop  offset="1" style="stop-color:#0D1B5A"/>
		</linearGradient>
		<path class="st30" d="M341.43,356.12H196.3c-8.25,0-14.94,6.69-14.94,14.94v299.36c0,8.25,6.69,14.94,14.94,14.94h145.14
			c8.25,0,14.94-6.69,14.94-14.94V371.07C356.38,362.81,349.69,356.12,341.43,356.12z"/>
		<linearGradient id="SVGID_15_" gradientUnits="userSpaceOnUse" x1="190.4435" y1="511.1978" x2="347.2851" y2="511.1978">
			<stop  offset="0" style="stop-color:#E4F2FF"/>
			<stop  offset="1" style="stop-color:#91D0C5"/>
		</linearGradient>
		<rect x="190.44" y="375.95" class="st31" width="156.84" height="270.49"/>
		<polygon class="st29" points="347.29,646.44 347.29,375.95 190.44,375.95 		"/>
	</g>
	<circle class="st12" cx="268.86" cy="520.75" r="72.24"/>
	<g>
		<path class="st32" d="M231.91,481.82l0.12,80.19l59.17-0.57l14.61-9.11V469.8h-61.9C237.28,469.8,231.9,475.19,231.91,481.82z"/>
		<path class="st33" d="M231.91,481.82l0.12,80.19l12.45-0.12V469.8h-0.57C237.28,469.8,231.9,475.19,231.91,481.82z"/>
		<path class="st34" d="M232.03,562.01c0,5.35,4.34,9.69,9.69,9.69h64.1v-1.28c-4.27-0.42-7.62-4.03-7.62-8.41
			c0-4.38,3.35-7.99,7.62-8.41v-1.28h-64.1C236.37,552.32,232.03,556.66,232.03,562.01z"/>
		<path class="st35" d="M233.27,562.01c0,4.66,3.79,8.45,8.45,8.45h64.1v-0.04c-4.27-0.42-7.62-4.03-7.62-8.41
			c0-4.38,3.35-7.99,7.62-8.41v-0.04h-64.1C237.06,553.55,233.27,557.35,233.27,562.01z"/>
	</g>
</g>
<g>
	<g>
		<path class="st10" d="M355.02,657.56c0,11,8.92,19.92,19.92,19.92h131.84v-2.63c-8.79-0.86-15.68-8.29-15.68-17.3
			c0-9.01,6.89-16.44,15.68-17.3v-2.63H374.94C363.94,637.64,355.02,646.56,355.02,657.56z"/>
		<path class="st35" d="M357.56,657.56c0,9.58,7.8,17.38,17.38,17.38h131.84v-0.09c-8.79-0.86-15.68-8.29-15.68-17.3
			c0-9.01,6.89-16.44,15.68-17.3v-0.09H374.94C365.36,640.18,357.56,647.98,357.56,657.56z"/>
	</g>
	<g>
		<path class="st36" d="M365.66,618.18c0,11,8.92,19.92,19.92,19.92h131.84v-2.63c-8.79-0.86-15.68-8.29-15.68-17.3
			c0-9.01,6.89-16.44,15.68-17.3v-2.63H385.58C374.58,598.26,365.66,607.18,365.66,618.18z"/>
		<path class="st35" d="M368.2,618.18c0,9.59,7.8,17.38,17.38,17.38h131.84v-0.09c-8.79-0.86-15.68-8.29-15.68-17.3
			c0-9.01,6.89-16.44,15.68-17.3v-0.09H385.58C376,600.8,368.2,608.6,368.2,618.18z"/>
	</g>
	<g>
		<path class="st37" d="M382.39,578.8L382.39,578.8c0,11,8.92,19.92,19.92,19.92h131.84v-2.63c-8.79-0.86-15.68-8.29-15.68-17.3
			c0-9.01,6.89-16.44,15.68-17.3v-2.63H402.31C391.31,558.88,382.39,567.8,382.39,578.8z"/>
		<path class="st35" d="M384.93,578.8c0,9.58,7.8,17.38,17.38,17.38h131.84v-0.09c-8.79-0.86-15.68-8.29-15.68-17.3
			c0-9.01,6.89-16.44,15.68-17.3v-0.09H402.31C392.73,561.42,384.93,569.22,384.93,578.8z"/>
	</g>
	<g>
		<g>
			<path class="st38" d="M364.65,539.42c0,11,8.92,19.92,19.92,19.92h131.84v-2.63c-8.79-0.86-15.68-8.29-15.68-17.3
				c0-9.01,6.89-16.44,15.68-17.3v-2.63H384.57C373.57,519.5,364.65,528.42,364.65,539.42z"/>
		</g>
		<path class="st35" d="M367.19,539.42c0,9.58,7.8,17.38,17.38,17.38h131.84v-0.09c-8.79-0.86-15.68-8.29-15.68-17.3
			c0-9.01,6.89-16.44,15.68-17.3v-0.09H384.57C374.99,522.04,367.19,529.84,367.19,539.42z"/>
	</g>
</g>
<g class="st39">
	<path class="st40" d="M638.08,342.13c-1.29,3.58-6.47,22.76,1.1,24.71c7.57,1.95,11.08,2.19,21.68-3.34s24.58-75.9,24.58-75.9
		s-15.25,2.04-24.9,10.55C650.89,306.66,639.37,338.55,638.08,342.13z"/>
	<g class="st41">
		<path class="st42" d="M692.7,678.05c0.25-4.52-2.4-16.54-2.4-16.54l-16.67-0.03c0,0-27.41,11.29-32.42,12.93
			c-5.02,1.64-5.81,6.13-6.14,8.81c-0.34,2.67,20.17,5.37,24.07,4.6c3.9-0.77,8.84-3.99,9.78-3.79c0.94,0.21,1.98,2.79,1.98,2.79
			s19.92,0.09,21.28-0.52C693.53,685.68,692.45,682.57,692.7,678.05z"/>
		<path class="st42" d="M737.44,682.67c0.25-4.52-2.4-16.54-2.4-16.54l-16.67-0.03c0,0-27.41,11.29-32.42,12.93
			c-5.02,1.64-5.81,6.13-6.14,8.81c-0.34,2.67,20.17,5.37,24.07,4.6c3.9-0.77,8.84-3.99,9.78-3.79c0.94,0.21,1.98,2.79,1.98,2.79
			s19.92,0.09,21.28-0.52C738.26,690.3,737.19,687.19,737.44,682.67z"/>
		<linearGradient id="SVGID_16_" gradientUnits="userSpaceOnUse" x1="644.6523" y1="545.8094" x2="736.5158" y2="545.8094">
			<stop  offset="0" style="stop-color:#23538C"/>
			<stop  offset="1" style="stop-color:#230482"/>
		</linearGradient>
		<path class="st43" d="M728.12,540.48c0.73-15.34,6.39-102.3,5.28-112.83c-1.11-10.53-74.22-4.71-74.22-4.71
			s-12.7,99.42-14.43,124.54c-1.73,25.12,19.84,116.98,21.96,117.73c2.12,0.75,25.22-0.21,25.33-2.67
			c0.12-2.45-17.43-99.21-15.86-109.57c1.57-10.36,16.22-88.22,16.22-88.22s4.49,80.06,4.23,85.59
			c-0.26,5.52,9.73,118.86,12.38,119.64c2.65,0.78,26.86,0.11,27.48-1.7S727.39,555.82,728.12,540.48z"/>
		<path class="st44" d="M691.66,468.66c0.2-1.72,0.44-3.07,0.74-3.92c0,0-10.55,3.32-12.73,14.31
			c-2.18,10.99-7.42,58.43-10.91,65.43c-3.49,6.99-14.4,9.49-11.79,13.49c2.62,4,7.42,1.5,10.91,15.98
			c3.49,14.48,14.84,68.42,13.09,76.91c-1.03,4.99-5.8,10.31-8.34,14.57c7.51-0.15,19.32-1.13,19.4-2.89
			c0.12-2.45-17.43-99.21-15.86-109.57C677.54,544,688.68,484.54,691.66,468.66z"/>
		<path class="st25" d="M728.12,540.48c0.73-15.34,6.39-102.3,5.28-112.83c-1.11-10.53-74.22-4.71-74.22-4.71s-1.11,8.67-2.71,21.5
			c5.54,4.41,12.85,8.65,20.58,8.65c16.15,0,37.54-5.99,40.59,10.49c3.06,16.48-4.8,71.42-2.18,94.39
			c2.62,22.97,11.35,88.4,10.48,99.39c-0.59,7.43-8.55,9.84-10.41,12.94c8.06-0.02,20.51-0.73,20.96-2.02
			C737.11,666.46,727.39,555.82,728.12,540.48z"/>
	</g>
	<linearGradient id="SVGID_17_" gradientUnits="userSpaceOnUse" x1="655.9803" y1="362.7044" x2="741.288" y2="362.7044">
		<stop  offset="0" style="stop-color:#E4F2FF"/>
		<stop  offset="1" style="stop-color:#91D0C5"/>
	</linearGradient>
	<path class="st45" d="M712.51,285.54c-11.38-2.7-22.57,0.17-31.17,3.93c-9.39,4.1-15.93,12.86-17.2,23.03
		c-0.71,5.71-1.76,13.16-3.29,22.27c-3.94,23.51-4.87,94.92-4.87,94.92s-0.33,7,30.9,10.46c31.24,3.46,50.83-5.54,50.83-5.54
		s-0.64-53.73,2.51-83.13C744.42,312.23,736.42,291.22,712.51,285.54z"/>
	<path class="st46" d="M705.2,285.55c-7.01-0.75-13.29,0.64-18.7,3.17c0,0-6.35,3.38-6.87,7.79c-0.52,4.41,3.06,7.56,9.84,7.73
		c6.77,0.17,11.37,0.48,16.53-2.83c5.16-3.31,8.71-10.1,8.19-12.05C713.68,287.4,712.21,286.3,705.2,285.55z"/>
	<path class="st47" d="M656.25,311.34c-4.45-0.05-8.91,2.37-10.11,6.73c-1.21,4.36-4.73,13.8-4.73,13.8s10.27,3.63,10.92,3.43
		c0.65-0.21,2.03-7.04,2.29-8.05c0.27-1,1.25-1.07,4.47-2.26c3.22-1.19,2.85-4.46,2.85-4.46s3.57,1.75,5.49,0.81
		C669.34,320.4,660.7,311.39,656.25,311.34z"/>
	<linearGradient id="SVGID_18_" gradientUnits="userSpaceOnUse" x1="632.1262" y1="348.1422" x2="655.6807" y2="348.1422">
		<stop  offset="0" style="stop-color:#23538C"/>
		<stop  offset="1" style="stop-color:#230482"/>
	</linearGradient>
	<path class="st48" d="M642.18,328.36c0,0-7.1,7.29-9.56,19.69c-2.46,12.4,4.66,22.4,13.82,19.3c9.17-3.1,10.18-32.7,8.66-34.04
		C653.57,331.96,642.18,328.36,642.18,328.36z"/>
	<path class="st49" d="M665.99,310.12c-0.31-1.42-1.71-2.32-3.13-2.01l-12.15,2.65c-1.42,0.31-2.32,1.71-2.01,3.13l5.67,26.01
		c0.31,1.42,1.71,2.32,3.13,2.01l12.15-2.65c1.42-0.31,2.32-1.71,2.01-3.13L665.99,310.12z"/>
	<path class="st47" d="M675.26,334.4c-2.38-4.41-3.36-14.35-5.44-13.87c-2.08,0.48,0.08,9.65-0.93,10.24
		c-1.02,0.59-6.21-1.01-9.89-3.76c-3.68-2.75-7.53-8.12-7.9-5.64c-0.32,2.16,3.21,6.59,4.14,7.7c0.13,0.16,0.22,0.27,0.22,0.27
		s-0.09-0.1-0.22-0.27c-0.78-0.92-3.5-3.95-4.15-2.26c-0.75,1.98,3.39,6.45,3.39,6.45s-4.08-3.43-3.96-1.51
		c0.12,1.92,3.17,5.77,3.17,5.77s-2.43-2.3-2.32-0.56c0.11,1.75,1.88,4.79,7.47,7.07c5.58,2.28,11.27,0.69,14.73,2.58
		c3.45,1.89,6.23,4.17,6.74,3.96c0.51-0.21,4-8.85,4-8.85S677.64,338.82,675.26,334.4z"/>
	<path class="st47" d="M655.23,329.07c0.14,0.17,0.22,0.27,0.22,0.27S655.37,329.23,655.23,329.07z"/>
	<linearGradient id="SVGID_19_" gradientUnits="userSpaceOnUse" x1="674.9443" y1="331.4684" x2="744.6697" y2="331.4684">
		<stop  offset="0" style="stop-color:#23538C"/>
		<stop  offset="1" style="stop-color:#230482"/>
	</linearGradient>
	<path class="st50" d="M711.76,285.33c-5.95,2.67,2.92,11.55,6.41,29.32c2.7,13.75,7.48,33.59,0.66,34.78
		c-6.81,1.2-36.52-11.8-36.52-11.8l-7.36,13.8c0,0,47.79,29.51,57.51,25.84c9.72-3.68,14.47-47.53,11.18-65.38
		C739.15,287.58,711.76,285.33,711.76,285.33z"/>
	<path class="st51" d="M711.76,285.33c-1.01,0.45-1.56,1.1-1.82,1.92c7.09,2.75,19.98,8.65,23.15,16.18
		c4.43,10.52,4.43,34.32,3.32,48.72c-1.11,14.39-7.75,16.05-22.7,11.63c-11.77-3.49-29.85-12.1-37.02-15.61l-1.75,3.28
		c0,0,47.79,29.51,57.51,25.84c9.72-3.67,14.47-47.53,11.18-65.38C739.15,287.58,711.76,285.33,711.76,285.33z"/>
	<path class="st52" d="M701.27,267.86l-9.92,10.02c0,0,1.23,6.32-1.05,9.8c-2.28,3.48-10.16,6.48-7.96,10.52
		c2.2,4.03,16.75,5.34,22.05,1.11c5.3-4.23,10.39-8.44,7.93-11.07C705.41,280.84,701.27,267.86,701.27,267.86z"/>
	<path class="st53" d="M703.72,268.05l-12.36,9.83c0,0,1.23,6.32-1.05,9.8c-1.11,1.69-3.54,3.27-5.49,4.91
		c2.33,1.12,5.58,1.98,9.72,1.21c6.91-1.28,8.69,1.3,10.31,5.14c4.99-4.04,9.61-7.61,7.86-10.65
		C706.92,278.27,703.72,268.05,703.72,268.05z"/>
	<path class="st47" d="M678.37,232.39c-12.08,3.25-15.29,12.42-15.56,18.92c0,0,0.22,8.96,2.63,11.98c2.41,3.02,4.05,5.42,4.79,8.68
		c0.74,3.26,4.78,15.09,15.42,20.16c10.64,5.08,19.02-12.14,21.49-19.05c2.47-6.9,1.28-24-2.65-31.79
		C700.57,233.51,690.44,229.15,678.37,232.39z"/>
	<path class="st52" d="M678.37,232.39c-12.08,3.25-15.29,12.42-15.56,18.92c0,0,0.08,3.27,0.68,6.53
		c6.32-2.06,16.67-4.72,19.95-1.36c4.82,4.95,4.33,10.8,7.14,11.99c2.81,1.19,6.91,2.88,7.6,8.01c0.59,4.43-1.22,13.1-10.6,16.34
		c9.72,2.32,17.24-13.25,19.56-19.73c2.47-6.9,1.28-24-2.65-31.79C700.57,233.51,690.44,229.15,678.37,232.39z"/>
	<path class="st49" d="M705.33,232c0,0-5-12.11-17.22-11.15c-12.22,0.96-26.88,12.6-32.24,12.26c-5.35-0.34-10.16-1.73-9.07,1.71
		c1.09,3.44,3.71,4.36,3.17,5.4c-0.54,1.05-5.44-0.61-2.85,2.94c2.58,3.55,5.2,4.47,5.2,4.47s-1.78,1.73-1.11,3.85
		c0.67,2.12,1.34,4.24,8.03,3.28c6.69-0.95,11.71-1.67,23.11-7.04c0,0,3.69,6.11,8.94,7.07c5.26,0.96,5.15,7.98,6.58,6.07
		c1.43-1.91,0.87-11.05,4.95-8.27s2.65,11.11,1.13,12.75c0,0,3.35,5.06,6.19,2.99c2.84-2.07,3.68-16.9,2.2-24.29
		C710.88,236.65,705.33,232,705.33,232z"/>
</g>
<g>
	<path class="st42" d="M671.65,651.71c-15.9-2.34-18.28-0.69-20.58-6.96c-2.3-6.27-30.66-1.91-30.66-1.91s-2.86,10.29-3.31,19.1
		c-0.44,8.81,1.05,11.58,1.05,11.58s23.34,3.88,46.48,1.44c23.15-2.44,28.88-2.03,29.52-4.16c0.64-2.13,1.12-5.44-0.34-7.16
		C692.35,661.92,687.55,654.06,671.65,651.71z"/>
	<path class="st54" d="M517.7,342.66c-15.62,0.62-19.37,8.12-20,25c-0.62,16.87,3.61,46.09,3.61,46.09l33.89-3.6c0,0,0-25-2.5-44.37
		C530.2,346.41,517.7,342.66,517.7,342.66z"/>
	<linearGradient id="SVGID_20_" gradientUnits="userSpaceOnUse" x1="448.4997" y1="558.5333" x2="652.6736" y2="558.5333">
		<stop  offset="0" style="stop-color:#23538C"/>
		<stop  offset="1" style="stop-color:#230482"/>
	</linearGradient>
	<path class="st55" d="M515.43,469.09c-19.47-4.7-53.03-4.03-64.45,24.84c-11.41,28.87,19.47,31.55,34.24,35.58
		c14.77,4.03,92.64,4.03,99.36,4.7c6.71,0.67,9.77,26.8,15.81,42.24c6.04,15.44,17.71,73.71,17.71,73.71l34.28-3.84
		c2.69-12.08-13.43-150.38-24.17-159.78C617.47,477.15,515.43,469.09,515.43,469.09z"/>
	<path class="st25" d="M515.43,469.09c-10.1-2.44-24-3.42-36.63,0.23c5.74,2.44,15.53,3.95,34.62,3.13c0,0,80.56,5.37,91.3,13.43
		c10.74,8.06,19.4,24.22,21.42,45.03c1.62,16.71,13.72,96.44,15.48,116.47l10.77-1.05c2.69-12.08-5.37-142.32-24.17-159.78
		C606.63,466.51,515.43,469.09,515.43,469.09z"/>
	<path class="st42" d="M574.17,672.84c-15.55-4.09-19.47-4.79-21.06-11.27c-1.59-6.48-30.27-5.28-30.27-5.28s-3.98,9.91-5.39,18.61
		c-1.41,8.71-0.24,11.62-0.24,11.62s22.76,6.44,46.04,6.56c23.28,0.13,28.95-1.08,29.82-3.13c0.87-2.05,1.79-3.67,0.53-5.54
		C592.34,682.57,589.72,676.93,574.17,672.84z"/>
	<linearGradient id="SVGID_21_" gradientUnits="userSpaceOnUse" x1="421.2721" y1="569.4811" x2="596.9447" y2="569.4811">
		<stop  offset="0" style="stop-color:#23538C"/>
		<stop  offset="1" style="stop-color:#230482"/>
	</linearGradient>
	<path class="st56" d="M445.56,474.11c-6.35,0-12.23,3.15-15.85,8.38c-6.97,10.08-14.97,26.93,0.19,37.04
		c22.69,15.12,113.44,10.8,114.52,16.21c1.08,5.4-25.04,125.91-25.04,125.91s27.2,4.81,33.68,2.65
		c6.48-2.16,49.7-140.45,43.21-166.37C590.77,475.84,478.73,474.13,445.56,474.11z"/>
	<path class="st25" d="M595.45,495.9c-0.13-0.22-0.33-0.43-0.48-0.65c-0.3-0.42-0.57-0.85-0.95-1.26c-0.24-0.26-0.56-0.5-0.84-0.76
		c-0.38-0.35-0.72-0.7-1.16-1.03c-0.34-0.26-0.75-0.5-1.13-0.76c-0.46-0.31-0.89-0.63-1.4-0.93c-0.42-0.25-0.92-0.48-1.38-0.73
		c-0.54-0.29-1.05-0.58-1.64-0.85c-0.5-0.23-1.06-0.45-1.6-0.68c-0.62-0.27-1.22-0.54-1.88-0.79c-0.57-0.22-1.2-0.43-1.81-0.64
		c-0.69-0.24-1.36-0.5-2.1-0.73c-0.65-0.21-1.35-0.41-2.03-0.61c-0.75-0.22-1.48-0.45-2.26-0.67c-0.73-0.2-1.5-0.39-2.26-0.58
		c-0.79-0.2-1.57-0.41-2.39-0.6c-0.8-0.19-1.64-0.37-2.46-0.55c-0.83-0.18-1.64-0.37-2.5-0.55c-0.84-0.17-1.72-0.33-2.58-0.5
		c-0.89-0.17-1.78-0.35-2.69-0.51c-0.88-0.16-1.79-0.3-2.69-0.46c-0.93-0.16-1.85-0.32-2.8-0.47c-0.94-0.15-1.9-0.29-2.86-0.43
		c-0.95-0.14-1.9-0.28-2.86-0.42c-0.96-0.13-1.93-0.26-2.9-0.38c-1-0.13-2-0.26-3.02-0.39c-0.98-0.12-1.97-0.23-2.96-0.34
		c-1.03-0.12-2.05-0.24-3.09-0.35c-1-0.11-2.01-0.21-3.02-0.31c-1.05-0.11-2.1-0.22-3.15-0.32c-1.02-0.1-2.06-0.19-3.09-0.28
		c-1.04-0.09-2.08-0.19-3.13-0.28c-1.05-0.09-2.11-0.17-3.17-0.26c-1.04-0.08-2.08-0.17-3.13-0.25c-1.05-0.08-2.1-0.15-3.14-0.22
		c-1.05-0.07-2.1-0.15-3.15-0.22c-1.06-0.07-2.12-0.14-3.18-0.2c-1.03-0.06-2.06-0.13-3.08-0.19c-1.04-0.06-2.07-0.12-3.1-0.17
		c-1.05-0.06-2.09-0.11-3.13-0.17c-1.01-0.05-2.02-0.1-3.03-0.15c-1.02-0.05-2.05-0.1-3.06-0.14c-1.03-0.04-2.05-0.09-3.08-0.13
		c-0.97-0.04-1.94-0.08-2.9-0.12c-1.01-0.04-2-0.07-3-0.11c-0.95-0.03-1.89-0.07-2.82-0.1c-0.97-0.03-1.93-0.06-2.88-0.09
		c-0.93-0.03-1.85-0.06-2.76-0.08c-0.92-0.03-1.81-0.05-2.71-0.07c-0.91-0.02-1.81-0.05-2.7-0.07c-0.87-0.02-1.72-0.04-2.57-0.05
		c-0.85-0.02-1.7-0.03-2.52-0.05c-0.83-0.01-1.64-0.03-2.44-0.04c-0.81-0.01-1.63-0.03-2.41-0.04c-0.77-0.01-1.51-0.02-2.25-0.03
		c-0.75-0.01-1.51-0.02-2.23-0.03c-0.68-0.01-1.33-0.01-1.98-0.02c-0.74-0.01-1.48-0.01-2.19-0.02c-0.62,0-1.22-0.01-1.81-0.01
		c-0.6,0-1.19-0.01-1.75-0.01c-0.63,0-1.23,0-1.81,0c-0.28,0-0.56,0-0.83,0c-5.8,0-11.17,2.65-14.82,7.09
		c1.79,6.42,4.13,8.27,24.17,13.28c31.04,7.76,83.32,12.25,95.99,12.66c12.66,0.41,22.91,7.25,25.37,23.59
		c2.45,16.34-8.58,63.31-12.66,78.42c-4.09,15.11-13.43,40.73-28.13,45.23c-6.11,1.87-11.32,2.54-15.03,2.47
		c-0.65,3.04-1.03,4.8-1.03,4.8s2.83,0.5,6.86,1.1c1.35,0.2,2.82,0.41,4.37,0.62c0.24,0.03,0.48,0.06,0.73,0.1
		c1.61,0.21,3.3,0.42,4.99,0.61c0.21,0.02,0.42,0.05,0.63,0.07c6.66,0.72,13.3,1.08,16.1,0.15c4.46-1.49,26.27-67.31,37.37-116.73
		c0.5-2.25,0.99-4.46,1.44-6.63c2.29-10.86,3.95-20.67,4.67-28.51c0.57-6.27,0.54-11.26-0.27-14.5
		C596.11,497.23,595.83,496.55,595.45,495.9z"/>
	<linearGradient id="SVGID_22_" gradientUnits="userSpaceOnUse" x1="413.0699" y1="423.8169" x2="527.0364" y2="423.8169">
		<stop  offset="0" style="stop-color:#91D01D"/>
		<stop  offset="1" style="stop-color:#F9ED32"/>
	</linearGradient>
	<path class="st57" d="M524.61,353.21c-7.97-19.12-21.24-22.83-43.01-24.96c0,0-24.43,0.53-39.83,18.59
		c-15.4,18.05-28.68,106.2-28.68,123.73c0,17.52-1.36,42.27,14.57,48.12c15.93,5.84-5.52-26.38,92.65-49.7
		c0,0-14.21-29.46-7.18-56.73C518.84,390.13,532.58,372.33,524.61,353.21z"/>
	<path class="st58" d="M505.89,314.88c-1.46-1.21-18.85-7.09-18.85-7.09s-3.25,14.68-7.4,20.21c-3.83,5.11-8.64,9.88-2.57,15.71
		c6.08,5.83,24.2,12.23,26.87,6.89c2.67-5.35-3.65-10.21-3.89-18.47C499.82,323.87,507.35,316.1,505.89,314.88z"/>
	<path class="st59" d="M532.59,274.34c-14.28-7.21-28.1-4.37-35.03,4.36c-6.94,8.73-12.88,29.84-11.58,39.12
		c1.3,9.29,7.32,33.03,21.96,29.44c14.64-3.59,22.78-17.35,24.55-21.24c1.78-3.89,4.44-6.47,8.25-9.62
		c3.81-3.16,6.41-14.32,6.41-14.32C548.51,293.86,546.88,281.54,532.59,274.34z"/>
	<path class="st60" d="M532.59,274.34c-14.28-7.2-28.09-4.37-35.03,4.36c-6.94,8.73-12.88,29.83-11.58,39.12
		c1.22,8.72,6.6,30.17,19.37,29.79c-10.91-6.5-10.92-17.83-9.03-23.22c2.19-6.24,7.77-7.29,11.6-8.05
		c3.83-0.76,4.74-8.22,12.06-13.16c4.97-3.35,17.25,2.67,24.63,6.89c1.59-3.92,2.55-8,2.55-8
		C548.51,293.86,546.88,281.54,532.59,274.34z"/>
	<path class="st42" d="M543.63,269.79c-6.58-5.3-14.18-10.89-22.58-9.9c-0.01-2.06-0.02-4.12-0.03-6.18
		c-2.37,0.37-4.58,1.69-6.03,3.59c-1.76-2.19-4.18-3.84-6.86-4.67c0.81,1.93,1.62,3.86,2.43,5.79c-6.4-1.73-9.97,2.18-13.93,6.24
		c-3.74,3.84-7.38,6.66-9.57,11.85c-3.97,9.36-6.93,29.15-3.74,32.65c3.18,3.5,8.98-2.25,8.98-2.25
		c-1.55-2.59-1.17-13.96,4.98-16.51c6.15-2.55,2.9,9.35,4.27,12.26c1.37,2.91,3.15-6.38,10.35-6.2c7.19,0.18,13.73-6.88,13.73-6.88
		c0.4-0.44,9.44,7.6,10.21,8.15c3.86,2.78,8.35,4.96,13.23,4.62c4.01-0.28,7.7-2.22,11.24-4.11c-2.11-2.37-3.93-5-5.4-7.82
		c5.62-0.19,10.72-4.97,11.26-10.57C557.75,280.73,550.21,275.09,543.63,269.79z"/>
	<polygon class="st61" points="456.33,483.04 526.64,493.72 604.26,469.69 604.98,465.06 456.33,479.4 	"/>
	<path class="st62" d="M456.33,479.4l70.08,9.56c0,0,76.46-22.7,78.05-22.7s-66.9-7.03-66.9-7.03L456.33,479.4z"/>
	<path class="st61" d="M480.13,478.11l45.93,6.26c26.01-7.72,43.31-12.81,54.83-16.15c-13.22-1.38-29.78-3.09-43.01-4.45
		L480.13,478.11z"/>
	<path class="st59" d="M556.23,446.48c-5.22-0.99-19.88-16.9-21.37-20.13c-1.49-3.23-1.22-16.05-1.22-16.05l-20.5,1.95
		c0,0,0.16,19.09,1.9,25.56c1.74,6.46,29.76,14.64,32.74,15.63c2.98,0.99,0,5.47,2.73,7.46c2.73,1.99,3.23-3.23,4.47-4.97
		c1.24-1.74,3.73,4.72,6.21,7.46c2.49,2.73,9.2,1.74,11.93,0c2.73-1.74,1.49-8.45-0.5-11.93
		C570.65,447.97,561.45,447.48,556.23,446.48z"/>
	<path class="st60" d="M530.22,435.42c-8.65-6.73-8.96-16.76-7.69-24.06l-9.39,0.89c0,0,0.16,19.09,1.9,25.56
		c1.74,6.46,29.76,14.64,32.74,15.63c2.98,0.99,0,5.47,2.73,7.46c2.73,1.99,3.23-3.23,4.47-4.97c1.24-1.74,3.73,4.72,6.21,7.46
		c2.49,2.73,9.2,1.74,11.93,0c2.01-1.28,1.86-5.26,0.85-8.65C560.8,450.17,540.19,443.17,530.22,435.42z"/>
	<path class="st59" d="M498.8,444.89c-7.43-1.59-65.3-19.11-66.89-23.89c-1.59-4.78,7.96-16.99,7.96-16.99l-25.48-6.37
		c0,0-11.15,23.36-6.9,35.04c4.25,11.68,41.41,15.93,70.61,19.11l14.33,3.72c0,0,3.19,6.37,10.09,7.96
		c6.9,1.59,11.92,0.86,14.87,3.19c2.94,2.33,6.37,7.96,7.96,6.37c1.59-1.59,5.31-13.27,3.72-20.17
		C527.47,445.95,506.23,446.48,498.8,444.89z"/>
	<path class="st60" d="M502.77,453.72c-2.49-4.99-66.55-16.64-80.69-22.46c-10.73-4.42-4.7-23.18-1.17-31.99l-6.53-1.63
		c0,0-11.15,23.36-6.9,35.04c4.25,11.68,41.41,15.93,70.61,19.11l14.34,3.72c0,0,3.19,6.37,10.09,7.96
		c6.9,1.59,11.92,0.86,14.87,3.19c2.94,2.33,6.37,7.96,7.96,6.37c0.99-0.99,2.8-5.89,3.65-11.12
		C521.37,459.03,504.75,457.68,502.77,453.72z"/>
	<path class="st54" d="M453.67,337.65c-26.01,1.59-44.6,61.05-44.6,61.05l32.39,13.27c0,0,27.61-36.63,27.61-55.21
		C469.07,338.18,453.67,337.65,453.67,337.65z"/>
	<path class="st61" d="M631.42,396.89l-74.66,18.23c-2.49,0.61-4.51,2.42-5.38,4.83l-24.97,69l78.57-23.89l29.34-63.98
		C635.65,398.27,633.78,396.32,631.42,396.89z"/>
	<path class="st62" d="M632.94,398.61l-74.67,18.23c-2.49,0.61-4.51,2.42-5.38,4.83l-24.97,69l78.57-23.89l28-66.34
		C634.93,399.42,634.02,398.35,632.94,398.61z"/>
</g>
<linearGradient id="SVGID_23_" gradientUnits="userSpaceOnUse" x1="489.9461" y1="703.8546" x2="489.9461" y2="677.41">
	<stop  offset="0" style="stop-color:#700D2A"/>
	<stop  offset="0.5645" style="stop-color:#DD4536"/>
	<stop  offset="1" style="stop-color:#F7A458"/>
</linearGradient>
<path class="st63" d="M942.66,676.5H37.23c-4.61,0-8.34,3.74-8.34,8.34v11.98c0,4.61,3.73,8.34,8.34,8.34h905.42
	c4.61,0,8.34-3.73,8.34-8.34v-11.98C951,680.24,947.27,676.5,942.66,676.5z"/>
</svg>
