<?xml version="1.0" encoding="utf-8"?>
<!-- Generator: Adobe Illustrator 24.2.2, SVG Export Plug-In . SVG Version: 6.00 Build 0)  -->
<svg version="1.1" id="Layer_1" xmlns="http://www.w3.org/2000/svg" xmlns:xlink="http://www.w3.org/1999/xlink" x="0px" y="0px"
	 viewBox="0 0 450 450" style="enable-background:new 0 0 450 450;" xml:space="preserve">
<style type="text/css">
	.st0{fill:#3F90A8;}
	.st1{fill:#F4F1E5;}
	.st2{fill:#F8DCC2;}
	.st3{fill:#EC925D;}
	.st4{fill:#A64C49;}
	.st5{fill:#3B5765;}
	.st6{opacity:0.28;fill:#3B5765;}
	.st7{fill:url(#SVGID_1_);}
	.st8{fill:url(#SVGID_2_);}
	.st9{opacity:0.4;fill:#EC925D;}
	.st10{fill:#F8C650;}
	.st11{fill:#FCC7A9;}
	.st12{fill:#0E0E30;}
	.st13{fill:url(#SVGID_3_);}
	.st14{fill:url(#SVGID_4_);}
	.st15{opacity:0.43;fill:#EC925D;}
	.st16{opacity:0.51;fill:#F8C650;}
	.st17{fill:#CEE98F;}
	.st18{opacity:0.39;fill:#FCC7A9;}
	.st19{fill:#CAE88F;}
	.st20{opacity:0.55;fill:#F8C650;}
	.st21{fill:#FFB69F;stroke:#0E0E30;stroke-width:0.25;stroke-miterlimit:10;}
	.st22{fill:#EFAB92;}
	.st23{opacity:0.69;fill:#F8C650;}
	.st24{opacity:0.14;fill:#F8C650;}
	.st25{fill:#ABE3EF;}
	.st26{fill:#889CA0;}
	.st27{opacity:0.45;fill:#ABE3EF;}
</style>
<g>
	<g>
		<g>
			<path class="st0" d="M372.64,344.47c0,0,18.76,14.98,1.22,33.73l-84.6-24.92L372.64,344.47z"/>
			<polygon class="st0" points="84.57,351.35 233.96,397.02 373.86,378.21 364.66,375.27 223.06,329.88 222.96,329.88 156.4,343.79 
				91.41,350.63 			"/>
			<path class="st1" d="M86.12,324.41l7.66,3.8l-7.61-2.73l0.05,2.21l28.79,12.29l-28.74-11.21l0.41,11.26l11.05,4.83l-11-2.93
				l0.26,7.15l4.42,1.54l142.09,43.1l0.36-0.05l130.8-18.41l6.84-0.98c3.6-8.84,2.93-18.15-1.03-27.81l-147.41-16.61h-0.1l-130-7.83
				l-6.94-0.77L86.12,324.41z"/>
			<polygon class="st2" points="370.49,346.46 217.32,312.43 86,321.29 230.6,365.26 			"/>
			<polygon class="st2" points="370.49,346.46 217.32,312.43 86,321.29 232.63,364.99 			"/>
			<path class="st0" d="M372.64,344.47l-142.71-30.33c-6.91-2.45-14.23-3.57-21.56-3.3l-124.9,7.95l149.27,44.48L372.64,344.47z"/>
			<polygon class="st2" points="84.57,351.35 233.96,397.02 233.86,393.68 232.73,363.3 156.4,343.79 92.96,322.04 86.01,321.27 
				86.12,324.41 93.78,328.21 86.17,325.49 86.22,327.7 115.01,339.99 86.27,328.78 86.68,340.04 97.74,344.87 86.73,341.94 
				86.99,349.09 91.41,350.63 			"/>
		</g>
		<g>
			<path class="st3" d="M379.54,304.95c0,0,18.76,14.98,1.21,33.73l-84.6-24.92L379.54,304.95z"/>
			<polygon class="st3" points="91.47,311.83 240.86,357.5 380.76,338.68 371.56,335.75 229.96,290.35 229.86,290.35 163.3,304.27 
				98.31,311.11 			"/>
			<path class="st1" d="M93.02,284.89l7.66,3.8l-7.61-2.72l0.05,2.21l28.79,12.29l-28.74-11.21l0.41,11.26l11.05,4.83l-11-2.93
				l0.26,7.15l4.42,1.54l142.09,43.1l0.36-0.05l130.8-18.41l6.84-0.98c3.6-8.84,2.93-18.15-1.03-27.81l-147.41-16.61h-0.1l-130-7.83
				l-6.94-0.77L93.02,284.89z"/>
			<polygon class="st2" points="377.39,306.94 224.22,272.91 92.9,281.77 237.49,325.74 			"/>
			<polygon class="st2" points="377.39,306.94 224.22,272.91 92.9,281.77 239.53,325.46 			"/>
			<path class="st3" d="M379.54,304.95l-142.71-30.33c-6.91-2.45-14.23-3.57-21.56-3.3l-124.9,7.95l149.27,44.48L379.54,304.95z"/>
			<polygon class="st2" points="91.47,311.83 240.86,357.5 240.76,354.16 239.63,323.77 163.3,304.27 99.85,282.52 92.91,281.75 
				93.02,284.89 100.68,288.69 93.07,285.97 93.12,288.18 121.91,300.47 93.17,289.26 93.58,300.52 104.64,305.35 93.63,302.42 
				93.89,309.57 98.31,311.11 			"/>
		</g>
		<g>
			<path class="st4" d="M358.11,272.31c0,0,18.76,14.98,1.22,33.73l-84.6-24.92L358.11,272.31z"/>
			<polygon class="st4" points="70.04,279.19 219.43,324.86 359.33,306.04 350.13,303.11 208.53,257.71 208.43,257.71 
				141.87,271.63 76.88,278.47 			"/>
			<path class="st1" d="M71.59,252.25l7.66,3.8l-7.61-2.72l0.05,2.21l28.79,12.29l-28.74-11.21l0.41,11.26l11.05,4.83l-11-2.93
				l0.26,7.15l4.42,1.54l142.09,43.1l0.36-0.05l130.8-18.41l6.84-0.98c3.6-8.84,2.93-18.15-1.03-27.82l-147.41-16.61h-0.1
				l-130.01-7.83l-6.94-0.77L71.59,252.25z"/>
			<polygon class="st2" points="355.96,274.3 202.79,240.27 71.47,249.13 216.06,293.1 			"/>
			<polygon class="st2" points="355.96,274.3 202.79,240.27 71.47,249.13 218.1,292.82 			"/>
			<path class="st4" d="M358.11,272.31L215.4,241.98c-6.91-2.44-14.23-3.56-21.56-3.3l-124.91,7.95l149.27,44.48L358.11,272.31z"/>
			<polygon class="st2" points="70.04,279.19 219.43,324.86 219.33,321.52 218.2,291.13 141.87,271.63 78.42,249.88 71.48,249.11 
				71.59,252.25 79.25,256.05 71.64,253.33 71.69,255.54 100.48,267.83 71.74,256.62 72.15,267.88 83.21,272.71 72.2,269.78 
				72.46,276.93 76.88,278.47 			"/>
		</g>
		<g>
			<path class="st0" d="M67.12,265.01l11.15-2.48l78.58-17.6l-5.73-0.87l-8.44-1.33l-10.33-1.66l-53-8.33l-6.96-1.07
				C72.38,231.65,51.96,244.3,67.12,265.01z"/>
			<polygon class="st0" points="67.12,265.01 205.32,286.72 359.89,258.14 292.12,243.42 286.46,242.04 255.39,229.04 
				224.23,221.39 191.52,231.07 146.78,241.48 143.09,242.58 142.67,242.72 142.15,242.85 76.42,262.26 			"/>
			<path class="st2" d="M348.49,249.93l11.55-3.49l1.75-11.12l-29.89,7.67l30.05-8.74l0.35-2.21l-7.9,1.84l8.06-2.9l-290.11,0.68
				c-5.49,20.65-4.97,20.55-2.43,29.72l135.99,21.45l152.7-27.43l1.12-7.09L348.49,249.93z"/>
			<polygon class="st2" points="74.25,233.89 229.89,211.94 362.95,227.91 212.46,255.62 			"/>
			<polygon class="st2" points="72.06,232.78 72.36,231.66 229.89,211.94 362.95,227.91 210.25,255.31 			"/>
			<path class="st0" d="M72.36,231.66l144.81-19.53c7.16-1.6,14.55-1.84,21.8-0.7l126.57,14.58l-154.97,27.38L72.36,231.66z"/>
			<path class="st2" d="M67.12,265.01l138.2,21.71l0.6-3.89l4.33-27.52l0.33-1.94l-63.8-11.89l-66.98-8.83l-7.42-0.99
				C72.38,231.65,51.96,244.3,67.12,265.01z"/>
		</g>
	</g>
	<g>
		<path class="st5" d="M98.21,313.61c2.97,2.11,4.73,3.97,12.37,1.87c4.17-1.15,8.85-4.06,11.63-5.76c1.55-0.97,3.26-1.64,5.05-2.07
			c0.53-0.13,1.03-0.24,1.49-0.38c0.06-0.02,0.11-0.04,0.2-0.09c6.18-1.7,6.47-3.76,6.7-4.55c0.27-0.92-1.04-16.29-1.04-16.29
			l-17.12,3.72c0,0-2.16,3.79-5.6,7.22c-4.27,4.26-11.01,9.25-12.88,10.65C96.14,310.08,96.57,312.47,98.21,313.61z"/>
		<path class="st6" d="M115.75,292.7c0,0-2.07,3.68,12.75,4.74c9.2,0.66,2.3,8.78,0.45,9.75c6.18-1.7,6.47-3.76,6.7-4.55
			c0.27-0.92-1.04-16.29-1.04-16.29l-17.12,3.72C117.49,290.06,116.96,291.12,115.75,292.7z"/>
		<linearGradient id="SVGID_1_" gradientUnits="userSpaceOnUse" x1="113.4492" y1="215.1942" x2="213.8427" y2="215.1942">
			<stop  offset="0" style="stop-color:#23538C"/>
			<stop  offset="1" style="stop-color:#230482"/>
		</linearGradient>
		<path class="st7" d="M113.48,230.4c0.27,6.78,4.61,8.85,7.6,14.06c2.05-0.58,5.14-0.98,8.95-1.28c3.56-0.3,7.77-0.46,12.31-0.59
			c23.27-0.74,55.72-0.39,60.52-6.22c1.3-1.56,7.01-24.12,7.93-25.75c1.93-3.47,2.95-7.05,3.05-10.34
			c0.15-5.97-2.67-11.01-8.39-13.03c-3.25-1.18-7.48-1.32-12.58-0.06c-2.04,0.77-6.06-1.81-8.2-1.15c-1.85,0.57-3.69,1.18-5.52,1.81
			c-4.47,1.48-8.88,3.08-13.2,4.74c-17.07,6.51-33.95,14.72-44.58,20.55C114.81,217.48,113.21,223.79,113.48,230.4z"/>
		<linearGradient id="SVGID_2_" gradientUnits="userSpaceOnUse" x1="112.9169" y1="259.3256" x2="144.759" y2="259.3256">
			<stop  offset="0" style="stop-color:#23538C"/>
			<stop  offset="1" style="stop-color:#230482"/>
		</linearGradient>
		<path class="st8" d="M113.04,225.68c-0.88,22.36,3.39,58.84,2.37,65.57c2.39,4.05,19.12,5.08,19.6,1.81
			c0.34-2.67,0.33-2.76,0.37-3.15c1.79-11.57,8.41-48.2,9.37-51.98c0.01-0.08-0.03-0.23-0.13-0.38c-0.78-1.54-6.1-5.89-11.89-10.3
			C125.15,221.5,113.1,223.93,113.04,225.68z"/>
		<path class="st9" d="M129.23,249.45c3.7,12.4,6.89,37.89,5.99,46.29c1.79-11.57,7.71-48.36,8.67-52.14
			c0.01-0.08-1.46-0.86-1.55-1.01c23.27-0.74,55.72-0.39,60.52-6.22c1.3-1.56,7.01-24.12,7.93-25.75c1.93-3.47,2.95-7.05,3.05-10.34
			l-34.69-12.44c-4.47,1.48-8.88,3.08-13.2,4.74c0,0-1.77,0.33,1.21,5.38c1.21,2.04-2.35,7.18-4.36,8.44
			c-10.99,6.86-22.98,14.24-29.5,20.85C128.44,232.18,127.04,242.09,129.23,249.45z"/>
		<path class="st10" d="M160.96,124.99c0.29,1.71,6.22,26.61,8.67,36.91c0,0.02,0,0.05,0,0.05c0.61,2.62,1.01,4.28,1.01,4.35
			c5.31-0.68,15.37-3.28,19.58-8.54c1.47-1.83,2.21-4.01,1.76-6.53c-0.77-4.3-4.24-14.26-5.34-18.32
			c-1.52-5.67-3.49-10.35-5.82-13.89c-2.59-4.04-5.63-6.6-8.99-7.53c-7.95-2.18-9.98,2.25-11.47,6.24
			C159.6,119.85,160.78,124.03,160.96,124.99z"/>
		<path class="st11" d="M145.83,189.09c0,0-4.01,4.2-6.11,4.96c-2.1,0.76-6.11-0.57-10.3,0c-4.2,0.57-5.37,6.29-6.11,7.63
			c-0.74,1.34-0.93,5.5,3.35,5.71c4.28,0.21,9.1-6.31,9.22-4c-1.62,2.86-2.97,4.53-0.93,4.59c2.04,0.05,5.23-5.91,8.24-6.84
			c3.02-0.93,5.31-2.02,6.07-3.88C150.03,195.38,145.83,189.09,145.83,189.09z"/>
		<path class="st10" d="M152.75,198.33c0,0,1.09-0.64,2.91-1.66c0.03,0,0.05,0,0.08-0.05c7.9-4.48,28.76-16.39,31.06-17.71
			c2.8-1.61,7.15-7.26,8.51-9.27c-0.32-5.16-2.27-9.27-5.07-11.89c-5.36-4.96-13.87-4.57-20.6,4.18
			c-0.03,0.07-26.01,27.22-26.95,27.95C141.67,190.7,148.91,200.04,152.75,198.33z"/>
		<path class="st10" d="M192.56,102.99l2.48-3.51c0,0-3.3-2.76-7.37-1.04L192.56,102.99z"/>
		<path class="st10" d="M195.05,99.48c0,0-3.3-2.76-7.37-1.04c-4.07,1.72,4.89,4.55,4.89,4.55L195.05,99.48z"/>
		<path class="st12" d="M154.25,79.25c7.4,6.33,8.37,17,22.6,17s11.73,3.53,15.89-5.28c4.06-8.58,4.29-13.19,4.93-21.57
			c0.32-4.14-4.37-10.35-13.62-12.96c-10.69-6.57-19.75,0.02-25.24,1.25c-8.05,1.8-8.74,6.76-7.74,9.68
			C150.98,74.9,151.73,75.41,154.25,79.25z"/>
		<linearGradient id="SVGID_3_" gradientUnits="userSpaceOnUse" x1="141.4818" y1="218.7304" x2="240.4746" y2="218.7304">
			<stop  offset="0" style="stop-color:#23538C"/>
			<stop  offset="1" style="stop-color:#230482"/>
		</linearGradient>
		<path class="st13" d="M141.48,224.12c-0.09,0.76,3.52,9.33,6.84,16.83c0.19,0.44,0.37,0.87,0.59,1.31
			c2.4,5.48,4.51,10.06,4.65,10.08c4.6-0.93,9.14-1.86,13.6-2.89c1.48-0.31,2.94-0.61,4.43-0.98c17.6-4.01,34.36-8.85,50.97-16.13
			c13.87-6.05,19.2-20.65,17.64-29.9c-0.17-1.08-0.35-2.11-0.51-3.07c-2.54-15.13-2.69-14.82-22.56-13.85
			c-3.59,0.15-12.94,4.3-16.46,5.41c-8.99,2.91-5.97-1.89-13.48,2.85c-0.45,0.27-0.89,0.58-1.34,0.85
			c-3.66,2.28-7.01,4.41-10.1,6.36c-14.01,8.85-22.68,14.61-29.67,19.7c-0.32,0.2-0.64,0.43-0.93,0.66
			c-1.16,0.84-2.29,1.69-3.39,2.51C141.65,223.93,141.55,224.04,141.48,224.12z"/>
		<path class="st5" d="M177.22,329.55c2.31,0.79,13.9-1.59,18.51-6.8c0.4-0.43,1.24-2.08,2.29-4.06c0-0.03,0-0.03,0.01-0.06
			c1.81-3.43,4.21-7.92,5.91-9.09c2.72-1.85,5.03-8.39,4.1-10.33c-0.93-1.94-15.03-12.91-15.03-12.91l-9.45,10.58
			c0,0,1.45,3.42,0.76,9.46c-0.27,2.39-0.88,5.19-2.08,8.4C177.16,322.03,169.08,326.76,177.22,329.55z"/>
		<path class="st6" d="M183.56,296.89c0,0,1.45,3.42,0.76,9.46c1.69,0.52,4.74,0.45,9.78-2.59c8.85-5.32,9.15,0.12,8.85,1.77
			c-0.31,1.68-3,7.67-4.92,13.1c1.81-3.43,4.21-7.92,5.91-9.09c2.72-1.85,5.03-8.39,4.1-10.33c-0.93-1.94-15.03-12.91-15.03-12.91
			L183.56,296.89z"/>
		<linearGradient id="SVGID_4_" gradientUnits="userSpaceOnUse" x1="130.8153" y1="259.6928" x2="198.412" y2="259.6928">
			<stop  offset="0" style="stop-color:#23538C"/>
			<stop  offset="1" style="stop-color:#230482"/>
		</linearGradient>
		<path class="st14" d="M132.12,247.21c5.88,19.06,47.2,52.01,48.9,55.04c0.61,1.1,1.75,1.5,3.13,1.36c0,0,0.03,0,0.06,0.01
			c5.92-0.6,16.55-10.57,13.74-14.56c0,0-6.82-10.77-15.63-24.3c-0.03-0.03-0.05-0.09-0.07-0.13c-1.54-2.36-3.12-4.79-4.77-7.25
			c-1.91-2.94-3.88-5.94-5.88-8.92c-0.2-0.29-0.4-0.61-0.63-0.93c-1.87-2.84-3.76-5.69-5.64-8.45
			c-0.52-1.89-10.63-21.25-11.13-23.35c-3.03,1.67-5.73,3.31-8.1,4.94c-0.32,0.2-0.64,0.43-0.93,0.66
			c-1.16,0.84-2.29,1.69-3.39,2.51c-0.13,0.07-0.23,0.18-0.3,0.26C130.61,232.91,129.24,240.56,132.12,247.21z"/>
		<path class="st15" d="M205.33,216.03c-23.49-7.98-29.95-11.8-29.61-14.3c3.09-1.96,7.63-4.84,11.29-7.12l16.02,0.04l37.28,4.23
			l0.54,0.47c0.16,0.96,0.34,1.99,0.51,3.07c1.55,9.25-3.77,23.85-17.64,29.9c-16.62,7.28-33.37,12.12-50.97,16.13
			c0.39,0.47,26.35,40.6,26.35,40.6c2.8,3.98-7.82,13.96-13.74,14.56c2.91-1.95,10.53-10.78,6.77-14.45
			c-14.15-13.83-21.26-23.45-21.26-23.45c-7.21-6.4-1.49-16.72-13.18-21.27C163.72,245.91,223.56,222.23,205.33,216.03z"/>
		<path class="st16" d="M155.73,196.62c7.9-4.48,28.76-16.39,31.06-17.71c2.8-1.61,7.15-7.26,8.51-9.27
			c-0.32-5.16-2.27-9.27-5.07-11.89c1.47-1.83,2.21-4.01,1.76-6.53c-0.77-4.3-4.24-14.26-5.34-18.32
			c-1.52-5.67-3.49-10.35-5.82-13.89l-12.59,2.08c0,0,0.37,36.22,1.39,40.79c0,0.02-1.66,3.88-2.21,8.11
			C166.94,173.7,163.9,191.49,155.73,196.62z"/>
		<path class="st17" d="M161.04,118.82c0,0.32,0,0.64,0.03,0.93v0.22c-0.03,20.05,15.56,52.44,16.12,58.62
			c0,0.05,2.08,9.16-3.57,12.8c0,0-4.67,4.1,11.95,12.53c0.16-0.1,0.37-0.2,0.59-0.29c1.36-0.71,2.56-1.42,3.39-2.32
			c0.93-1,1.33-2.2,0.8-3.84c0.8,1.83,1.28,3.33,1.6,4.52c0.11,0.42,0.19,0.81,0.27,1.15c0.37,1.86,0.27,2.89,0.24,3.52
			c1.25,3.5,11.34,4.96,19.56,5.58c0.13,0,0.24,0.02,0.37,0.02c7.2,0.51,14.46-0.1,21.45-1.88c6.38-1.64,13.58-3.99,13.18-6.46
			c-2.37-13.94-9.26-25.31-11.69-54.69c-0.16-2.2-10.22-28.05-17.29-36.39c-0.77-0.9-1.52-1.59-2.16-2.03
			c-0.45-0.29-0.8-0.54-1.09-0.76c-2.13-1.44-3.04-2.25-6.19-3.89c-0.72-0.39-1.55-0.81-2.53-1.3
			c-18.04-8.78-35.49-6.97-44.03,10.03c-0.37,0.81-0.21,0.37-0.69,1.98C161.18,117.55,161.07,118.16,161.04,118.82z"/>
		<path class="st11" d="M166.34,102.92l7.07,6.49c0.03,1.03,0.08,2.2,0.15,3.44c0.31,5.3,1.07,11.68,3.09,12.18
			c0.46-6.03,1.73-10.23,3.73-13.42c1.23-2,2.76-3.62,4.54-5.06c2.59-2.13,5.73-3.87,9.37-5.93c-0.2-0.38-8.96-12.24-8.96-12.24
			C182.81,84.91,164.53,99.55,166.34,102.92z"/>
		<path class="st18" d="M166.39,104.76l7.07,5.95c0.03,0.94,0.46,14.04,3.24,14.32c-1.18-0.54-1.95-4.44-2.27-6.73
			c-0.33-2.39-0.2-4.24,3.22-4.25c0.97-0.26,1.89-0.72,2.78-1.33c1.23-1.83,2.76-3.32,4.54-4.64c14.74-1.8,5.57-10.23,5.57-10.23
			L166.39,104.76z"/>
		<path class="st10" d="M179.83,112.48c0.05,0.34,0.22,1.83-0.43,3.33c0,0,6.21-0.12,7.8-2.27c1.55-2.1-6.38-1.51-7.3-1.18
			C179.84,112.38,179.82,112.43,179.83,112.48z"/>
		<path class="st16" d="M204.24,161.23c-4.7-10.69-0.48-22.87-1.52-33.53c-1.07-10.98,0.09-16.45,2.19-19.17
			c1.76-1.93-3.97-5.84-5.92-4.95c3.73,0.98,2.38,4.07,1.43,4.85c-3.81,2.87-5.85,13.76-5.85,13.76s-11.32-7.01-14.28-6.99
			c4.46-0.8,17.67-13.55,17.67-13.55c4.46,0.83,15.84,7.41,15.53,7.35c0.31,0.28,1.91,1.53,2.37,1.82c0.64,0.44,1.39,1.13,2.16,2.03
			c7.07,8.34,17.13,34.19,17.29,36.39c2.43,29.37,9.31,40.75,11.69,54.69c0.4,2.47-6.8,4.82-13.18,6.46
			c-6.99,1.79-14.25,2.4-21.45,1.88c8.19-1.64,42.04-6.24,20.57-22.28c-2.72-2.03-28.92,11.59-40.9,12.06
			c-0.03-0.02-0.05-0.05-0.11-0.05c-0.91-0.39-4.06,0.81-5.79,1.64c-0.21,0.1-0.43,0.2-0.59,0.29c-6.06-4.28-4.7-9.7-4.73-11.95
			C180.79,187.98,209.14,172.36,204.24,161.23z"/>
		<path class="st10" d="M191.36,113.09c-3.63,0.14-11.29-1.01-11.52-0.68c-0.01,0.02-0.01,0.05-0.01,0.07
			c0.04,0.27,0.23,1.93-0.44,3.33C183.4,112.59,190.91,115.05,191.36,113.09z"/>
		<path class="st19" d="M179.89,112.37c0.61-0.22,1.97,0.4,3.63,1.42c2.04,1.27,4.54,3.14,6.63,4.79c2.48,1.96,4.42,3.62,4.42,3.62
			s-0.14-11.32,4.25-14.51c4.34-3.14-1.48-6.38-2.23-7.05c-0.84-0.74-1.51-1.21-2.03-1.48c0-0.01,0-0.01,0-0.01
			s-2.16-1.32-3.58-1.19c-1.41,0.13,1.04,0.23,1.7,2.71C192.17,106.05,181.58,111.46,179.89,112.37z"/>
		<path class="st20" d="M173.62,115.23c-1.29-1.16-3.49,5.21-5.44,6.46c-0.75-3.5-1.6-9.1-1.79-10.7
			C169.75,109.23,172.91,112.57,173.62,115.23z"/>
		<path class="st10" d="M173.62,115.43c0,0-0.51-2.65-2.52-3.61c-1.8-0.86,1.54-0.01,2.24,0.17c0.08,0.02,0.13,0.08,0.13,0.16
			L173.62,115.43z"/>
		<path class="st19" d="M173.41,112.02c0,0-1.12-0.55-2.57,3.78c-1.45,4.33-2.61,5.3-2.61,5.3s-0.29-7.68-1.25-8.7
			c-0.97-1.03,0.96-4.74,0.96-4.74L173.41,112.02z"/>
		<path class="st21" d="M155.65,83.08c0.5,1.11,0.72,2.32,0.63,3.54c-0.29,4.11,1.33,8.11,4.02,12.72
			c7.33,12.57,7.89,10.88,14.38,9.4c4.01-0.91,7.66-3.01,10.47-6c3.89-4.15,7.33-9.98,10.2-18.38c1.08-3.14,0.88-6.62-0.63-9.58
			c-7.46-14.57-21.48-8.6-33.98-5.83C151.32,71.03,153.57,78.51,155.65,83.08z"/>
		<path class="st12" d="M154.25,79.25c0,0,10.12-4.72,8.28-8.84c-0.6-1.35,2.19-2.06,3.66-2.12c8.75-0.36,14.93,3.57,16.73,8.76
			c0.37,1.06,0.55,2.17,0.54,3.31c-0.13,8.4,5.31,4.34,6.65,7.51c0.73,1.72,1.94,2.1,2.17,4.11c2.96-4.5,4.43-13.49,5.64-19.74
			c-0.13-6.19-2.7-10.77-10.08-14.3c-12.34-5.9-22.92-1.13-28.37,4.42c0,0,0,0.01-0.01,0.03C147.05,65.36,144.5,73.6,154.25,79.25z"
			/>
		<path class="st22" d="M187.11,86.44c1.52,2.75-0.72,6.42,1.12,7.11c1.84,0.69,4.32-1.37,5.54-4.6c1.22-3.23,2.21-5.86-1.12-7.11
			C188.4,80.24,185.44,83.41,187.11,86.44z"/>
		<path class="st17" d="M215.91,164.11l-9.23-26.24c-9.45-19.29-3.6-27.59-2.6-28.7c1.25-1.4,4.74-1.73,6.33-1.34
			c7.41,1.84,16.29,11.25,25.2,36.13c0.14,0.39,6.85,21.15,7.04,21.8C242.71,166.06,224.74,162.58,215.91,164.11z"/>
		<path class="st23" d="M176.67,126.4c-0.18,12.12,1.79,24.53,7.26,35.45c2.4,5.56,3.67,11.54,4.59,17.52
			c0.9,5.99,1.5,12.04,1.8,18.11l0.06,0c0.05-6.08-0.31-12.18-1.24-18.2c-0.94-6-2.23-12.05-4.89-17.57
			c-2.98-5.33-4.6-11.25-5.59-17.22c-1-5.98-1.66-12.01-1.92-18.09L176.67,126.4z"/>
		<path class="st24" d="M190.16,118.16c-0.45-4.09,5.72-13.26,2.53-11.91c-1.93,3.81-7.19,6.18-9.17,7.53
			c2.04,1.26,4.54,3.13,6.64,4.79C190.19,118.46,190.17,118.32,190.16,118.16z"/>
		<g>
			<path class="st5" d="M151.68,197.84c0.62-0.19,1.28-0.17,1.89,0.05l38.59,14.15c0.23-0.2,0.66-0.53,0.73-0.41
				c0.11,0.18,0.25,0.92,0.22,1.17c0,0,0,0.01,0,0.01c0,0.01,0,0.03,0,0.04c0,0-0.01,0-0.01,0c-0.02,0.22-0.13,0.43-0.38,0.52
				l-38.87,14.42c-0.39,0.15-0.83,0.13-1.21-0.03l-40.11-17.85L151.68,197.84z"/>
			<path class="st25" d="M152.48,226.83l-40.78-17.64l39.82-12.27c0.62-0.19,1.28-0.17,1.89,0.05l39.14,14.35
				c0.52,0.19,0.52,0.93,0,1.12l-38.87,14.42C153.29,227.01,152.86,227,152.48,226.83z"/>
			<path class="st5" d="M95.15,167.42c1.02-1.16,1.31-1.04,1.83-0.87l40.98,13.56c0.9,0.3,1.6,1.01,1.89,1.91l14.09,44.04
				c0.22,0.68-0.47,1.29-1.12,1l-41.2-18.29c-0.74-0.33-1.31-0.95-1.59-1.71l-13.99-39.17C95.78,167.83,95.48,167.71,95.15,167.42z"
				/>
			<path class="st26" d="M152.48,226.83l-40.78-17.64l39.82-12.27c0.62-0.19,1.28-0.17,1.89,0.05l39.14,14.35
				c0.52,0.19,0.52,0.93,0,1.12l-38.87,14.42C153.29,227.01,152.86,227,152.48,226.83z"/>
			<path class="st25" d="M151.12,225.39l-36.9-15.96l24.99-6.8c0.56-0.17,1.16-0.16,1.71,0.05l35.42,12.99
				c0.47,0.17,0.47,0.84,0,1.01l-24.13,8.74C151.86,225.55,151.46,225.54,151.12,225.39z"/>
			<path class="st25" d="M164.1,209.76l-11.54-4.04c-0.21-0.07-0.21-0.37,0-0.44l7.77-2.67c0.19,0,0.37,0,0.56,0.01l11.15,4.09
				c0,0.16,0,0.16,0,0.32l-7.57,2.74C164.35,209.76,164.23,209.76,164.1,209.76z"/>
			<path class="st26" d="M151.88,227.68l-41.2-18.29c-0.74-0.33-1.31-0.95-1.59-1.71l-14.09-39.46c-0.23-0.65,0.38-1.28,1.04-1.06
				l40.98,13.56c0.9,0.3,1.6,1.01,1.89,1.91L153,226.68C153.22,227.36,152.53,227.97,151.88,227.68z"/>
			<path class="st27" d="M96.04,167.17l0.86,0.29c0.01,0.05,0,0.1,0.03,0.15c0,0,6.19,12.99,12.07,24.11
				c4.83,9.13,12.44,16.47,21.74,20.95l21.01,10.14l1.24,3.87c0.22,0.68-0.47,1.29-1.12,1l-41.2-18.29
				c-0.74-0.33-1.31-0.95-1.59-1.71l-14.09-39.46C94.78,167.58,95.39,166.95,96.04,167.17z"/>
		</g>
		<path class="st11" d="M195.91,185.93c0,0-12.44,8.37-14.6,8.94c-2.16,0.57-7.68,0.88-9.66,0.98c-1.99,0.1-7.99,6.53-9,9.72
			c-1.01,3.18-1.03,6.68-0.06,7.83c0.97,1.15,6.69,0.62,10.95-1.06c4.27-1.68,5.98-6.69,7.47-7.3c1.49-0.62,22.02-10.37,22.02-10.37
			L195.91,185.93z"/>
		<path class="st17" d="M216.1,166.72l-0.64-3.81c7.9,3.92,20.53-7.26,26.92,2.35c-0.01,0.02,0.57,2.49,0,4.96
			c-0.69,2.99-2.35,6.17-4.62,8.41c-1.6,1.59-4.42,2.97-5.46,3.48c-8.96,7.47-23.93,14.65-43.6,21.59
			c-3.36,1.4-8.84-10.51-7.86-11.72L216.1,166.72z"/>
		<path class="st11" d="M171.67,196.35c-1.28,0.27-2.66,0.5-3.97,0.65c-0.65,0.07-1.31,0.12-1.9,0.12
			c-0.54,0.04-1.25-0.16-1.06-0.03c-0.8-0.6-1.94-0.44-2.55,0.36c-0.6,0.8-0.44,1.94,0.36,2.55c1.41,0.9,2.18,0.8,3.03,0.95
			c0.82,0.08,1.58,0.09,2.35,0.08c1.52-0.03,2.96-0.12,4.48-0.3c1.22-0.14,2.1-1.24,1.96-2.46c-0.14-1.22-1.24-2.1-2.46-1.96
			C171.83,196.32,171.74,196.34,171.67,196.35z"/>
	</g>
</g>
</svg>
