<?xml version="1.0" encoding="utf-8"?>
<!-- Generator: Adobe Illustrator 24.2.2, SVG Export Plug-In . SVG Version: 6.00 Build 0)  -->
<svg version="1.1" xmlns="http://www.w3.org/2000/svg" xmlns:xlink="http://www.w3.org/1999/xlink" x="0px" y="0px"
	 viewBox="0 0 378.58 746.47" style="enable-background:new 0 0 378.58 746.47;" xml:space="preserve">
<style type="text/css">
	.st0{fill:url(#SVGID_1_);}
	.st1{fill:url(#SVGID_2_);}
	.st2{fill:#C7C7C7;}
	.st3{fill:url(#SVGID_3_);}
	.st4{fill:url(#SVGID_4_);}
	.st5{fill:url(#SVGID_5_);}
	.st6{fill:url(#SVGID_6_);}
	.st7{fill:#404040;}
	.st8{fill:url(#SVGID_7_);}
	.st9{fill:url(#SVGID_8_);}
	.st10{fill:url(#SVGID_9_);}
	.st11{fill:url(#SVGID_10_);}
	.st12{fill:url(#SVGID_11_);}
	.st13{fill:url(#SVGID_12_);}
	.st14{fill:url(#SVGID_15_);}
</style>
<g id="background">
</g>
<g id="shadow">
</g>
<g id="object">
	<g>
		<g>
			
				<linearGradient id="SVGID_1_" gradientUnits="userSpaceOnUse" x1="250.2065" y1="373.2772" x2="397.189" y2="373.2772" gradientTransform="matrix(-1 0 0 1 397.189 0)">
				<stop  offset="0" style="stop-color:#333333"/>
				<stop  offset="0.3653" style="stop-color:#848484"/>
				<stop  offset="0.6642" style="stop-color:#BFBFBF"/>
				<stop  offset="0.8836" style="stop-color:#E3E3E3"/>
				<stop  offset="1" style="stop-color:#F1F1F1"/>
			</linearGradient>
			<path class="st0" d="M0.3,56.12l0.83,7.81l98.58,633.49c3.9,25.07,22.51,42.26,42.86,41.24c0.27,0,0.54-0.01,0.81-0.02
				c0.27-0.01,0.54-0.01,0.81-0.02c0.26-0.01,0.54-0.02,0.81-0.02c0.26-0.01,0.54-0.02,0.8-0.02c0.27-0.01,0.54-0.01,0.81-0.03h0.37
				c-14.68-0.92-28.01-11.25-34.88-26.91c-0.41-0.93-0.8-1.89-1.16-2.86c0-0.01,0-0.01,0-0.01c-0.25-0.65-0.48-1.32-0.7-1.98
				c-0.99-3-1.76-6.16-2.27-9.46L8.33,56.98c-0.06-0.4-0.12-0.82-0.17-1.22c-0.26-1.86-0.42-3.69-0.49-5.49
				C6.73,26.57,21.14,8.59,41.89,8.3c0.4-0.02,0.82-0.04,1.23-0.05c0.4-0.02,0.82-0.02,1.23-0.03c0.4-0.02,0.82-0.03,1.23-0.04
				c0.4-0.02,0.82-0.02,1.23-0.03c0.4-0.02,0.82-0.03,1.23-0.04c0.26-0.02,0.54-0.02,0.81-0.03h0.42c0.14-0.02,0.29-0.02,0.44-0.02
				c0.37-0.05,0.72-0.09,1.09-0.12h0.05c0.35-0.03,0.7-0.06,1.05-0.08c-0.36,0-0.7,0.01-1.06,0.03c-0.41,0.01-0.82,0.02-1.23,0.04
				c-0.41,0.01-0.82,0.01-1.23,0.03c-0.4,0.01-0.8,0.02-1.21,0.04h-0.02c-0.41,0.01-0.82,0.02-1.23,0.04
				c-0.41,0-0.82,0.02-1.23,0.04c-0.41,0-0.82,0.02-1.23,0.03c-0.41,0.01-0.82,0.02-1.23,0.04c-0.41,0.01-0.82,0.02-1.23,0.04
				c-0.41,0-0.82,0.02-1.23,0.03c-0.41,0.01-0.82,0.02-1.23,0.05c-0.41,0-0.82,0.01-1.23,0.03h-0.3C13.52,11.35-2.4,30.78,0.3,56.12
				z"/>
			
				<linearGradient id="SVGID_2_" gradientUnits="userSpaceOnUse" x1="528.3051" y1="812.9444" x2="528.3051" y2="81.0248" gradientTransform="matrix(-0.9999 0.0137 0.0137 0.9999 715.5633 -82.2904)">
				<stop  offset="0" style="stop-color:#F1F1F1"/>
				<stop  offset="0.4294" style="stop-color:#EFEFEF"/>
				<stop  offset="0.6174" style="stop-color:#E8E8E8"/>
				<stop  offset="0.7583" style="stop-color:#DBDBDB"/>
				<stop  offset="0.8757" style="stop-color:#C9C9C9"/>
				<stop  offset="0.9774" style="stop-color:#B2B2B2"/>
				<stop  offset="1" style="stop-color:#ACACAC"/>
			</linearGradient>
			<path class="st1" d="M8.32,56.89l99.64,640.4c3.65,23.46,20.22,40.05,39.01,41.23c0.15,0,0.3,0,0.44-0.01
				c0.27-0.01,0.54-0.02,0.81-0.03c0.26-0.01,0.54-0.02,0.81-0.03c0.26,0,0.54-0.01,0.8-0.03c0.27,0,0.54-0.01,0.81-0.02
				c0.27-0.01,0.54-0.02,0.81-0.03c0.27-0.01,0.54-0.02,0.81-0.03c0.26,0,0.54-0.01,0.81-0.03c0.26,0,0.54-0.01,0.8-0.02
				c0.01,0.01,0.02,0.01,0.02,0c0.26-0.01,0.52-0.02,0.79-0.03c2.12-0.05,4.27-0.32,6.42-0.86l147.48-36.51l0.28-0.07l41.49-9.57
				c19.18-4.42,31.38-28.12,27.51-53L289.88,72.81l0-0.01l-0.01-0.01l-1.83-12.55c-2.1-14.39-8.89-27.36-17.81-35.86
				c-0.72-0.69-1.46-1.35-2.21-1.98c-0.5-0.42-1.01-0.83-1.52-1.22c-0.51-0.39-1.02-0.76-1.55-1.13c-1.82-1.27-3.7-2.35-5.62-3.24
				c-0.55-0.25-1.1-0.49-1.66-0.71c-3.05-1.2-6.2-1.9-9.36-2L56.07,7.78l-6.36,0.2c-0.15,0-0.3,0-0.44,0.01
				c-0.41,0-0.82,0.01-1.23,0.03c-0.41,0.01-0.82,0.02-1.23,0.04c-0.41,0.01-0.82,0.01-1.23,0.03c-0.41,0.01-0.82,0.02-1.23,0.04
				c-0.41,0.01-0.82,0.01-1.23,0.03c-0.41,0.01-0.82,0.02-1.23,0.04C19.22,8.52,4.13,29.95,8.32,56.89z"/>
			<g>
				<g>
					<g>
						<g>
							<path class="st2" d="M40.33,18.19c0.56-0.4,1.13-0.76,1.72-1.1C41.46,17.43,40.88,17.8,40.33,18.19z M43.32,16.41
								c-0.41,0.2-0.8,0.41-1.2,0.64c0.19-0.1,0.36-0.2,0.55-0.3C42.88,16.63,43.1,16.52,43.32,16.41z M48.56,14.47
								c-1.15,0.28-2.26,0.64-3.34,1.07c-0.24,0.1-0.48,0.21-0.72,0.31c1.48-0.66,3.04-1.17,4.66-1.52
								C48.97,14.38,48.77,14.42,48.56,14.47z M49.74,14.22c0.12-0.02,0.23-0.04,0.33-0.06c0.2-0.04,0.4-0.08,0.61-0.11
								c-0.51,0.08-1.01,0.18-1.51,0.29c0.03-0.01,0.06-0.01,0.09-0.02C49.42,14.28,49.58,14.25,49.74,14.22z M43.93,16.11
								c0.03-0.02,0.05-0.02,0.09-0.04c0.16-0.07,0.33-0.14,0.49-0.21c-0.4,0.17-0.79,0.35-1.18,0.54
								C43.52,16.3,43.72,16.21,43.93,16.11z M51.93,13.87c0.22-0.02,0.44-0.04,0.67-0.05c-0.41,0.04-0.82,0.07-1.21,0.13
								c-0.24,0.03-0.48,0.06-0.71,0.1c0.36-0.07,0.71-0.11,1.08-0.15C51.82,13.88,51.87,13.88,51.93,13.87z M349.75,684.74
								c-0.1,0.04-0.19,0.08-0.29,0.11c0.02-0.01,0.04-0.02,0.05-0.02C349.59,684.79,349.67,684.77,349.75,684.74z M350.04,684.6
								c-0.02,0.01-0.03,0.02-0.05,0.02c0.09-0.04,0.19-0.08,0.28-0.13C350.2,684.53,350.12,684.56,350.04,684.6z M350.41,684.43
								c-0.05,0.02-0.09,0.04-0.14,0.06c0.1-0.04,0.2-0.09,0.3-0.14C350.52,684.38,350.47,684.41,350.41,684.43z M355.64,681.09
								c-0.01,0-0.02,0.01-0.02,0.01c0.09-0.07,0.18-0.14,0.26-0.21C355.81,680.96,355.73,681.02,355.64,681.09z M357.54,679.37
								c-0.12,0.11-0.23,0.22-0.35,0.33c0.12-0.12,0.25-0.24,0.36-0.36C357.55,679.35,357.54,679.36,357.54,679.37z M365.92,665.98
								c-0.08,0.2-0.15,0.4-0.23,0.6c-0.05,0.13-0.11,0.26-0.16,0.38c0.08-0.21,0.17-0.42,0.25-0.64
								C365.83,666.21,365.88,666.09,365.92,665.98z M368.72,654.65c-0.01,0.06-0.02,0.13-0.03,0.2c0.03-0.21,0.06-0.44,0.08-0.65
								C368.76,654.34,368.74,654.5,368.72,654.65z M368.96,652.47c-0.01,0.04-0.01,0.07-0.01,0.1c0.01-0.05,0.01-0.09,0.01-0.14
								L368.96,652.47z M369.03,651.67c-0.01,0.03-0.01,0.05-0.01,0.09c0.03-0.26,0.04-0.54,0.06-0.81
								C369.06,651.19,369.05,651.43,369.03,651.67z M49.71,8.07c0.72-0.1,1.45-0.16,2.19-0.2c0.29-0.02,0.58-0.03,0.88-0.04
								c0.38-0.02,0.77-0.02,1.16-0.02c0.23,0,0.46,0,0.69,0.01l0.04,0l1.4,0.04l192.25,6.32c3.16,0.1,6.31,0.8,9.36,2.01
								c0.56,0.22,1.11,0.45,1.66,0.71c1.92,0.88,3.8,1.97,5.62,3.24c0.53,0.36,1.04,0.74,1.55,1.13c0.51,0.39,1.01,0.8,1.52,1.22
								c0.75,0.63,1.49,1.29,2.21,1.98c8.92,8.5,15.71,21.47,17.81,35.85l1.83,12.55l0.01,0.02l82.51,565.56
								c3.63,24.88-7.58,48.54-25.27,52.93l-38.25,9.47l-0.28,0.07l-147.48,36.51c-2.41,0.59-4.82,0.88-7.2,0.88
								c-0.01,0.01-0.02,0.01-0.02,0c-18.14-0.05-34.51-17.02-38.06-41.38L22.38,56.43C18.68,31.03,30.79,10.55,49.71,8.07z
								 M22.88,49.29l0.04,1.17c0.02,0.4,0.04,0.79,0.07,1.18c0.02,0.4,0.06,0.79,0.09,1.19c0.07,0.73,0.14,1.46,0.24,2.21
								c0.05,0.47,0.11,0.94,0.18,1.41l0.68,4.63l92.05,630.98c0.76,5.19,2.13,10.06,3.99,14.48c0.14,0.34,0.28,0.68,0.43,1.01
								c0.14,0.34,0.3,0.67,0.46,1c0.11,0.25,0.22,0.5,0.35,0.74c0.35,0.73,0.73,1.45,1.11,2.15c0.17,0.32,0.34,0.63,0.52,0.93
								c0.25,0.43,0.49,0.85,0.76,1.27c0.17,0.29,0.33,0.56,0.52,0.83c0.18,0.29,0.37,0.58,0.57,0.86c0.52,0.79,1.08,1.57,1.66,2.33
								c0.18,0.23,0.36,0.48,0.55,0.71c0.21,0.26,0.41,0.52,0.63,0.78c0.21,0.25,0.42,0.51,0.64,0.76c0.21,0.25,0.43,0.5,0.66,0.74
								c0.22,0.25,0.44,0.49,0.68,0.73c0.44,0.48,0.91,0.94,1.38,1.38c0.72,0.68,1.45,1.34,2.21,1.97c0.23,0.18,0.46,0.37,0.68,0.54
								c0.52,0.41,1.05,0.8,1.58,1.18c0.23,0.16,0.46,0.32,0.7,0.47c0.77,0.52,1.56,1,2.35,1.44c0.27,0.16,0.53,0.3,0.81,0.44
								c0.53,0.29,1.08,0.55,1.62,0.8c0.28,0.13,0.54,0.25,0.81,0.35c0.88,0.38,1.77,0.71,2.67,0.98c0.24,0.09,0.48,0.16,0.71,0.22
								c0.28,0.09,0.56,0.16,0.85,0.24c0.28,0.07,0.57,0.14,0.86,0.21c0.64,0.15,1.28,0.28,1.93,0.38c0.23,0.04,0.45,0.06,0.69,0.09
								c0.84,0.12,1.7,0.19,2.56,0.23c0.3,0.01,0.6,0.02,0.9,0.03c0.31,0.01,0.63,0.01,0.95-0.01c0.59-0.01,1.17-0.04,1.77-0.09
								l0.02,0c0.12-0.01,0.23-0.02,0.34-0.04c0.05-0.01,0.1-0.01,0.16-0.02l0.01,0c0.03-0.01,0.05-0.01,0.08-0.02
								c0.02,0,0.03,0,0.05-0.01c-0.15,0.01-0.3,0.03-0.45,0.04c-0.04,0-0.08,0-0.12,0.01c-0.27,0.02-0.54,0.04-0.82,0.04
								c-0.09,0.02-0.17,0.02-0.26,0.01l-0.4,0.01c-0.22,0-0.44,0.01-0.65,0c-0.13-0.01-0.26,0-0.38-0.01c-0.04,0-0.08,0-0.12-0.01
								c-0.11,0-0.22,0-0.33,0c-0.02,0-0.05,0-0.08-0.01c-0.11,0-0.21,0-0.32-0.02c-0.1-0.01-0.21-0.01-0.32-0.02l-0.03,0
								c-0.01-0.01-0.02-0.01-0.02-0.01c-0.08-0.01-0.16-0.01-0.24-0.02c-0.16-0.01-0.31-0.02-0.47-0.04
								c-0.26-0.02-0.52-0.05-0.78-0.09c-0.2-0.03-0.41-0.06-0.61-0.09c-0.13-0.02-0.27-0.04-0.4-0.06
								c-0.09-0.01-0.16-0.03-0.24-0.04c-0.08-0.01-0.16-0.03-0.23-0.04c-0.05-0.01-0.1-0.01-0.15-0.03
								c-0.12-0.01-0.23-0.04-0.34-0.07c-0.05-0.01-0.09-0.01-0.14-0.03c-0.03-0.01-0.07-0.01-0.1-0.02
								c-0.67-0.15-1.33-0.32-1.98-0.52c-0.07-0.01-0.13-0.04-0.2-0.06c-0.04-0.01-0.09-0.02-0.12-0.04
								c-0.14-0.04-0.28-0.09-0.42-0.14c-0.05-0.01-0.11-0.04-0.16-0.05c-0.24-0.08-0.48-0.16-0.71-0.25
								c-0.45-0.17-0.88-0.35-1.33-0.53c-0.02-0.02-0.06-0.02-0.08-0.03c-0.46-0.21-0.91-0.42-1.36-0.64
								c-0.43-0.21-0.86-0.45-1.29-0.68c-0.03-0.01-0.06-0.02-0.09-0.05c-0.01-0.02-0.02-0.02-0.04-0.03
								c-0.7-0.4-1.39-0.82-2.07-1.28c-0.09-0.05-0.18-0.11-0.27-0.18c-0.04-0.02-0.08-0.05-0.11-0.08
								c-0.05-0.03-0.09-0.07-0.15-0.1c-0.05-0.04-0.1-0.08-0.15-0.11c-0.31-0.22-0.63-0.45-0.94-0.69
								c-0.31-0.24-0.62-0.48-0.93-0.73c-1.52-1.25-2.97-2.64-4.32-4.17c-0.09-0.1-0.19-0.22-0.28-0.32
								c-0.1-0.12-0.19-0.22-0.29-0.34c-0.74-0.88-1.46-1.79-2.14-2.76c-0.45-0.64-0.89-1.3-1.32-1.97
								c-0.16-0.25-0.31-0.5-0.47-0.76c-0.06-0.09-0.11-0.18-0.16-0.27c-0.18-0.31-0.37-0.63-0.55-0.94
								c-0.07-0.12-0.14-0.25-0.21-0.37c-0.07-0.14-0.15-0.28-0.23-0.42c-0.06-0.12-0.14-0.26-0.2-0.38
								c-0.13-0.22-0.25-0.46-0.36-0.7c-0.04-0.07-0.07-0.15-0.1-0.22c-0.08-0.16-0.16-0.33-0.24-0.49
								c-0.14-0.26-0.27-0.54-0.39-0.82c-0.02-0.03-0.03-0.06-0.05-0.1c-0.12-0.28-0.25-0.56-0.37-0.84
								c-0.13-0.29-0.26-0.6-0.39-0.9c-0.12-0.3-0.25-0.61-0.37-0.92c-0.12-0.3-0.23-0.61-0.35-0.92c-0.06-0.15-0.11-0.31-0.17-0.46
								c-0.06-0.15-0.11-0.32-0.17-0.48c-0.07-0.2-0.14-0.4-0.21-0.61c-0.07-0.23-0.15-0.47-0.23-0.71
								c-0.09-0.26-0.17-0.53-0.24-0.81c-0.02-0.04-0.03-0.08-0.04-0.12c-0.12-0.4-0.24-0.81-0.34-1.22
								c-0.14-0.53-0.28-1.06-0.4-1.6c-0.01-0.01-0.01-0.01-0.01-0.02c-0.12-0.53-0.24-1.06-0.36-1.6
								c-0.09-0.44-0.18-0.88-0.26-1.33c-0.03-0.12-0.05-0.26-0.07-0.38c-0.09-0.54-0.19-1.08-0.26-1.62L27.2,56.5
								c-0.17-1.22-0.31-2.43-0.41-3.63c-0.24-3.04-0.23-5.98,0.04-8.8c0-0.04,0-0.07,0.01-0.1c0.03-0.32,0.07-0.64,0.1-0.96
								c0.03-0.21,0.05-0.42,0.08-0.63c0.08-0.57,0.16-1.13,0.25-1.68c0.09-0.54,0.2-1.08,0.3-1.61c0.06-0.27,0.12-0.54,0.18-0.8
								c0.06-0.27,0.13-0.53,0.18-0.8c0.01-0.08,0.03-0.15,0.05-0.22c0.04-0.19,0.1-0.37,0.15-0.56c0-0.02,0-0.03,0.01-0.04
								c0.04-0.14,0.08-0.29,0.12-0.43c0.02-0.1,0.05-0.2,0.09-0.3c0.07-0.26,0.15-0.51,0.23-0.77c0.23-0.76,0.49-1.5,0.76-2.23
								c0.09-0.23,0.18-0.46,0.26-0.69c0.05-0.11,0.09-0.22,0.14-0.33c0.05-0.14,0.11-0.28,0.17-0.41c0-0.01,0.01-0.02,0.01-0.02
								c0.1-0.23,0.2-0.46,0.3-0.69c0.2-0.45,0.41-0.9,0.63-1.34c0.11-0.24,0.24-0.46,0.36-0.7c0.12-0.22,0.24-0.44,0.36-0.65
								c0.06-0.12,0.12-0.24,0.19-0.35c0.12-0.22,0.25-0.43,0.38-0.65l0.27-0.45c0.08-0.13,0.17-0.26,0.25-0.39
								c0.03-0.05,0.06-0.1,0.1-0.16c0.11-0.17,0.23-0.35,0.34-0.51c0.02-0.04,0.05-0.08,0.08-0.12c0.21-0.3,0.42-0.6,0.63-0.89
								c0.08-0.11,0.16-0.22,0.24-0.32c0.05-0.07,0.11-0.14,0.17-0.21c0.08-0.11,0.16-0.21,0.25-0.31c0.12-0.16,0.24-0.31,0.37-0.46
								c0.09-0.12,0.19-0.23,0.29-0.35c0.15-0.18,0.31-0.37,0.48-0.54c0.09-0.1,0.18-0.2,0.27-0.29c0.1-0.12,0.21-0.24,0.32-0.35
								c0.13-0.14,0.26-0.28,0.39-0.4c0.12-0.13,0.25-0.25,0.37-0.37c0.05-0.04,0.09-0.09,0.14-0.13c0.13-0.13,0.26-0.25,0.4-0.38
								c0.15-0.13,0.3-0.28,0.45-0.41c0.06-0.06,0.13-0.11,0.19-0.17c0.15-0.13,0.28-0.25,0.43-0.36c0.03-0.02,0.06-0.05,0.09-0.07
								c0.18-0.16,0.37-0.31,0.56-0.45c0.35-0.27,0.69-0.52,1.06-0.78c0.02-0.02,0.05-0.03,0.07-0.05c0.56-0.4,1.13-0.76,1.72-1.1
								c0.02-0.01,0.03-0.02,0.05-0.02c0.02-0.01,0.02-0.01,0.03-0.02c0.19-0.1,0.36-0.2,0.55-0.3c0.21-0.12,0.43-0.23,0.65-0.34
								c0,0,0,0,0.01-0.01c0.19-0.1,0.39-0.19,0.6-0.29c0.03-0.02,0.05-0.02,0.09-0.04c0.16-0.07,0.33-0.14,0.49-0.21
								c1.48-0.66,3.04-1.17,4.66-1.52c0.03-0.01,0.06-0.01,0.09-0.02c0.15-0.04,0.32-0.07,0.47-0.1c0.12-0.02,0.23-0.04,0.33-0.06
								c0.2-0.04,0.4-0.08,0.61-0.11c0.36-0.07,0.71-0.11,1.08-0.15c0.06-0.01,0.12-0.01,0.18-0.02c0.22-0.02,0.44-0.04,0.67-0.05
								c0.14-0.01,0.27-0.02,0.41-0.03c0.25-0.01,0.51-0.02,0.75-0.03l0.01,0c0.58-0.02,1.16-0.02,1.75,0l193.59,5.93
								c0.51,0.02,1.02,0.05,1.52,0.1l0.02,0c0.24,0.03,0.49,0.06,0.73,0.08c15.34,2.03,29.66,19.54,32.7,40.39l84.48,579.05
								c0.53,3.62,0.7,7.22,0.54,10.71c0,0.02-0.01,0.05-0.01,0.08c-0.01,0.28-0.02,0.56-0.04,0.83c-0.01,0.24-0.02,0.48-0.04,0.72
								c-0.01,0.03-0.01,0.05-0.01,0.09c-0.01,0.23-0.03,0.45-0.05,0.68l0,0.04c-0.01,0.04-0.01,0.07-0.01,0.1
								c0,0.05-0.01,0.1-0.01,0.15c-0.01,0.17-0.03,0.34-0.05,0.51c-0.01,0.05-0.01,0.1-0.01,0.15c0,0.02-0.01,0.04-0.01,0.05
								c-0.03,0.26-0.06,0.51-0.09,0.76c-0.01,0.15-0.03,0.3-0.05,0.45c-0.01,0.06-0.02,0.13-0.03,0.2
								c-0.04,0.25-0.07,0.49-0.11,0.73c0,0.02,0,0.03-0.01,0.05c-0.04,0.25-0.07,0.49-0.11,0.73c-0.06,0.39-0.13,0.78-0.2,1.16
								c-0.03,0.15-0.05,0.29-0.08,0.43c-0.01,0.07-0.03,0.14-0.04,0.21c-0.04,0.18-0.07,0.37-0.11,0.55
								c-0.01,0.08-0.03,0.16-0.05,0.23c-0.05,0.26-0.11,0.52-0.17,0.77c-0.03,0.15-0.07,0.3-0.1,0.45
								c-0.06,0.25-0.13,0.5-0.18,0.74c-0.03,0.11-0.06,0.22-0.09,0.33c-0.04,0.14-0.07,0.27-0.1,0.41
								c-0.02,0.05-0.03,0.09-0.04,0.14c-0.01,0.07-0.04,0.13-0.05,0.2c-0.04,0.16-0.09,0.31-0.13,0.46
								c-0.06,0.21-0.13,0.43-0.19,0.64c-0.26,0.86-0.54,1.71-0.85,2.54c-0.05,0.13-0.09,0.24-0.14,0.36
								c-0.08,0.2-0.15,0.4-0.23,0.6c-0.05,0.13-0.11,0.26-0.16,0.38c-1.32,3.26-2.97,6.23-4.9,8.82c-0.13,0.18-0.27,0.35-0.4,0.53
								c-0.57,0.73-1.15,1.42-1.76,2.09c-0.03,0.04-0.06,0.07-0.09,0.1c-0.04,0.04-0.07,0.07-0.11,0.11
								c-0.08,0.08-0.15,0.16-0.22,0.24c-0.13,0.14-0.27,0.28-0.41,0.42c-0.03,0.02-0.06,0.06-0.09,0.09
								c-0.01,0.01-0.02,0.02-0.02,0.02c-0.12,0.11-0.23,0.22-0.35,0.33c-0.31,0.3-0.63,0.59-0.95,0.88
								c-0.04,0.03-0.08,0.06-0.12,0.1c-0.08,0.06-0.16,0.13-0.25,0.21c-0.08,0.07-0.15,0.13-0.24,0.21c-0.01,0-0.02,0.01-0.02,0.01
								c-0.12,0.09-0.23,0.19-0.35,0.28c-0.32,0.26-0.65,0.51-0.99,0.76c-0.06,0.05-0.12,0.09-0.18,0.13
								c-0.28,0.2-0.56,0.39-0.84,0.57c-0.07,0.05-0.14,0.09-0.21,0.14c-0.28,0.17-0.56,0.34-0.84,0.51
								c-0.08,0.04-0.15,0.09-0.22,0.13c-0.04,0.02-0.08,0.04-0.12,0.06c-0.42,0.24-0.85,0.46-1.29,0.67
								c-0.05,0.03-0.11,0.06-0.16,0.08c-0.05,0.02-0.09,0.04-0.14,0.06c-0.08,0.04-0.15,0.07-0.23,0.11
								c-0.02,0.01-0.03,0.02-0.05,0.02c-0.15,0.07-0.32,0.14-0.48,0.21c0.08-0.03,0.15-0.06,0.23-0.09
								c0.09-0.03,0.19-0.06,0.28-0.11l0.02-0.01c0.49-0.21,0.96-0.43,1.42-0.67c2.84-1.43,5.46-3.41,7.78-5.82
								c0.17-0.17,0.33-0.35,0.49-0.51c0.41-0.46,0.82-0.91,1.22-1.39c0.18-0.22,0.35-0.44,0.53-0.66c0.9-1.13,1.73-2.32,2.51-3.58
								c0.14-0.23,0.28-0.46,0.42-0.69c0.42-0.69,0.81-1.39,1.19-2.11c0.12-0.24,0.24-0.48,0.36-0.72c0.14-0.27,0.27-0.56,0.41-0.84
								c0.13-0.28,0.26-0.56,0.39-0.85c0.09-0.19,0.17-0.38,0.26-0.57c0.11-0.23,0.21-0.48,0.31-0.72c0.6-1.45,1.14-2.94,1.63-4.47
								c0.09-0.27,0.16-0.55,0.25-0.83c0.26-0.85,0.49-1.73,0.7-2.61c0.08-0.31,0.15-0.63,0.22-0.95c0.54-2.38,0.92-4.83,1.16-7.34
								c0.03-0.34,0.06-0.68,0.09-1.02c0.12-1.73,0.19-3.47,0.17-5.23c0-0.35,0-0.71-0.01-1.06c-0.07-2.47-0.27-4.98-0.64-7.51
								L287.75,64.49l0-0.02l-0.61-4.16c-0.07-0.43-0.14-0.86-0.21-1.29c-0.04-0.33-0.1-0.64-0.16-0.96
								c-0.13-0.71-0.27-1.4-0.42-2.1c-0.08-0.36-0.17-0.72-0.25-1.07c-0.04-0.19-0.09-0.38-0.13-0.57
								c-0.05-0.23-0.11-0.45-0.17-0.68c-0.09-0.36-0.19-0.72-0.29-1.09c-0.17-0.63-0.35-1.25-0.55-1.86
								c-0.09-0.31-0.19-0.61-0.29-0.91c-0.29-0.91-0.6-1.81-0.94-2.7c-0.11-0.28-0.22-0.57-0.32-0.84
								c-0.14-0.34-0.27-0.69-0.41-1.02c-0.11-0.29-0.23-0.56-0.35-0.84c-0.1-0.24-0.19-0.46-0.3-0.7
								c-0.12-0.27-0.25-0.55-0.37-0.82c-0.1-0.22-0.19-0.42-0.29-0.62c-0.14-0.3-0.28-0.6-0.44-0.9c-0.25-0.52-0.51-1.04-0.79-1.56
								c-0.14-0.26-0.27-0.53-0.42-0.79c-0.16-0.3-0.33-0.6-0.5-0.9c-1.18-2.09-2.48-4.08-3.86-5.95c-0.19-0.27-0.39-0.53-0.59-0.79
								c-0.22-0.29-0.45-0.59-0.69-0.89c-0.39-0.48-0.77-0.95-1.16-1.4c-0.43-0.49-0.85-0.98-1.29-1.45
								c-0.44-0.47-0.88-0.93-1.33-1.37c-0.22-0.23-0.45-0.45-0.68-0.67c-0.45-0.43-0.91-0.85-1.38-1.27
								c-0.46-0.41-0.93-0.8-1.41-1.19c-0.48-0.38-0.96-0.76-1.44-1.12c-0.24-0.18-0.49-0.36-0.74-0.53
								c-0.24-0.18-0.49-0.34-0.73-0.5c-0.25-0.17-0.5-0.34-0.75-0.5c-0.24-0.16-0.49-0.32-0.75-0.47c-0.49-0.3-1-0.59-1.52-0.87
								c-0.24-0.13-0.49-0.27-0.73-0.39c-0.02-0.02-0.05-0.03-0.07-0.04c-0.24-0.13-0.49-0.24-0.74-0.37
								c-0.24-0.11-0.49-0.23-0.73-0.34c-0.27-0.12-0.56-0.24-0.84-0.35c-0.26-0.11-0.52-0.21-0.78-0.31
								c-0.27-0.11-0.53-0.2-0.8-0.29c-0.27-0.1-0.53-0.19-0.8-0.27c-0.54-0.18-1.07-0.34-1.61-0.47c-0.27-0.07-0.53-0.13-0.8-0.19
								c-0.58-0.13-1.16-0.24-1.73-0.33c-0.46-0.07-0.92-0.13-1.38-0.18c-0.27-0.02-0.56-0.05-0.84-0.07
								c-0.28-0.02-0.56-0.03-0.84-0.04L54.87,9.2c-0.33-0.01-0.65-0.01-0.97-0.02l-0.81,0.01c-0.61,0.02-1.21,0.06-1.81,0.11
								l-0.02,0c-0.3,0.02-0.61,0.06-0.9,0.1c-0.3,0.04-0.61,0.08-0.9,0.12c-0.3,0.04-0.59,0.1-0.89,0.15
								c-0.29,0.06-0.58,0.12-0.88,0.18l-0.01,0c-0.3,0.07-0.57,0.14-0.86,0.21c-0.27,0.07-0.53,0.14-0.78,0.21
								c-0.06,0.02-0.12,0.03-0.17,0.05c-0.24,0.07-0.49,0.15-0.73,0.24c-0.34,0.11-0.67,0.22-1.01,0.35
								c-0.22,0.09-0.46,0.17-0.67,0.27c-0.5,0.2-0.99,0.41-1.49,0.64c-0.33,0.14-0.66,0.31-0.97,0.48
								c-0.24,0.12-0.46,0.26-0.7,0.38c-0.26,0.14-0.5,0.29-0.76,0.44c-0.25,0.15-0.49,0.31-0.74,0.46c-1.77,1.13-3.4,2.47-4.9,3.99
								c-0.18,0.17-0.37,0.36-0.54,0.56c-0.67,0.69-1.29,1.42-1.89,2.18c-0.27,0.33-0.53,0.68-0.77,1.03
								c-1.04,1.41-1.98,2.93-2.81,4.54c-0.16,0.29-0.3,0.57-0.44,0.86c-0.3,0.6-0.58,1.21-0.85,1.83
								c-0.14,0.31-0.27,0.63-0.39,0.95c-0.23,0.54-0.44,1.1-0.63,1.65c-0.1,0.28-0.19,0.57-0.29,0.85
								c-0.17,0.54-0.34,1.08-0.5,1.63c-0.08,0.27-0.16,0.53-0.22,0.81c-0.25,0.92-0.47,1.86-0.67,2.82
								c-0.05,0.25-0.1,0.5-0.15,0.76c-0.18,0.95-0.33,1.93-0.46,2.91c-0.05,0.37-0.09,0.73-0.12,1.1
								c-0.23,2.12-0.32,4.29-0.29,6.52C22.86,48.8,22.86,49.04,22.88,49.29z"/>
							<g>
								
									<linearGradient id="SVGID_3_" gradientUnits="userSpaceOnUse" x1="732.9104" y1="934.4507" x2="736.6433" y2="934.4507" gradientTransform="matrix(-0.9899 0.1414 0.1414 0.9899 923.3646 -680.5731)">
									<stop  offset="0" style="stop-color:#666666"/>
									<stop  offset="0.0575" style="stop-color:#727272"/>
									<stop  offset="0.3311" style="stop-color:#A8A8A8"/>
									<stop  offset="0.5675" style="stop-color:#D0D0D0"/>
									<stop  offset="0.7551" style="stop-color:#E8E8E8"/>
									<stop  offset="0.8704" style="stop-color:#F1F1F1"/>
									<stop  offset="0.9471" style="stop-color:#F7F7F7"/>
									<stop  offset="1" style="stop-color:#FFFFFF"/>
								</linearGradient>
								<path class="st3" d="M349.29,684.92c0.25-0.1,0.49-0.19,0.74-0.29l0.02,0c0.48-0.21,0.96-0.43,1.42-0.66
									c2.84-1.43,5.45-3.41,7.78-5.82c0.17-0.17,0.32-0.34,0.49-0.51c0.41-0.46,0.82-0.91,1.21-1.39
									c0.18-0.22,0.36-0.44,0.53-0.66c0.89-1.12,1.73-2.32,2.51-3.58c0.14-0.23,0.28-0.45,0.42-0.68c0.41-0.69,0.81-1.4,1.19-2.11
									c0.12-0.24,0.25-0.48,0.36-0.72c0.14-0.28,0.28-0.55,0.41-0.84c0.13-0.28,0.26-0.57,0.39-0.85
									c0.09-0.19,0.17-0.37,0.25-0.56c0.1-0.24,0.21-0.48,0.31-0.73c0.6-1.45,1.15-2.94,1.63-4.48c0.09-0.27,0.17-0.55,0.25-0.82
									c0.26-0.86,0.49-1.73,0.7-2.61c0.08-0.31,0.16-0.63,0.22-0.95c0.53-2.38,0.92-4.83,1.15-7.34c0.03-0.35,0.06-0.68,0.09-1.02
									c0.13-1.73,0.19-3.47,0.18-5.23c0-0.35-0.01-0.71-0.02-1.06c-0.06-2.47-0.27-4.99-0.64-7.51L287.74,64.5
									c-3.42-23.46-19.77-43.09-37.08-44.7c15.62,1.56,30.35,19.29,33.44,40.47l84.48,579.05
									C371.56,659.78,363.1,679.34,349.29,684.92z"/>
								
									<linearGradient id="SVGID_4_" gradientUnits="userSpaceOnUse" x1="991.4393" y1="927.1921" x2="995.7368" y2="927.1921" gradientTransform="matrix(-0.9899 0.1414 0.1414 0.9899 923.3646 -680.5731)">
									<stop  offset="0" style="stop-color:#FFFFFF"/>
									<stop  offset="0.0529" style="stop-color:#F7F7F7"/>
									<stop  offset="0.1296" style="stop-color:#F1F1F1"/>
									<stop  offset="0.2449" style="stop-color:#E8E8E8"/>
									<stop  offset="0.4325" style="stop-color:#D0D0D0"/>
									<stop  offset="0.6689" style="stop-color:#A8A8A8"/>
									<stop  offset="0.9425" style="stop-color:#727272"/>
									<stop  offset="1" style="stop-color:#666666"/>
								</linearGradient>
								<path class="st4" d="M24.17,61.08l92.05,630.97c0.76,5.19,2.13,10.06,3.99,14.48c0.14,0.34,0.28,0.68,0.44,1.01
									c0.15,0.34,0.3,0.67,0.46,0.99c0.11,0.25,0.23,0.5,0.35,0.74c0.36,0.73,0.73,1.45,1.11,2.15c0.17,0.31,0.34,0.63,0.52,0.93
									c0.25,0.43,0.49,0.85,0.75,1.27c0.17,0.29,0.34,0.56,0.52,0.83c0.18,0.29,0.37,0.58,0.57,0.87
									c0.53,0.79,1.08,1.57,1.66,2.32c0.18,0.23,0.36,0.48,0.55,0.71c0.21,0.27,0.42,0.52,0.64,0.78
									c0.21,0.27,0.43,0.52,0.64,0.76c0.22,0.25,0.44,0.5,0.66,0.74c0.22,0.24,0.45,0.49,0.68,0.73c0.45,0.47,0.91,0.94,1.38,1.38
									c0.72,0.69,1.45,1.34,2.21,1.97c0.22,0.18,0.45,0.36,0.68,0.54c0.52,0.41,1.05,0.8,1.58,1.18c0.23,0.15,0.46,0.31,0.7,0.47
									c0.77,0.52,1.56,1,2.36,1.44c0.26,0.15,0.53,0.29,0.8,0.43c0.54,0.29,1.08,0.55,1.63,0.8c0.27,0.13,0.54,0.25,0.81,0.36
									c0.88,0.38,1.77,0.71,2.67,0.99c0.24,0.08,0.47,0.15,0.71,0.22c0.28,0.09,0.56,0.17,0.85,0.24
									c0.29,0.07,0.57,0.15,0.86,0.21c0.64,0.15,1.28,0.28,1.93,0.37c0.23,0.04,0.45,0.07,0.68,0.1c0.84,0.12,1.7,0.19,2.56,0.23
									c0.3,0.01,0.6,0.02,0.9,0.03c0.31,0.01,0.63,0.01,0.95-0.01c0.59-0.01,1.18-0.04,1.77-0.09l0.02-0.01
									c0.3-0.03,0.6-0.06,0.9-0.1c-17.02,1.77-32.94-13.66-36.24-36.25L27.2,56.5c-3.35-22.99,8.1-41.47,25.64-42.7
									C33.28,14.97,20.44,35.5,24.17,61.08z"/>
								
									<linearGradient id="SVGID_5_" gradientUnits="userSpaceOnUse" x1="863.0389" y1="1294.7899" x2="863.0389" y2="1237.9099" gradientTransform="matrix(-0.9899 0.1414 0.1414 0.9899 923.3646 -680.5731)">
									<stop  offset="0" style="stop-color:#F1F1F1"/>
									<stop  offset="0.1164" style="stop-color:#E3E3E3"/>
									<stop  offset="0.3358" style="stop-color:#BFBFBF"/>
									<stop  offset="0.6347" style="stop-color:#848484"/>
									<stop  offset="1" style="stop-color:#333333"/>
								</linearGradient>
								<path class="st5" d="M116.22,692.05l0.68,4.63c3.9,26.74,23.77,44.37,44.01,39.37l186.02-45.94
									c17.18-4.24,28.1-27.3,24.58-51.46l-0.61-4.18c0.37,2.53,0.58,5.04,0.64,7.51c0.01,0.35,0.01,0.71,0.02,1.06
									c0.01,1.76-0.05,3.5-0.18,5.23c-0.02,0.34-0.05,0.68-0.09,1.02c-0.23,2.5-0.62,4.96-1.15,7.34
									c-0.07,0.32-0.14,0.64-0.22,0.95c-0.21,0.88-0.44,1.75-0.7,2.61c-0.08,0.27-0.16,0.55-0.25,0.82
									c-0.48,1.54-1.02,3.03-1.63,4.48c-0.1,0.24-0.2,0.48-0.31,0.73c-0.08,0.19-0.16,0.38-0.25,0.56
									c-0.13,0.28-0.26,0.57-0.39,0.85c-0.14,0.28-0.27,0.56-0.41,0.84c-0.12,0.25-0.24,0.48-0.36,0.72
									c-0.38,0.72-0.77,1.42-1.19,2.11c-0.14,0.23-0.28,0.46-0.42,0.68c-0.78,1.26-1.62,2.46-2.51,3.58
									c-0.18,0.23-0.35,0.44-0.53,0.66c-0.4,0.48-0.8,0.94-1.21,1.39c-0.17,0.17-0.32,0.34-0.49,0.51
									c-2.33,2.42-4.94,4.39-7.78,5.82c-0.47,0.24-0.94,0.46-1.42,0.66l-0.02,0c-0.49,0.21-0.98,0.4-1.48,0.57
									c-0.25,0.09-0.51,0.18-0.77,0.26c-0.48,0.15-0.97,0.29-1.47,0.41l-186.07,45.62c-0.57,0.14-1.14,0.26-1.71,0.36
									c-0.3,0.06-0.61,0.1-0.92,0.15c-0.49,0.07-0.97,0.13-1.45,0.18c-0.11,0.02-0.23,0.03-0.34,0.04l-0.02,0.01
									c-0.59,0.05-1.18,0.08-1.77,0.09c-0.32,0.01-0.64,0.01-0.95,0.01c-0.3,0-0.6-0.01-0.9-0.03c-0.86-0.04-1.72-0.11-2.56-0.23
									c-0.23-0.03-0.46-0.06-0.68-0.1c-0.65-0.1-1.29-0.23-1.93-0.37c-0.29-0.06-0.57-0.14-0.86-0.21
									c-0.29-0.07-0.57-0.15-0.85-0.24c-0.24-0.07-0.47-0.13-0.71-0.22c-0.9-0.28-1.79-0.61-2.67-0.99
									c-0.27-0.11-0.54-0.22-0.81-0.36c-0.55-0.25-1.09-0.51-1.63-0.8c-0.27-0.14-0.54-0.28-0.8-0.43
									c-0.8-0.45-1.58-0.92-2.36-1.44c-0.23-0.15-0.47-0.32-0.7-0.47c-0.53-0.39-1.06-0.77-1.58-1.18
									c-0.23-0.17-0.46-0.36-0.68-0.54c-0.76-0.63-1.49-1.28-2.21-1.97c-0.47-0.44-0.93-0.9-1.38-1.38
									c-0.23-0.24-0.46-0.48-0.68-0.73c-0.23-0.24-0.45-0.49-0.66-0.74c-0.22-0.25-0.44-0.51-0.64-0.76
									c-0.22-0.25-0.43-0.51-0.64-0.78c-0.19-0.23-0.37-0.48-0.55-0.71c-0.57-0.75-1.13-1.53-1.66-2.32
									c-0.2-0.29-0.39-0.58-0.57-0.87c-0.18-0.27-0.35-0.55-0.52-0.83c-0.26-0.42-0.51-0.84-0.75-1.27
									c-0.18-0.3-0.36-0.61-0.52-0.93c-0.38-0.7-0.75-1.42-1.11-2.15c-0.12-0.24-0.24-0.49-0.35-0.74
									c-0.16-0.33-0.31-0.65-0.46-0.99c-0.15-0.33-0.3-0.67-0.44-1.01C118.35,702.11,116.98,697.24,116.22,692.05z"/>
							</g>
							
								<linearGradient id="SVGID_6_" gradientUnits="userSpaceOnUse" x1="864.8648" y1="626.9962" x2="864.8648" y2="538.8704" gradientTransform="matrix(-0.9899 0.1414 0.1414 0.9899 923.3646 -680.5731)">
								<stop  offset="0" style="stop-color:#333333"/>
								<stop  offset="0.0736" style="stop-color:#4C4C4C"/>
								<stop  offset="0.2508" style="stop-color:#828282"/>
								<stop  offset="0.4239" style="stop-color:#AFAFAF"/>
								<stop  offset="0.5891" style="stop-color:#D2D2D2"/>
								<stop  offset="0.7442" style="stop-color:#EBEBEB"/>
								<stop  offset="0.8854" style="stop-color:#FAFAFA"/>
								<stop  offset="1" style="stop-color:#FFFFFF"/>
							</linearGradient>
							<path class="st6" d="M23.5,56.45l0.68,4.63C20.5,35.9,32.88,15.6,51.93,13.88c0.3-0.03,0.61-0.05,0.91-0.07
								c0.31-0.02,0.62-0.04,0.93-0.04l0.01,0c0.58-0.02,1.16-0.02,1.75,0l193.59,5.94c0.51,0.02,1.02,0.05,1.52,0.1l0.02,0
								c17.31,1.61,33.66,21.23,37.08,44.7l-0.61-4.18c-0.06-0.44-0.13-0.86-0.21-1.29c-0.05-0.33-0.11-0.64-0.16-0.96
								c-0.13-0.7-0.26-1.4-0.42-2.09c-0.08-0.36-0.16-0.72-0.24-1.07c-0.05-0.19-0.09-0.38-0.14-0.57
								c-0.05-0.23-0.11-0.45-0.17-0.69c-0.09-0.36-0.18-0.72-0.28-1.08c-0.17-0.63-0.35-1.25-0.54-1.86
								c-0.09-0.31-0.19-0.61-0.29-0.92c-0.29-0.92-0.6-1.81-0.94-2.7c-0.11-0.28-0.22-0.56-0.32-0.84
								c-0.14-0.35-0.27-0.69-0.41-1.03c-0.11-0.29-0.23-0.56-0.35-0.84c-0.1-0.24-0.19-0.46-0.3-0.69
								c-0.12-0.28-0.24-0.56-0.37-0.83c-0.1-0.21-0.19-0.41-0.29-0.62c-0.14-0.3-0.28-0.6-0.43-0.9c-0.25-0.52-0.52-1.05-0.79-1.56
								c-0.14-0.26-0.28-0.52-0.42-0.79c-0.16-0.3-0.33-0.61-0.5-0.91c-1.19-2.09-2.48-4.08-3.86-5.95c-0.2-0.26-0.39-0.53-0.6-0.79
								c-0.23-0.29-0.45-0.59-0.69-0.88c-0.39-0.48-0.77-0.95-1.17-1.4c-0.43-0.5-0.86-0.98-1.29-1.45
								c-0.44-0.46-0.88-0.93-1.33-1.38c-0.22-0.22-0.45-0.44-0.68-0.66c-0.45-0.43-0.91-0.86-1.38-1.27
								c-0.46-0.41-0.93-0.81-1.41-1.2c-0.48-0.38-0.96-0.76-1.44-1.12c-0.24-0.18-0.49-0.36-0.73-0.53
								c-0.25-0.18-0.49-0.34-0.74-0.51c-0.25-0.17-0.5-0.33-0.75-0.49c-0.25-0.16-0.5-0.32-0.76-0.48c-0.5-0.3-1.01-0.59-1.52-0.87
								c-0.24-0.13-0.49-0.27-0.73-0.39c-0.02-0.02-0.05-0.03-0.07-0.04c-0.25-0.13-0.5-0.24-0.74-0.37
								c-0.24-0.11-0.49-0.23-0.73-0.34c-0.28-0.12-0.55-0.24-0.83-0.35c-0.26-0.11-0.52-0.21-0.78-0.31
								c-0.27-0.1-0.53-0.2-0.79-0.29c-0.27-0.09-0.53-0.19-0.8-0.27c-0.54-0.18-1.07-0.33-1.61-0.46c-0.26-0.07-0.53-0.13-0.8-0.19
								c-0.58-0.13-1.15-0.24-1.73-0.33c-0.46-0.07-0.92-0.13-1.38-0.18c-0.28-0.03-0.56-0.05-0.84-0.07
								c-0.28-0.02-0.56-0.04-0.84-0.04L54.86,9.2c-0.33-0.01-0.65-0.01-0.97-0.01c-0.27,0-0.54,0-0.81,0.01
								c-0.61,0.02-1.21,0.05-1.81,0.11l-0.02,0c-0.31,0.03-0.6,0.06-0.9,0.1c-0.31,0.04-0.6,0.08-0.9,0.13
								c-0.3,0.05-0.59,0.1-0.89,0.15c-0.3,0.05-0.58,0.12-0.87,0.18c-0.01-0.01-0.02-0.01-0.01,0c-0.29,0.06-0.57,0.14-0.86,0.21
								c-0.27,0.06-0.52,0.14-0.78,0.2c-0.06,0.02-0.12,0.03-0.17,0.05c-0.24,0.07-0.49,0.15-0.73,0.23
								c-0.34,0.11-0.68,0.22-1.01,0.35c-0.23,0.08-0.45,0.17-0.67,0.26c-0.5,0.2-0.99,0.42-1.48,0.65
								c-0.34,0.14-0.66,0.31-0.98,0.48c-0.24,0.12-0.47,0.25-0.7,0.38c-0.26,0.14-0.5,0.29-0.76,0.44c-0.25,0.15-0.5,0.3-0.74,0.46
								c-1.76,1.13-3.4,2.46-4.9,3.98c-0.19,0.18-0.37,0.37-0.55,0.56c-0.66,0.7-1.29,1.42-1.89,2.18
								c-0.27,0.33-0.53,0.67-0.78,1.02c-1.04,1.41-1.98,2.93-2.81,4.54c-0.16,0.29-0.3,0.57-0.44,0.86
								c-0.3,0.61-0.58,1.22-0.84,1.84c-0.14,0.31-0.27,0.63-0.39,0.95c-0.22,0.54-0.43,1.09-0.63,1.65
								c-0.1,0.28-0.19,0.57-0.29,0.85c-0.17,0.54-0.34,1.08-0.5,1.64c-0.08,0.27-0.16,0.53-0.22,0.81
								c-0.26,0.92-0.47,1.86-0.67,2.82c-0.05,0.25-0.1,0.5-0.14,0.75c-0.18,0.96-0.33,1.93-0.45,2.91
								c-0.05,0.37-0.09,0.73-0.13,1.1c-0.22,2.12-0.32,4.3-0.29,6.52c0,0.23,0.01,0.47,0.02,0.72c0.01,0.39,0.02,0.78,0.04,1.16
								c0.02,0.4,0.04,0.79,0.07,1.18c0.02,0.4,0.06,0.8,0.09,1.19c0.07,0.73,0.15,1.46,0.24,2.2C23.37,55.5,23.43,55.97,23.5,56.45
								z"/>
						</g>
						<g>
							<path class="st7" d="M53.77,13.76L53.77,13.76c0.58-0.02,1.17-0.02,1.76,0l193.59,5.94c0.51,0.02,1.02,0.05,1.52,0.1l0.02,0
								c15.62,1.56,30.35,19.29,33.44,40.47l84.48,579.05c3.04,20.82-5.78,40.71-20.03,45.88c-0.25,0.09-0.51,0.18-0.77,0.26
								c-0.48,0.15-0.97,0.29-1.47,0.41l-186.07,45.62c-0.57,0.14-1.14,0.26-1.71,0.36c-0.3,0.06-0.61,0.1-0.92,0.15
								c-17.36,2.43-33.78-13.15-37.14-36.14L27.2,56.5C23.79,33.1,35.72,14.38,53.77,13.76z M123.34,695.21
								c3.03,20.77,18.03,35.29,33.94,33.09c0.28-0.04,0.57-0.08,0.86-0.14c0.52-0.09,1.05-0.2,1.57-0.33l186.11-45.35
								c0.46-0.11,0.91-0.24,1.35-0.38c0.24-0.07,0.48-0.15,0.7-0.23c13.1-4.73,21.11-23.17,18.36-42.01L281.67,60.23
								c-2.82-19.33-16.18-35.59-30.58-37.05l-0.01,0l-0.06-0.01c-0.46-0.04-0.93-0.07-1.4-0.08L56.06,17.41
								c-0.54-0.02-1.08-0.01-1.61,0l-0.05,0.01c-16.63,0.62-27.35,17.81-24.24,39.13L123.34,695.21z"/>
						</g>
						
							<linearGradient id="SVGID_7_" gradientUnits="userSpaceOnUse" x1="976.3419" y1="926.7413" x2="988.5038" y2="926.7413" gradientTransform="matrix(-0.9899 0.1414 0.1414 0.9899 923.3646 -680.5731)">
							<stop  offset="0" style="stop-color:#F1F1F1"/>
							<stop  offset="1.192364e-03" style="stop-color:#F0F0F0"/>
							<stop  offset="0.1385" style="stop-color:#B7B7B7"/>
							<stop  offset="0.2715" style="stop-color:#888888"/>
							<stop  offset="0.397" style="stop-color:#636363"/>
							<stop  offset="0.5134" style="stop-color:#494949"/>
							<stop  offset="0.6172" style="stop-color:#393939"/>
							<stop  offset="0.6978" style="stop-color:#333333"/>
						</linearGradient>
						<path class="st8" d="M30.21,56.8l93.18,638.67c0.58,3.95,1.59,7.69,2.96,11.13c1.1,2.74,2.42,5.29,3.94,7.62
							c0.31,0.48,0.64,0.95,0.96,1.4c0.5,0.68,1,1.35,1.52,1.99c1.48,1.8,3.09,3.41,4.79,4.82c-3.57-5.46-6.14-12.17-7.24-19.65
							l-1.07-7.35c-0.08-0.43-0.15-0.87-0.21-1.31L36.08,56.82c-0.07-0.45-0.12-0.9-0.17-1.35l-1.05-7.19
							c-1.11-7.58-0.55-14.66,1.36-20.69C30.94,34.76,28.51,45.18,30.21,56.8z"/>
						<g>
							<path d="M55.09,21.07l0.13-0.01c0.45-0.01,0.91-0.01,1.37,0.01l193.52,5.41c0.41,0.01,0.82,0.03,1.22,0.06l0.12,0.02l0.06,0
								c13.05,1.35,25.16,16.1,27.72,33.63l84.64,580.19c2.5,17.14-4.78,33.87-16.7,38.16c-0.18,0.06-0.37,0.13-0.56,0.19
								l-0.07,0.02c-0.4,0.13-0.81,0.25-1.22,0.35l-186.15,45.09c-0.47,0.11-0.95,0.21-1.41,0.29l-0.09,0.02
								c-0.23,0.05-0.48,0.08-0.7,0.11c-14.44,1.98-28.03-11.21-30.78-30.04L33.12,56.59C30.3,37.26,40.01,21.65,55.09,21.07z
								 M133.65,692.87c0.88,6.03,3.28,11.27,6.59,15.15c0.18,0.21,0.36,0.41,0.54,0.6c0.55,0.6,1.12,1.16,1.71,1.69
								c0.52,0.46,1.06,0.89,1.61,1.3l0.01,0c0.69,0.5,1.41,0.95,2.14,1.36c0.73,0.4,1.48,0.75,2.24,1.04l0.01,0
								c0.38,0.15,0.76,0.28,1.15,0.39c0,0,0,0,0.01,0c0.38,0.12,0.78,0.22,1.17,0.3c0.79,0.17,1.59,0.28,2.41,0.33
								c0.97,0.05,1.95,0.01,2.94-0.11c0.09-0.01,0.18-0.02,0.27-0.03l0.13-0.03l0.09-0.01l0.1-0.02c0.09-0.01,0.17-0.03,0.25-0.04
								c0.09-0.02,0.17-0.03,0.26-0.05c0.18-0.04,0.35-0.07,0.52-0.11l186.24-44.4c0.14-0.03,0.29-0.08,0.45-0.12
								c0.15-0.05,0.3-0.09,0.45-0.14l0.06-0.01l0.07-0.03l0.11-0.03c0.07-0.03,0.15-0.06,0.23-0.09
								c8.75-3.11,14.12-15.39,12.29-27.98L272.81,60.1c-1.87-12.8-10.69-23.57-20.2-24.65l-0.16,0l-0.25-0.04
								c-0.3-0.03-0.55-0.03-0.8-0.04L58,30.65c-0.28-0.01-0.59-0.01-0.92,0l-0.1,0.01l-0.1,0c-0.07,0-0.14,0.01-0.2,0.02
								c-0.21,0.01-0.4,0.02-0.6,0.05c-0.09,0-0.18,0.01-0.27,0.02c-0.18,0.02-0.36,0.03-0.54,0.07c-0.21,0.02-0.42,0.05-0.63,0.1
								c-0.01,0-0.03,0-0.03,0.01c-0.31,0.04-0.61,0.11-0.9,0.19c-0.06,0.02-0.11,0.04-0.17,0.05c-0.25,0.06-0.49,0.13-0.72,0.21
								c-0.35,0.12-0.69,0.24-1.04,0.38c-0.28,0.1-0.55,0.22-0.81,0.35c-0.29,0.13-0.57,0.28-0.85,0.44
								c-0.56,0.3-1.1,0.64-1.61,1.03c-0.48,0.33-0.93,0.71-1.36,1.11c-0.09,0.09-0.19,0.18-0.29,0.28
								c-0.17,0.17-0.35,0.35-0.52,0.52c-0.23,0.23-0.45,0.47-0.66,0.73c-0.43,0.5-0.83,1.03-1.21,1.59
								c-0.2,0.27-0.39,0.56-0.55,0.86c-0.18,0.29-0.35,0.59-0.51,0.89c-0.67,1.23-1.23,2.54-1.67,3.95
								c-0.22,0.7-0.41,1.43-0.58,2.18c-0.16,0.74-0.3,1.5-0.4,2.29c-0.05,0.39-0.1,0.78-0.13,1.18c-0.08,0.86-0.12,1.74-0.12,2.63
								c-0.01,0.36-0.01,0.71,0.01,1.06c0.03,1.25,0.15,2.55,0.34,3.86L133.65,692.87z"/>
							<path d="M222.69,46.05c0.04-0.17,0.07-0.33,0.1-0.5c0-0.07,0.02-0.13,0.02-0.19C222.78,45.6,222.74,45.83,222.69,46.05z"/>
							<path d="M93.8,42.76c0.03,0.06,0.06,0.12,0.09,0.2c0.09,0.18,0.17,0.35,0.27,0.53C94.03,43.25,93.91,43.01,93.8,42.76z"/>
						</g>
						<path d="M87.74,31.38c1.69,0.15,3.3,1.84,3.78,3.97c0.03,0.2,0.06,0.38,0.1,0.57c0.14,0.79,0.32,1.56,0.53,2.33
							c0.07,0.27,0.14,0.53,0.23,0.79c0,0.01,0,0.01,0,0.01c0.1,0.32,0.2,0.63,0.31,0.94c0.09,0.28,0.19,0.56,0.3,0.84
							c0.03,0.06,0.05,0.12,0.08,0.2c0.03,0.06,0.05,0.14,0.09,0.21c0.02,0.06,0.04,0.11,0.06,0.17c0.04,0.09,0.08,0.19,0.11,0.28
							c0.05,0.1,0.09,0.21,0.13,0.31c0.1,0.26,0.22,0.51,0.34,0.76c0.12,0.25,0.23,0.49,0.36,0.73c0.01,0.04,0.03,0.07,0.05,0.1
							c0.01,0.02,0.01,0.03,0.02,0.05c0.1,0.21,0.21,0.41,0.32,0.6c0.09,0.18,0.19,0.35,0.29,0.52c0.02,0.05,0.06,0.1,0.1,0.17
							c0.05,0.09,0.1,0.18,0.15,0.26c0.07,0.13,0.14,0.24,0.21,0.35c0.02,0.03,0.03,0.06,0.05,0.09c0.02,0.04,0.05,0.08,0.08,0.14
							c0.05,0.08,0.1,0.16,0.15,0.23c0.05,0.09,0.11,0.18,0.17,0.26c0.04,0.07,0.09,0.15,0.14,0.22c0.02,0.04,0.05,0.07,0.08,0.11
							c0.06,0.09,0.11,0.18,0.17,0.26c0.04,0.06,0.08,0.13,0.13,0.18c0.05,0.09,0.11,0.18,0.18,0.26c0.01,0.02,0.03,0.04,0.04,0.06
							c0.01,0.02,0.03,0.04,0.05,0.05c0.06,0.09,0.13,0.19,0.2,0.28c0.02,0.04,0.05,0.07,0.08,0.1c0.07,0.1,0.15,0.21,0.23,0.3
							l0.01,0c0.1,0.13,0.2,0.25,0.29,0.37c0.09,0.14,0.2,0.26,0.3,0.38c0,0.01,0.01,0.02,0.01,0.02l0.01,0
							c0.06,0.08,0.13,0.16,0.19,0.23c0.07,0.08,0.14,0.17,0.22,0.25c0.07,0.08,0.14,0.16,0.21,0.23c0.13,0.15,0.25,0.28,0.39,0.42
							c0.1,0.11,0.19,0.21,0.3,0.31c0.07,0.06,0.12,0.13,0.19,0.19c0.15,0.15,0.31,0.29,0.46,0.43c0.14,0.14,0.29,0.26,0.44,0.4
							c0.09,0.08,0.18,0.16,0.27,0.23c0.1,0.09,0.2,0.18,0.31,0.26c0,0.01,0.01,0.01,0.01,0.01c0.1,0.08,0.2,0.17,0.31,0.24
							c0.05,0.05,0.09,0.08,0.14,0.12c0.17,0.13,0.34,0.26,0.51,0.38c0.14,0.12,0.27,0.21,0.4,0.29c0.17,0.13,0.34,0.24,0.51,0.34
							c0.06,0.05,0.13,0.09,0.2,0.14c0.02,0.01,0.03,0.02,0.04,0.02c0.12,0.08,0.25,0.16,0.38,0.23c0.11,0.07,0.22,0.14,0.34,0.2
							c0.1,0.06,0.2,0.12,0.3,0.17c0.05,0.03,0.1,0.05,0.16,0.08c0.04,0.03,0.09,0.05,0.14,0.07l0.01,0
							c0.27,0.14,0.53,0.27,0.79,0.38c0.25,0.11,0.49,0.21,0.73,0.31c0.27,0.11,0.53,0.2,0.8,0.29c0.54,0.17,1.09,0.33,1.63,0.44
							c0.22,0.04,0.45,0.09,0.68,0.12c0.05,0.01,0.09,0.01,0.14,0.02c0.19,0.02,0.39,0.05,0.58,0.06c0.23,0.02,0.44,0.04,0.66,0.05
							c0.07,0,0.14,0,0.21,0.01l100.83,1.55c0.06-0.01,0.12-0.01,0.19-0.01c0.2-0.01,0.4-0.01,0.6-0.03
							c0.17-0.01,0.34-0.02,0.52-0.04c0.04-0.01,0.08-0.01,0.12-0.02c0.2-0.03,0.4-0.06,0.6-0.1c0.47-0.09,0.94-0.22,1.39-0.37
							c0.22-0.08,0.44-0.16,0.66-0.26c0.2-0.09,0.39-0.18,0.59-0.28c0.21-0.11,0.42-0.22,0.63-0.34l0.01,0
							c0.04-0.02,0.08-0.04,0.11-0.07c0.05-0.03,0.09-0.05,0.13-0.08c0.08-0.05,0.16-0.1,0.23-0.15c0.09-0.06,0.18-0.12,0.26-0.18
							c0.1-0.07,0.19-0.13,0.28-0.21c0.01,0,0.02-0.01,0.03-0.02c0.05-0.04,0.1-0.08,0.14-0.13c0.13-0.09,0.26-0.19,0.38-0.31
							c0.1-0.08,0.2-0.16,0.29-0.27c0.12-0.11,0.24-0.23,0.37-0.35c0.03-0.03,0.06-0.06,0.09-0.11c0.08-0.07,0.15-0.15,0.22-0.22
							c0,0,0.01,0,0.01-0.01c0.08-0.08,0.15-0.15,0.21-0.24c0.06-0.07,0.12-0.14,0.18-0.21c0.1-0.13,0.2-0.24,0.29-0.37
							c0.1-0.13,0.2-0.26,0.3-0.4c0.04-0.06,0.08-0.12,0.12-0.17c0.07-0.1,0.13-0.18,0.19-0.29c0.09-0.13,0.17-0.25,0.24-0.39
							c0.05-0.07,0.09-0.14,0.13-0.21c0.05-0.08,0.09-0.16,0.13-0.23c0.04-0.07,0.08-0.14,0.12-0.21l0.01,0
							c0.04-0.06,0.06-0.12,0.09-0.19c0.09-0.18,0.18-0.35,0.26-0.53l0.01,0c0.05-0.09,0.09-0.18,0.13-0.28
							c0.02-0.03,0.04-0.06,0.04-0.1c0.04-0.09,0.08-0.18,0.11-0.26c0.01-0.01,0.03-0.03,0.03-0.05c0-0.02,0.02-0.04,0.02-0.06
							c0.04-0.08,0.07-0.16,0.1-0.24c0.03-0.05,0.05-0.11,0.07-0.17c0.03-0.08,0.06-0.16,0.09-0.24c0.02-0.03,0.03-0.07,0.04-0.11
							c0.03-0.07,0.05-0.14,0.07-0.2c0.03-0.08,0.06-0.16,0.08-0.24c0.03-0.07,0.05-0.14,0.07-0.21c0.01-0.04,0.03-0.08,0.04-0.13
							c0.01-0.03,0.01-0.06,0.02-0.09c0.04-0.11,0.07-0.21,0.1-0.33c0.03-0.08,0.05-0.16,0.07-0.24c0.01-0.05,0.03-0.11,0.04-0.16
							c0.04-0.16,0.08-0.32,0.12-0.49c0.05-0.19,0.09-0.37,0.13-0.57c0-0.02,0-0.03,0.01-0.05c0.01-0.03,0.01-0.06,0.01-0.1
							c0.05-0.22,0.09-0.45,0.13-0.68c0.04-0.23,0.08-0.47,0.1-0.71c0.01-0.1,0.02-0.2,0.04-0.29c0.01-0.09,0.02-0.18,0.03-0.26
							c0.01-0.05,0.01-0.1,0.01-0.16c0.01-0.07,0.02-0.13,0.02-0.2c0.01-0.06,0.01-0.13,0.02-0.19c0.02-0.26,0.04-0.53,0.04-0.79
							c0.02-0.29,0.02-0.59,0.02-0.89c0,0,0,0,0-0.01c0.01-0.24,0-0.49-0.01-0.75c-0.01-0.73-0.06-1.46-0.15-2.21
							c-0.02-0.18-0.04-0.35-0.06-0.54c-0.14-2.01,0.86-3.56,2.35-3.63L87.74,31.38z"/>
						<path d="M211.96,57.34c-0.2,0.02-0.4,0.02-0.6,0.03c0.11,0,0.23,0,0.34,0c0.12,0,0.23-0.01,0.35-0.02
							c0.13-0.01,0.25-0.03,0.39-0.03c0.01,0,0.03,0,0.04-0.01C212.31,57.31,212.13,57.33,211.96,57.34z"/>
						<path d="M108.89,55.7c0.02,0.01,0.03,0.01,0.05,0.01c0.15,0.01,0.28,0.04,0.43,0.05c0.13,0.02,0.26,0.03,0.39,0.04
							c0.12,0.01,0.25,0.01,0.37,0.02c-0.22-0.01-0.43-0.03-0.66-0.05C109.28,55.74,109.09,55.72,108.89,55.7z"/>
						<path d="M222.92,44.65c0.01-0.01,0-0.02,0.01-0.03c0.01-0.09,0.02-0.18,0.03-0.26C222.94,44.46,222.93,44.56,222.92,44.65z"/>
						<path d="M222.69,46.05c0.04-0.17,0.07-0.33,0.1-0.5c0-0.07,0.02-0.13,0.02-0.19C222.78,45.6,222.74,45.83,222.69,46.05z"/>
						<path d="M221.47,50c0.05-0.1,0.09-0.2,0.14-0.31c0,0.02-0.02,0.04-0.03,0.05C221.55,49.82,221.51,49.91,221.47,50z"/>
						<path d="M221.03,50.9c0.06-0.11,0.12-0.21,0.17-0.33c0.03-0.07,0.07-0.13,0.1-0.19l-0.01,0
							C221.21,50.55,221.12,50.73,221.03,50.9z"/>
						<path d="M220.82,51.3c0.05-0.07,0.09-0.15,0.12-0.21l-0.01,0C220.9,51.16,220.86,51.23,220.82,51.3z"/>
						<path d="M219.41,53.37c0.1-0.11,0.2-0.23,0.29-0.36c0.06-0.07,0.12-0.15,0.17-0.23c0.05-0.06,0.09-0.12,0.13-0.17
							c-0.1,0.14-0.2,0.27-0.3,0.4C219.61,53.13,219.51,53.24,219.41,53.37z"/>
						<path d="M219.23,53.58c-0.07,0.09-0.14,0.16-0.21,0.24c0.03-0.02,0.05-0.04,0.06-0.06C219.13,53.71,219.18,53.65,219.23,53.58
							z"/>
						<path d="M218.33,54.51c0.08-0.06,0.15-0.13,0.22-0.19c0.01,0,0.01-0.01,0.01-0.01c0.04-0.05,0.09-0.1,0.13-0.15
							C218.58,54.28,218.46,54.41,218.33,54.51z"/>
						<path d="M215.84,56.27c0.18-0.09,0.35-0.17,0.52-0.28c0.03-0.02,0.07-0.04,0.1-0.07C216.25,56.05,216.05,56.17,215.84,56.27z"
							/>
						<path d="M215.25,56.55c-0.22,0.1-0.44,0.18-0.66,0.26c0.15-0.05,0.3-0.1,0.45-0.16c0.08-0.03,0.15-0.06,0.22-0.09
							c0.1-0.04,0.19-0.09,0.29-0.13c0.1-0.05,0.21-0.1,0.3-0.15C215.64,56.37,215.45,56.46,215.25,56.55z"/>
						<path d="M213.2,57.18c-0.19,0.04-0.39,0.07-0.6,0.1c0.18-0.02,0.36-0.04,0.53-0.08C213.16,57.2,213.18,57.19,213.2,57.18
							c0.08-0.01,0.16-0.03,0.24-0.05c0.16-0.03,0.31-0.06,0.47-0.11c0.2-0.06,0.39-0.11,0.58-0.18c0.03-0.01,0.06-0.02,0.1-0.04
							C214.14,56.96,213.67,57.09,213.2,57.18z"/>
						<path d="M211.96,57.34l0.09,0c0.04,0,0.1,0,0.14-0.01c0.08-0.01,0.17-0.02,0.25-0.03c0.01,0,0.03,0,0.04-0.01
							C212.31,57.31,212.13,57.33,211.96,57.34z"/>
						<path d="M110.34,55.82c0.07,0.01,0.14,0.01,0.21,0.01l100.43,1.54c0.07,0,0.13,0,0.19-0.01L110.34,55.82z"/>
						<path d="M109.47,55.76c-0.19-0.01-0.38-0.04-0.58-0.06c0.02,0.01,0.03,0.01,0.05,0.01c0.09,0.01,0.19,0.02,0.28,0.03
							c0.05,0.01,0.11,0.01,0.15,0.01L109.47,55.76z"/>
						<path d="M108.08,55.55c-0.54-0.11-1.09-0.26-1.63-0.44c0.04,0.02,0.08,0.03,0.12,0.04c0.23,0.08,0.46,0.14,0.69,0.21
							c0.18,0.05,0.37,0.1,0.55,0.13c0.09,0.02,0.18,0.04,0.27,0.07c0.02,0,0.05,0.01,0.07,0.01c0.2,0.04,0.4,0.08,0.61,0.1
							C108.53,55.64,108.3,55.6,108.08,55.55z"/>
						<path d="M104.91,54.52c0.12,0.06,0.25,0.12,0.38,0.17c0.12,0.05,0.24,0.11,0.36,0.15c0.08,0.03,0.17,0.06,0.26,0.1
							c0.18,0.06,0.36,0.13,0.54,0.18c-0.27-0.09-0.53-0.18-0.8-0.29C105.4,54.73,105.16,54.62,104.91,54.52z"/>
						<path d="M104.91,54.52c-0.27-0.12-0.52-0.24-0.79-0.38c0.04,0.03,0.09,0.05,0.13,0.07C104.48,54.32,104.69,54.42,104.91,54.52
							z"/>
						<path d="M101.63,52.58c-0.17-0.12-0.34-0.25-0.51-0.38c0.06,0.05,0.13,0.11,0.19,0.16c0.01,0,0.01,0.01,0.02,0.01
							C101.42,52.44,101.52,52.52,101.63,52.58z"/>
						<path d="M100.35,51.57c0.08,0.07,0.15,0.14,0.22,0.2c0.03,0.02,0.05,0.04,0.09,0.06C100.55,51.75,100.45,51.66,100.35,51.57z"
							/>
						<path d="M99.19,50.51c0.07,0.06,0.12,0.13,0.2,0.19c0.09,0.09,0.18,0.18,0.26,0.25c0.14,0.14,0.29,0.27,0.43,0.39
							c-0.15-0.14-0.3-0.26-0.44-0.4C99.5,50.8,99.34,50.66,99.19,50.51z"/>
						<path d="M97.67,48.88c0.06,0.07,0.13,0.16,0.2,0.23C97.81,49.03,97.74,48.96,97.67,48.88L97.67,48.88z"/>
						<path d="M97.06,48.11c0.05,0.07,0.11,0.14,0.17,0.21c0.04,0.05,0.08,0.1,0.14,0.16C97.26,48.36,97.16,48.24,97.06,48.11
							L97.06,48.11z"/>
						<path d="M96.5,47.37c0.08,0.11,0.16,0.23,0.25,0.33c-0.07-0.09-0.14-0.19-0.2-0.28C96.53,47.41,96.51,47.39,96.5,47.37z"/>
						<path d="M93.8,42.76c0.03,0.06,0.06,0.12,0.09,0.2c0.09,0.18,0.17,0.35,0.27,0.53C94.03,43.25,93.91,43.01,93.8,42.76z"/>
						<path d="M93.33,41.69c0.04,0.09,0.08,0.19,0.11,0.28c0.01,0.01,0.01,0.02,0.02,0.03C93.41,41.9,93.37,41.79,93.33,41.69z"/>
						<g>
							
								<linearGradient id="SVGID_8_" gradientUnits="userSpaceOnUse" x1="743.0984" y1="1257.8361" x2="980.7486" y2="1257.8361" gradientTransform="matrix(-0.9899 0.1414 0.1414 0.9899 923.3646 -680.5731)">
								<stop  offset="0" style="stop-color:#000000"/>
								<stop  offset="0.1045" style="stop-color:#141414"/>
								<stop  offset="0.2593" style="stop-color:#2C2C2C"/>
								<stop  offset="0.4027" style="stop-color:#3B3B3B"/>
								<stop  offset="0.5229" style="stop-color:#404040"/>
								<stop  offset="0.6306" style="stop-color:#393939"/>
								<stop  offset="0.7927" style="stop-color:#242424"/>
								<stop  offset="0.9882" style="stop-color:#020202"/>
								<stop  offset="1" style="stop-color:#000000"/>
							</linearGradient>
							<path class="st9" d="M129.26,695.42l1.07,7.35c1.09,7.48,3.66,14.2,7.24,19.65c5.75,4.73,12.65,7.05,19.72,6.08
								c0.28-0.04,0.57-0.08,0.86-0.14c0.52-0.09,1.05-0.2,1.57-0.33l186.11-45.37c0.46-0.11,0.91-0.24,1.35-0.38
								c0.24-0.07,0.48-0.15,0.7-0.23c0.32-0.11,0.65-0.24,0.97-0.38c5.42-2.27,9.91-6.94,13.04-12.97
								c1.44-6.12,1.79-12.9,0.79-19.75l-1.14-7.84c1.31,8.95-0.36,17.77-4.07,24.32c-2.68,4.76-6.45,8.35-10.95,9.95
								c-0.15,0.05-0.29,0.11-0.44,0.15l-0.06,0.02l-0.07,0.02c-0.36,0.11-0.73,0.22-1.1,0.31l-186.18,44.84
								c-0.42,0.1-0.85,0.18-1.27,0.26l-0.08,0.02l-0.08,0.01c-0.2,0.05-0.39,0.06-0.58,0.09
								C144.04,722.82,132.16,711.63,129.26,695.42z"/>
							
								<linearGradient id="SVGID_9_" gradientUnits="userSpaceOnUse" x1="744.8757" y1="604.9431" x2="988.5266" y2="604.9431" gradientTransform="matrix(-0.9899 0.1414 0.1414 0.9899 923.3646 -680.5731)">
								<stop  offset="0" style="stop-color:#000000"/>
								<stop  offset="0.1045" style="stop-color:#141414"/>
								<stop  offset="0.2593" style="stop-color:#2C2C2C"/>
								<stop  offset="0.4027" style="stop-color:#3B3B3B"/>
								<stop  offset="0.5229" style="stop-color:#404040"/>
								<stop  offset="0.6306" style="stop-color:#393939"/>
								<stop  offset="0.7927" style="stop-color:#242424"/>
								<stop  offset="0.9882" style="stop-color:#020202"/>
								<stop  offset="1" style="stop-color:#000000"/>
							</linearGradient>
							<path class="st10" d="M30.18,56.61l-0.03-0.06c-3.11-21.32,7.61-38.51,24.24-39.13l0.05-0.01c0.52-0.01,1.06-0.01,1.61,0
								l193.55,5.68c0.47,0.01,0.94,0.04,1.4,0.08l0.06,0.01l0.01,0c0.59,0.06,1.17,0.14,1.76,0.25c5.93,1.1,11.62,4.66,16.37,9.84
								c3.14,5.63,5.42,12.15,6.43,19.05l1.14,7.84c-1.32-9.02-5.44-17.21-10.92-22.79c-4.08-4.16-8.93-6.88-13.93-7.41l-0.12,0
								l-0.17-0.03c-0.38-0.03-0.73-0.04-1.04-0.05L57.11,24.72c-0.33-0.01-0.69-0.01-1.09,0l-0.01,0l-0.26,0.01
								c-13.18,0.53-21.78,13.83-19.89,30.56l-1.05-7.19c-1.11-7.58-0.55-14.66,1.36-20.69C30.91,34.57,28.48,44.99,30.18,56.61z"/>
							
								<linearGradient id="SVGID_10_" gradientUnits="userSpaceOnUse" x1="738.2938" y1="935.2015" x2="744.3637" y2="935.2015" gradientTransform="matrix(-0.9899 0.1414 0.1414 0.9899 923.3646 -680.5731)">
								<stop  offset="0" style="stop-color:#404040"/>
								<stop  offset="0.644" style="stop-color:#1A1A1A"/>
								<stop  offset="1" style="stop-color:#0A0A0A"/>
							</linearGradient>
							<path class="st11" d="M361.87,668.52c4.11-7.92,5.88-18.21,4.36-28.66L281.67,60.23c-1.54-10.55-6.2-20.16-12.45-26.96
								c3.14,5.63,5.42,12.15,6.43,19.05l87.02,596.44C363.66,655.61,363.31,662.4,361.87,668.52z"/>
							
								<linearGradient id="SVGID_11_" gradientUnits="userSpaceOnUse" x1="976.3204" y1="926.608" x2="988.519" y2="926.608" gradientTransform="matrix(-0.9899 0.1414 0.1414 0.9899 923.3646 -680.5731)">
								<stop  offset="0" style="stop-color:#0A0A0A"/>
								<stop  offset="0.356" style="stop-color:#1A1A1A"/>
								<stop  offset="1" style="stop-color:#404040"/>
							</linearGradient>
							<path class="st12" d="M30.17,56.64l93.18,638.67c0.58,3.95,1.59,7.69,2.96,11.13c1.1,2.74,2.42,5.29,3.94,7.62
								c0.31,0.48,0.64,0.95,0.96,1.4c0.48,0.69,0.99,1.35,1.52,1.99c1.49,1.83,3.11,3.47,4.84,4.89c-0.02-0.02-0.03-0.04-0.05-0.07
								c-3.57-5.46-6.14-12.17-7.24-19.65L34.81,48.12c-1.11-7.58-0.55-14.66,1.36-20.69C30.9,34.59,28.47,45.01,30.17,56.64z"/>
						</g>
						<g>
							
								<linearGradient id="SVGID_12_" gradientUnits="userSpaceOnUse" x1="843.2032" y1="603.2306" x2="873.6147" y2="603.2306" gradientTransform="matrix(-0.9899 0.1414 0.1414 0.9899 923.3646 -680.5731)">
								<stop  offset="0" style="stop-color:#333333"/>
								<stop  offset="0.0901" style="stop-color:#2B2B2B"/>
								<stop  offset="0.2885" style="stop-color:#1E1E1E"/>
								<stop  offset="0.4787" style="stop-color:#1A1A1A"/>
								<stop  offset="0.7885" style="stop-color:#1C1C1C"/>
								<stop  offset="0.8999" style="stop-color:#232323"/>
								<stop  offset="0.9792" style="stop-color:#2E2E2E"/>
								<stop  offset="1" style="stop-color:#333333"/>
							</linearGradient>
							<path class="st13" d="M145.13,39.77l28.24,0.61c0.7,0.02,1.16-0.72,1.03-1.65l-0.13-0.86c-0.14-0.93-0.82-1.69-1.52-1.71
								l-28.24-0.66c-0.72-0.02-1.19,0.73-1.06,1.67l0.13,0.87C143.72,38.98,144.41,39.76,145.13,39.77z"/>
						</g>
						<g>
							<defs>
								<path id="SVGID_13_" d="M56.62,30.68l0.19,0l0.28-0.03c0.33-0.01,0.63,0,0.92,0l29.73,0.73c1.7,0.15,3.29,1.84,3.77,3.97
									c0.03,0.14,0.06,0.29,0.08,0.44l0.01,0.05c2.01,11,10.35,19.86,18.95,19.99l48.5,0.75l5.38,0.08l46.56,0.72
									c7.91,0.12,13.12-8.1,11.96-18.54l-0.01-0.05c-0.02-0.15-0.03-0.28-0.05-0.42c-0.14-2.01,0.85-3.56,2.35-3.62l26.17,0.64
									c0.24,0.01,0.5,0.01,0.79,0.04l0.25,0.04l0.16,0c9.51,1.06,18.33,11.84,20.2,24.65l84.87,581.7
									c1.84,12.59-3.54,24.88-12.29,27.98c-0.09,0.03-0.16,0.06-0.23,0.08l-0.06,0.01l-0.05,0.02l-0.1,0.02l-0.03,0.02
									c-0.3,0.09-0.59,0.18-0.89,0.25l-87.06,20.76l-5.19,1.24l-93.99,22.41c-0.35,0.08-0.7,0.15-1.05,0.21l-0.04,0l-0.12,0.03
									l-0.06,0l-0.07,0.02c-0.08,0.01-0.17,0.02-0.28,0.04c-10.58,1.41-20.51-8.27-22.52-22.03L40.84,56.71
									C38.79,42.7,45.75,31.32,56.62,30.68z"/>
							</defs>
							<clipPath id="SVGID_14_">
								<use xlink:href="#SVGID_13_"  style="overflow:visible;"/>
							</clipPath>
						</g>
					</g>
				</g>
			</g>
		</g>
		
			<linearGradient id="SVGID_15_" gradientUnits="userSpaceOnUse" x1="660.4271" y1="715.7519" x2="1090.5515" y2="1145.8763" gradientTransform="matrix(-0.9899 0.1414 0.1414 0.9899 923.3646 -680.5731)">
			<stop  offset="0" style="stop-color:#F2F3F4"/>
			<stop  offset="0.3559" style="stop-color:#EDEEEF"/>
			<stop  offset="0.7827" style="stop-color:#DFE0E0"/>
			<stop  offset="1" style="stop-color:#D5D6D6"/>
		</linearGradient>
		<path class="st14" d="M40.84,56.7l92.81,636.17c0.88,6.03,3.28,11.27,6.59,15.15c0.18,0.21,0.36,0.41,0.54,0.6
			c0.56,0.6,1.12,1.16,1.71,1.69c0.52,0.46,1.06,0.89,1.61,1.3l0.01,0c0.69,0.5,1.41,0.95,2.14,1.36c0.72,0.39,1.47,0.74,2.24,1.04
			l0.01,0c0.38,0.14,0.76,0.26,1.15,0.39c0,0,0,0,0.01,0c0.38,0.12,0.78,0.21,1.17,0.3c0.79,0.17,1.59,0.27,2.41,0.33
			c0.97,0.05,1.95,0.01,2.94-0.11c0.11-0.01,0.18-0.02,0.27-0.03l0.07-0.02l0.06,0l0.14-0.03l0.03,0c0.09-0.02,0.18-0.04,0.27-0.05
			c0.09-0.02,0.17-0.03,0.26-0.05c0.18-0.04,0.35-0.07,0.52-0.11l186.24-44.4c0.14-0.03,0.29-0.08,0.45-0.12
			c0.15-0.05,0.3-0.09,0.45-0.13l0.03-0.02l0.11-0.03l0.05-0.02l0.05-0.01c0.07-0.03,0.14-0.05,0.23-0.09
			c8.75-3.11,14.12-15.39,12.29-27.98L272.81,60.1c-1.87-12.8-10.69-23.57-20.2-24.65l-0.16,0l-0.25-0.04
			c-0.3-0.03-0.55-0.03-0.8-0.04l-26.17-0.64c-1.5,0.07-2.49,1.61-2.35,3.63c0.01,0.14,0.03,0.28,0.05,0.41l0.01,0.06
			c0,0.02,0.01,0.05,0,0.07c0.09,0.75,0.14,1.48,0.15,2.21c0.01,0.26,0.01,0.5,0.01,0.75c0,0.01,0,0.01,0,0.01
			c0,0.3-0.01,0.6-0.02,0.89c-0.01,0.26-0.02,0.53-0.04,0.79c-0.01,0.06-0.01,0.13-0.02,0.19c0,0.07-0.01,0.13-0.02,0.2
			c0,0.06-0.01,0.11-0.01,0.16c-0.01,0.09-0.02,0.18-0.03,0.26c-0.01,0.09-0.02,0.18-0.03,0.26c-0.01,0.01,0,0.02-0.01,0.03
			c-0.02,0.24-0.06,0.48-0.1,0.71c-0.04,0.23-0.08,0.46-0.13,0.68c0,0.04,0,0.07-0.01,0.1c0,0.02,0,0.03-0.01,0.05
			c-0.04,0.2-0.08,0.38-0.13,0.57c-0.03,0.17-0.08,0.33-0.12,0.49c-0.01,0.05-0.03,0.11-0.04,0.16c-0.02,0.09-0.04,0.17-0.07,0.24
			c-0.03,0.12-0.06,0.22-0.1,0.33c-0.01,0.03-0.01,0.06-0.02,0.09c-0.01,0.05-0.03,0.09-0.04,0.13c-0.02,0.08-0.04,0.15-0.07,0.21
			c-0.02,0.09-0.05,0.17-0.08,0.24c-0.02,0.07-0.05,0.14-0.07,0.2c-0.02,0.04-0.03,0.08-0.04,0.11c-0.03,0.09-0.06,0.17-0.09,0.24
			c-0.02,0.06-0.04,0.12-0.07,0.17c-0.02,0.09-0.06,0.17-0.1,0.24c0,0.02-0.02,0.04-0.02,0.06c0,0.02-0.02,0.04-0.03,0.05
			c-0.03,0.09-0.07,0.18-0.11,0.26c-0.01,0.04-0.03,0.07-0.04,0.1c-0.04,0.1-0.08,0.2-0.13,0.28l-0.01,0
			c-0.03,0.07-0.05,0.14-0.09,0.19c-0.05,0.12-0.11,0.22-0.17,0.33c-0.03,0.07-0.05,0.13-0.09,0.19l-0.01,0
			c-0.03,0.08-0.07,0.15-0.12,0.21c-0.04,0.08-0.09,0.16-0.13,0.23c-0.04,0.08-0.08,0.15-0.13,0.21c-0.08,0.14-0.15,0.26-0.24,0.39
			c-0.06,0.11-0.12,0.19-0.19,0.29c-0.04,0.06-0.08,0.12-0.12,0.17c-0.04,0.06-0.08,0.12-0.13,0.17c-0.05,0.08-0.11,0.16-0.17,0.22
			l0,0.01c-0.09,0.13-0.19,0.25-0.29,0.36c-0.06,0.08-0.12,0.15-0.18,0.21c-0.05,0.07-0.1,0.13-0.15,0.18
			c-0.02,0.02-0.04,0.04-0.06,0.06c0,0.01-0.01,0.01-0.01,0.01c-0.07,0.08-0.14,0.15-0.22,0.22c-0.03,0.05-0.06,0.08-0.09,0.11
			c-0.04,0.05-0.09,0.1-0.13,0.15c-0.01,0-0.01,0.01-0.01,0.01c-0.07,0.07-0.14,0.14-0.22,0.19c-0.09,0.11-0.19,0.19-0.29,0.27
			c-0.12,0.12-0.25,0.22-0.38,0.31c-0.04,0.05-0.1,0.09-0.14,0.13c-0.01,0.01-0.02,0.02-0.03,0.02c-0.09,0.08-0.18,0.14-0.28,0.21
			c-0.08,0.07-0.17,0.13-0.26,0.18c-0.07,0.06-0.15,0.11-0.23,0.15c-0.04,0.03-0.08,0.06-0.13,0.08c-0.03,0.03-0.07,0.05-0.11,0.07
			c-0.03,0.03-0.07,0.05-0.11,0.07c-0.18,0.11-0.35,0.19-0.52,0.28c-0.09,0.06-0.2,0.11-0.3,0.15c-0.1,0.05-0.19,0.09-0.29,0.12
			l0,0.01c-0.07,0.03-0.14,0.06-0.22,0.09c-0.15,0.06-0.3,0.11-0.45,0.16c-0.03,0.02-0.07,0.03-0.1,0.04
			c-0.2,0.07-0.39,0.12-0.58,0.18c-0.16,0.05-0.31,0.08-0.47,0.11c-0.08,0.02-0.16,0.04-0.24,0.05l0,0.01
			c-0.02,0-0.04,0.01-0.06,0.01c-0.17,0.04-0.35,0.06-0.53,0.08c-0.04,0.01-0.08,0.01-0.12,0.02c-0.01,0.01-0.03,0.01-0.04,0.01
			c-0.08,0.01-0.17,0.02-0.25,0.03c-0.04,0.01-0.09,0.01-0.14,0.01c-0.12,0.02-0.23,0.03-0.35,0.02c-0.17,0.02-0.35,0.02-0.53,0.01
			c-0.06,0.01-0.12,0.01-0.19,0.01l-100.43-1.54c-0.07,0-0.14,0-0.21-0.01c-0.19,0.01-0.38-0.01-0.58-0.03
			c-0.13,0-0.26-0.01-0.39-0.04c-0.05,0-0.1,0-0.15-0.01c-0.09-0.01-0.19-0.02-0.28-0.03c-0.02,0-0.03,0-0.05-0.01
			c-0.05-0.01-0.09-0.01-0.14-0.02c-0.2-0.02-0.41-0.06-0.61-0.1c-0.02,0-0.05-0.01-0.07-0.01l0-0.01
			c-0.09-0.01-0.18-0.03-0.27-0.06c-0.18-0.03-0.36-0.08-0.55-0.13c-0.23-0.07-0.46-0.13-0.69-0.21c-0.03-0.01-0.08-0.02-0.12-0.04
			c-0.18-0.05-0.36-0.12-0.54-0.18c-0.09-0.03-0.18-0.06-0.26-0.1l0-0.01c-0.12-0.04-0.24-0.09-0.36-0.14
			c-0.13-0.05-0.26-0.11-0.38-0.17c-0.22-0.1-0.44-0.19-0.66-0.31c-0.04-0.02-0.09-0.04-0.14-0.07c-0.05-0.02-0.09-0.04-0.14-0.07
			c-0.06-0.02-0.11-0.05-0.16-0.08c-0.1-0.05-0.21-0.11-0.3-0.17c-0.12-0.06-0.23-0.13-0.34-0.2c-0.13-0.07-0.25-0.15-0.38-0.23
			c-0.02,0-0.03-0.01-0.04-0.02c-0.06-0.04-0.13-0.08-0.2-0.14c-0.17-0.1-0.34-0.21-0.51-0.34c-0.13-0.08-0.27-0.18-0.4-0.29
			c-0.11-0.06-0.2-0.14-0.3-0.21c-0.01,0-0.01-0.01-0.02-0.01c-0.06-0.05-0.13-0.11-0.19-0.16c-0.04-0.03-0.09-0.06-0.14-0.12
			c-0.11-0.07-0.21-0.16-0.31-0.24c0,0-0.01,0-0.01-0.01c-0.04-0.02-0.06-0.04-0.09-0.06c-0.07-0.06-0.15-0.13-0.22-0.2
			c-0.09-0.07-0.17-0.15-0.27-0.23c-0.15-0.12-0.29-0.25-0.43-0.39l0-0.01c-0.09-0.07-0.18-0.16-0.26-0.24
			c-0.07-0.06-0.13-0.13-0.2-0.19c-0.07-0.06-0.12-0.13-0.19-0.19c-0.11-0.11-0.21-0.2-0.3-0.31c-0.14-0.14-0.26-0.27-0.39-0.42
			c-0.07-0.07-0.14-0.15-0.21-0.23c-0.08-0.08-0.15-0.17-0.22-0.25c-0.07-0.07-0.13-0.15-0.19-0.23l-0.01,0c0,0-0.01-0.01-0.01-0.02
			c-0.11-0.12-0.21-0.24-0.3-0.38c-0.06-0.05-0.1-0.1-0.14-0.16c-0.06-0.06-0.11-0.14-0.16-0.21l-0.01,0
			c-0.08-0.09-0.16-0.2-0.23-0.3c-0.03-0.03-0.06-0.06-0.08-0.1c-0.07-0.09-0.14-0.19-0.2-0.28c-0.02-0.01-0.04-0.03-0.05-0.05
			c-0.01-0.02-0.03-0.04-0.04-0.06c-0.07-0.08-0.13-0.17-0.18-0.26c-0.05-0.05-0.09-0.11-0.13-0.18c-0.06-0.08-0.11-0.17-0.17-0.26
			c-0.03-0.04-0.06-0.07-0.08-0.11c-0.05-0.07-0.1-0.15-0.14-0.22c-0.06-0.08-0.11-0.17-0.17-0.26c-0.05-0.07-0.09-0.15-0.15-0.23
			c-0.03-0.05-0.06-0.09-0.08-0.14c-0.02-0.03-0.03-0.06-0.05-0.09c-0.07-0.11-0.15-0.23-0.21-0.35c-0.05-0.08-0.1-0.17-0.15-0.26
			c-0.04-0.06-0.07-0.11-0.1-0.17c-0.1-0.17-0.2-0.34-0.29-0.52c-0.11-0.2-0.22-0.4-0.32-0.6c-0.01-0.02-0.01-0.03-0.02-0.05
			c-0.02-0.03-0.03-0.06-0.05-0.1c-0.12-0.24-0.24-0.48-0.36-0.73c-0.12-0.25-0.23-0.5-0.34-0.76c-0.01-0.01-0.01-0.02-0.02-0.03
			c-0.04-0.09-0.08-0.19-0.11-0.28c-0.04-0.09-0.08-0.19-0.11-0.28c-0.02-0.05-0.05-0.1-0.06-0.17c-0.03-0.07-0.06-0.15-0.09-0.21
			c-0.03-0.07-0.05-0.13-0.08-0.2c-0.11-0.28-0.21-0.56-0.3-0.84c-0.11-0.31-0.21-0.62-0.31-0.94c0,0,0,0,0-0.01
			c-0.09-0.26-0.16-0.52-0.23-0.79c-0.22-0.77-0.39-1.55-0.53-2.33c-0.01-0.02-0.02-0.05-0.02-0.07l-0.01-0.06
			c-0.02-0.14-0.05-0.29-0.07-0.43c-0.48-2.13-2.08-3.81-3.78-3.97L58,30.65c-0.28-0.01-0.59-0.01-0.92,0l-0.1,0.01l-0.18,0.02
			l-0.18,0c-0.18,0.01-0.36,0.02-0.54,0.05c-0.09,0-0.18,0.01-0.27,0.02c-0.18,0.02-0.36,0.03-0.54,0.07
			c-0.21,0.03-0.42,0.05-0.63,0.1c-0.01,0-0.03,0-0.03,0.01c-0.31,0.06-0.6,0.12-0.9,0.19c-0.06,0.02-0.11,0.04-0.17,0.05
			c-0.25,0.07-0.49,0.13-0.72,0.21c-0.35,0.12-0.69,0.24-1.04,0.38c-0.27,0.11-0.55,0.23-0.81,0.35c-0.29,0.14-0.57,0.29-0.85,0.44
			c-0.55,0.31-1.09,0.66-1.61,1.03c-0.47,0.35-0.93,0.71-1.36,1.11c-0.09,0.09-0.19,0.18-0.29,0.28c-0.17,0.17-0.35,0.35-0.52,0.52
			c-0.22,0.24-0.45,0.48-0.66,0.73c-0.43,0.5-0.83,1.03-1.21,1.59c-0.19,0.28-0.38,0.57-0.55,0.86c-0.18,0.29-0.35,0.59-0.51,0.89
			c-0.66,1.23-1.22,2.55-1.67,3.95c-0.22,0.7-0.41,1.43-0.58,2.18c-0.16,0.74-0.3,1.5-0.4,2.29c-0.05,0.39-0.1,0.78-0.13,1.18
			c-0.08,0.86-0.12,1.74-0.12,2.63c-0.01,0.35,0,0.71,0.01,1.06C40.53,54.1,40.65,55.39,40.84,56.7z"/>
	</g>
</g>
</svg>
