<?xml version="1.0" encoding="utf-8"?>
<!-- Generator: Adobe Illustrator 24.2.2, SVG Export Plug-In . SVG Version: 6.00 Build 0)  -->
<svg version="1.1" id="Layer_1" xmlns="http://www.w3.org/2000/svg" xmlns:xlink="http://www.w3.org/1999/xlink" x="0px" y="0px"
	 viewBox="0 0 468 86" style="enable-background:new 0 0 468 86;" xml:space="preserve">
<style type="text/css">
	.st0{fill:#FFFFFF;}
</style>
<circle cx="168.92" cy="39.91" r="39.75"/>
<g>
	<circle cx="298.42" cy="39.91" r="39.75"/>
	<path class="st0" d="M320.38,26.28c-1.38,0.62-2.9,1-4.38,1.25c0.71-0.12,1.74-1.4,2.16-1.91c0.63-0.79,1.16-1.68,1.46-2.65
		c0.04-0.08,0.07-0.17-0.01-0.23c-0.1-0.04-0.16-0.02-0.23,0.02c-1.66,0.89-3.37,1.53-5.2,1.99c-0.15,0.04-0.26,0-0.36-0.09
		c-0.15-0.17-0.29-0.33-0.45-0.46c-0.77-0.65-1.59-1.16-2.52-1.54c-1.22-0.5-2.55-0.71-3.86-0.62c-1.28,0.08-2.53,0.44-3.66,1.04
		c-1.14,0.59-2.15,1.42-2.96,2.41c-0.83,1.03-1.45,2.25-1.77,3.54c-0.3,1.24-0.28,2.48-0.09,3.73c0.03,0.21,0.01,0.24-0.18,0.21
		c-7.14-1.06-13.06-3.62-17.86-9.09c-0.21-0.24-0.32-0.24-0.49,0.02c-2.1,3.15-1.08,8.21,1.54,10.7c0.35,0.33,0.71,0.66,1.1,0.97
		c-0.14,0.03-1.89-0.16-3.45-0.97c-0.21-0.13-0.31-0.06-0.33,0.18c-0.02,0.34,0.01,0.65,0.06,1.02c0.4,3.19,2.62,6.15,5.65,7.3
		c0.36,0.15,0.76,0.28,1.15,0.35c-0.69,0.15-1.4,0.26-3.38,0.1c-0.25-0.05-0.34,0.08-0.25,0.31c1.49,4.05,4.7,5.26,7.1,5.95
		c0.32,0.06,0.64,0.06,0.97,0.13c-0.02,0.03-0.04,0.03-0.06,0.06c-0.8,1.22-3.56,2.12-4.85,2.57c-2.34,0.82-4.89,1.19-7.37,0.94
		c-0.4-0.06-0.48-0.05-0.59,0c-0.11,0.07-0.01,0.16,0.11,0.26c0.5,0.33,1.01,0.63,1.53,0.91c1.57,0.83,3.21,1.5,4.92,1.97
		c8.85,2.44,18.82,0.65,25.47-5.95c5.22-5.18,7.05-12.34,7.05-19.49c0-0.28,0.33-0.44,0.53-0.58c1.36-1.02,2.45-2.24,3.47-3.6
		c0.23-0.31,0.23-0.58,0.23-0.69c0-0.02,0-0.04,0-0.04C320.56,26.17,320.56,26.2,320.38,26.28z"/>
</g>
<g>
	<circle cx="427.92" cy="39.91" r="39.75"/>
	<path class="st0" d="M449.2,34.12c0-5.27-4.27-9.55-9.55-9.55h-24.41c-5.27,0-9.55,4.27-9.55,9.55v11.36
		c0,5.27,4.27,9.55,9.55,9.55h24.41c5.27,0,9.55-4.27,9.55-9.55V34.12z M434.84,40.66l-10.95,5.42c-0.43,0.23-1.89-0.08-1.89-0.57
		V34.39c0-0.49,1.47-0.8,1.9-0.56l10.48,5.7C434.83,39.78,435.29,40.42,434.84,40.66z"/>
</g>
<g>
	<g>
		<path class="st0" d="M181.26,24.87c-1.51,0-2.73,1.22-2.73,2.73c0,1.51,1.22,2.73,2.73,2.73c1.51,0,2.73-1.22,2.73-2.73
			C183.99,26.09,182.76,24.87,181.26,24.87z"/>
		<path class="st0" d="M169.11,28.37c-6.33,0-11.48,5.15-11.48,11.48c0,6.33,5.15,11.48,11.48,11.48c6.33,0,11.48-5.15,11.48-11.48
			C180.59,33.52,175.44,28.37,169.11,28.37z M169.11,47.2c-4.05,0-7.35-3.3-7.35-7.35s3.3-7.35,7.35-7.35c4.05,0,7.35,3.3,7.35,7.35
			S173.16,47.2,169.11,47.2z"/>
		<path class="st0" d="M178.22,63.15h-18.61c-7.72,0-14-6.28-14-14V30.54c0-7.72,6.28-14,14-14h18.61c7.72,0,14,6.28,14,14v18.61
			C192.22,56.87,185.94,63.15,178.22,63.15z M159.61,20.93c-5.3,0-9.62,4.31-9.62,9.61v18.61c0,5.3,4.31,9.62,9.62,9.62h18.61
			c5.3,0,9.62-4.31,9.62-9.62V30.54c0-5.3-4.31-9.61-9.62-9.61H159.61z"/>
	</g>
</g>
<g>
	<g>
		<path d="M79.2,39.85C79.2,17.9,61.41,0.1,39.45,0.1C17.5,0.1-0.3,17.9-0.3,39.85c0,19.84,14.54,36.29,33.54,39.27V51.34H23.15
			V39.85h10.09v-8.76c0-9.96,5.93-15.47,15.01-15.47c4.35,0,8.9,0.78,8.9,0.78v9.78h-5.01c-4.94,0-6.48,3.06-6.48,6.21v7.46h11.03
			l-1.76,11.49h-9.26v27.78C64.67,76.14,79.2,59.69,79.2,39.85z"/>
		<path class="st0" d="M54.92,51.34l1.76-11.49H45.66v-7.46c0-3.14,1.54-6.21,6.48-6.21h5.01V16.4c0,0-4.55-0.78-8.9-0.78
			c-9.08,0-15.01,5.5-15.01,15.47v8.76H23.15v11.49h10.09v27.78c2.02,0.32,4.1,0.48,6.21,0.48c2.11,0,4.19-0.17,6.21-0.48V51.34
			H54.92z"/>
	</g>
</g>
</svg>
